%TF.GenerationSoftware,KiCad,Pcbnew,(7.0.0-0)*%
%TF.CreationDate,2023-05-27T19:41:02+07:00*%
%TF.ProjectId,Office HVAC,4f666669-6365-4204-9856-41432e6b6963,rev?*%
%TF.SameCoordinates,Original*%
%TF.FileFunction,Legend,Top*%
%TF.FilePolarity,Positive*%
%FSLAX46Y46*%
G04 Gerber Fmt 4.6, Leading zero omitted, Abs format (unit mm)*
G04 Created by KiCad (PCBNEW (7.0.0-0)) date 2023-05-27 19:41:02*
%MOMM*%
%LPD*%
G01*
G04 APERTURE LIST*
%ADD10C,0.250000*%
%ADD11C,0.300000*%
%ADD12C,0.120000*%
G04 APERTURE END LIST*
D10*
X164273809Y-123782380D02*
X164273809Y-124496666D01*
X164273809Y-124496666D02*
X164226190Y-124639523D01*
X164226190Y-124639523D02*
X164130952Y-124734761D01*
X164130952Y-124734761D02*
X163988095Y-124782380D01*
X163988095Y-124782380D02*
X163892857Y-124782380D01*
X165226190Y-124782380D02*
X164750000Y-124782380D01*
X164750000Y-124782380D02*
X164750000Y-123782380D01*
X166130952Y-124687142D02*
X166083333Y-124734761D01*
X166083333Y-124734761D02*
X165940476Y-124782380D01*
X165940476Y-124782380D02*
X165845238Y-124782380D01*
X165845238Y-124782380D02*
X165702381Y-124734761D01*
X165702381Y-124734761D02*
X165607143Y-124639523D01*
X165607143Y-124639523D02*
X165559524Y-124544285D01*
X165559524Y-124544285D02*
X165511905Y-124353809D01*
X165511905Y-124353809D02*
X165511905Y-124210952D01*
X165511905Y-124210952D02*
X165559524Y-124020476D01*
X165559524Y-124020476D02*
X165607143Y-123925238D01*
X165607143Y-123925238D02*
X165702381Y-123830000D01*
X165702381Y-123830000D02*
X165845238Y-123782380D01*
X165845238Y-123782380D02*
X165940476Y-123782380D01*
X165940476Y-123782380D02*
X166083333Y-123830000D01*
X166083333Y-123830000D02*
X166130952Y-123877619D01*
X166845238Y-123782380D02*
X166845238Y-124496666D01*
X166845238Y-124496666D02*
X166797619Y-124639523D01*
X166797619Y-124639523D02*
X166702381Y-124734761D01*
X166702381Y-124734761D02*
X166559524Y-124782380D01*
X166559524Y-124782380D02*
X166464286Y-124782380D01*
X167797619Y-124782380D02*
X167321429Y-124782380D01*
X167321429Y-124782380D02*
X167321429Y-123782380D01*
X168702381Y-124687142D02*
X168654762Y-124734761D01*
X168654762Y-124734761D02*
X168511905Y-124782380D01*
X168511905Y-124782380D02*
X168416667Y-124782380D01*
X168416667Y-124782380D02*
X168273810Y-124734761D01*
X168273810Y-124734761D02*
X168178572Y-124639523D01*
X168178572Y-124639523D02*
X168130953Y-124544285D01*
X168130953Y-124544285D02*
X168083334Y-124353809D01*
X168083334Y-124353809D02*
X168083334Y-124210952D01*
X168083334Y-124210952D02*
X168130953Y-124020476D01*
X168130953Y-124020476D02*
X168178572Y-123925238D01*
X168178572Y-123925238D02*
X168273810Y-123830000D01*
X168273810Y-123830000D02*
X168416667Y-123782380D01*
X168416667Y-123782380D02*
X168511905Y-123782380D01*
X168511905Y-123782380D02*
X168654762Y-123830000D01*
X168654762Y-123830000D02*
X168702381Y-123877619D01*
X169416667Y-123782380D02*
X169416667Y-124496666D01*
X169416667Y-124496666D02*
X169369048Y-124639523D01*
X169369048Y-124639523D02*
X169273810Y-124734761D01*
X169273810Y-124734761D02*
X169130953Y-124782380D01*
X169130953Y-124782380D02*
X169035715Y-124782380D01*
X170369048Y-124782380D02*
X169892858Y-124782380D01*
X169892858Y-124782380D02*
X169892858Y-123782380D01*
X171273810Y-124687142D02*
X171226191Y-124734761D01*
X171226191Y-124734761D02*
X171083334Y-124782380D01*
X171083334Y-124782380D02*
X170988096Y-124782380D01*
X170988096Y-124782380D02*
X170845239Y-124734761D01*
X170845239Y-124734761D02*
X170750001Y-124639523D01*
X170750001Y-124639523D02*
X170702382Y-124544285D01*
X170702382Y-124544285D02*
X170654763Y-124353809D01*
X170654763Y-124353809D02*
X170654763Y-124210952D01*
X170654763Y-124210952D02*
X170702382Y-124020476D01*
X170702382Y-124020476D02*
X170750001Y-123925238D01*
X170750001Y-123925238D02*
X170845239Y-123830000D01*
X170845239Y-123830000D02*
X170988096Y-123782380D01*
X170988096Y-123782380D02*
X171083334Y-123782380D01*
X171083334Y-123782380D02*
X171226191Y-123830000D01*
X171226191Y-123830000D02*
X171273810Y-123877619D01*
X171988096Y-123782380D02*
X171988096Y-124496666D01*
X171988096Y-124496666D02*
X171940477Y-124639523D01*
X171940477Y-124639523D02*
X171845239Y-124734761D01*
X171845239Y-124734761D02*
X171702382Y-124782380D01*
X171702382Y-124782380D02*
X171607144Y-124782380D01*
X172940477Y-124782380D02*
X172464287Y-124782380D01*
X172464287Y-124782380D02*
X172464287Y-123782380D01*
X173845239Y-124687142D02*
X173797620Y-124734761D01*
X173797620Y-124734761D02*
X173654763Y-124782380D01*
X173654763Y-124782380D02*
X173559525Y-124782380D01*
X173559525Y-124782380D02*
X173416668Y-124734761D01*
X173416668Y-124734761D02*
X173321430Y-124639523D01*
X173321430Y-124639523D02*
X173273811Y-124544285D01*
X173273811Y-124544285D02*
X173226192Y-124353809D01*
X173226192Y-124353809D02*
X173226192Y-124210952D01*
X173226192Y-124210952D02*
X173273811Y-124020476D01*
X173273811Y-124020476D02*
X173321430Y-123925238D01*
X173321430Y-123925238D02*
X173416668Y-123830000D01*
X173416668Y-123830000D02*
X173559525Y-123782380D01*
X173559525Y-123782380D02*
X173654763Y-123782380D01*
X173654763Y-123782380D02*
X173797620Y-123830000D01*
X173797620Y-123830000D02*
X173845239Y-123877619D01*
D11*
G36*
X120892808Y-106450279D02*
G01*
X120871652Y-106450061D01*
X120850682Y-106449409D01*
X120829898Y-106448321D01*
X120809300Y-106446798D01*
X120788888Y-106444840D01*
X120768662Y-106442448D01*
X120748622Y-106439620D01*
X120728769Y-106436357D01*
X120709101Y-106432659D01*
X120689619Y-106428526D01*
X120670324Y-106423958D01*
X120651214Y-106418954D01*
X120632290Y-106413516D01*
X120613553Y-106407643D01*
X120595001Y-106401335D01*
X120576636Y-106394591D01*
X120558560Y-106387446D01*
X120540784Y-106379931D01*
X120523308Y-106372047D01*
X120506134Y-106363794D01*
X120489259Y-106355171D01*
X120472686Y-106346180D01*
X120456413Y-106336819D01*
X120440440Y-106327089D01*
X120424768Y-106316989D01*
X120409396Y-106306521D01*
X120394325Y-106295683D01*
X120379555Y-106284476D01*
X120365085Y-106272900D01*
X120350915Y-106260954D01*
X120337047Y-106248639D01*
X120323478Y-106235956D01*
X120310291Y-106222948D01*
X120297472Y-106209663D01*
X120285023Y-106196101D01*
X120272943Y-106182260D01*
X120261232Y-106168142D01*
X120249891Y-106153747D01*
X120238918Y-106139074D01*
X120228315Y-106124123D01*
X120218081Y-106108894D01*
X120208217Y-106093388D01*
X120198721Y-106077605D01*
X120189595Y-106061543D01*
X120180838Y-106045204D01*
X120172450Y-106028588D01*
X120164432Y-106011693D01*
X120156782Y-105994521D01*
X120149551Y-105977103D01*
X120142786Y-105959471D01*
X120136488Y-105941623D01*
X120130656Y-105923561D01*
X120125291Y-105905285D01*
X120120392Y-105886793D01*
X120115960Y-105868087D01*
X120111994Y-105849166D01*
X120108495Y-105830031D01*
X120105463Y-105810681D01*
X120102897Y-105791116D01*
X120100797Y-105771337D01*
X120099165Y-105751343D01*
X120097998Y-105731134D01*
X120097298Y-105710711D01*
X120097065Y-105690073D01*
X120097298Y-105669435D01*
X120097998Y-105649011D01*
X120099165Y-105628803D01*
X120100797Y-105608809D01*
X120102897Y-105589029D01*
X120105463Y-105569465D01*
X120108495Y-105550114D01*
X120111994Y-105530979D01*
X120115960Y-105512058D01*
X120120392Y-105493352D01*
X120125291Y-105474861D01*
X120130656Y-105456584D01*
X120136488Y-105438522D01*
X120142786Y-105420675D01*
X120149551Y-105403042D01*
X120156782Y-105385624D01*
X120164436Y-105368409D01*
X120172467Y-105351478D01*
X120180877Y-105334830D01*
X120189664Y-105318465D01*
X120198828Y-105302384D01*
X120208371Y-105286585D01*
X120218292Y-105271071D01*
X120228590Y-105255840D01*
X120239266Y-105240892D01*
X120250320Y-105226227D01*
X120261752Y-105211846D01*
X120273561Y-105197748D01*
X120285748Y-105183933D01*
X120298314Y-105170402D01*
X120311257Y-105157154D01*
X120324577Y-105144190D01*
X120338274Y-105131506D01*
X120352255Y-105119191D01*
X120366519Y-105107246D01*
X120381066Y-105095670D01*
X120395897Y-105084463D01*
X120411011Y-105073625D01*
X120426408Y-105063156D01*
X120442089Y-105053057D01*
X120458053Y-105043327D01*
X120474300Y-105033966D01*
X120490831Y-105024974D01*
X120507645Y-105016352D01*
X120524742Y-105008099D01*
X120542123Y-105000215D01*
X120559787Y-104992700D01*
X120577735Y-104985554D01*
X120595976Y-104978811D01*
X120614429Y-104972503D01*
X120633093Y-104966629D01*
X120651970Y-104961191D01*
X120671058Y-104956188D01*
X120690358Y-104951620D01*
X120709869Y-104947487D01*
X120729593Y-104943789D01*
X120749528Y-104940526D01*
X120769676Y-104937698D01*
X120790035Y-104935305D01*
X120810605Y-104933347D01*
X120831388Y-104931825D01*
X120852382Y-104930737D01*
X120873588Y-104930084D01*
X120895006Y-104929867D01*
X120918723Y-104930126D01*
X120942153Y-104930903D01*
X120965297Y-104932198D01*
X120988155Y-104934011D01*
X121010726Y-104936343D01*
X121033011Y-104939192D01*
X121055010Y-104942559D01*
X121076723Y-104946445D01*
X121098150Y-104950848D01*
X121119290Y-104955770D01*
X121140144Y-104961210D01*
X121160712Y-104967167D01*
X121180994Y-104973643D01*
X121200989Y-104980637D01*
X121220699Y-104988149D01*
X121240122Y-104996179D01*
X121259254Y-105004665D01*
X121278000Y-105013638D01*
X121296360Y-105023098D01*
X121314333Y-105033044D01*
X121331920Y-105043477D01*
X121349121Y-105054396D01*
X121365935Y-105065802D01*
X121382363Y-105077695D01*
X121398404Y-105090074D01*
X121414059Y-105102940D01*
X121429327Y-105116292D01*
X121444209Y-105130131D01*
X121458705Y-105144456D01*
X121472814Y-105159268D01*
X121486537Y-105174567D01*
X121499874Y-105190352D01*
X121281154Y-105391852D01*
X121266855Y-105376089D01*
X121252260Y-105361086D01*
X121237369Y-105346843D01*
X121222181Y-105333360D01*
X121206697Y-105320637D01*
X121190917Y-105308673D01*
X121174841Y-105297470D01*
X121158468Y-105287026D01*
X121141799Y-105277343D01*
X121124834Y-105268419D01*
X121113360Y-105262892D01*
X121095901Y-105255166D01*
X121078146Y-105248200D01*
X121060094Y-105241994D01*
X121041747Y-105236548D01*
X121023103Y-105231862D01*
X121004163Y-105227936D01*
X120984927Y-105224769D01*
X120965394Y-105222363D01*
X120945565Y-105220716D01*
X120925440Y-105219830D01*
X120911859Y-105219661D01*
X120892705Y-105219957D01*
X120873846Y-105220846D01*
X120855284Y-105222327D01*
X120837018Y-105224401D01*
X120819048Y-105227067D01*
X120801375Y-105230326D01*
X120783997Y-105234177D01*
X120766916Y-105238620D01*
X120750132Y-105243656D01*
X120733643Y-105249285D01*
X120722815Y-105253367D01*
X120706875Y-105259878D01*
X120691341Y-105266912D01*
X120676212Y-105274467D01*
X120661489Y-105282544D01*
X120647172Y-105291143D01*
X120633261Y-105300263D01*
X120619755Y-105309904D01*
X120606655Y-105320068D01*
X120593961Y-105330753D01*
X120581672Y-105341959D01*
X120573705Y-105349720D01*
X120562138Y-105361738D01*
X120551066Y-105374162D01*
X120540491Y-105386992D01*
X120530411Y-105400227D01*
X120520827Y-105413868D01*
X120511739Y-105427915D01*
X120503147Y-105442367D01*
X120495051Y-105457225D01*
X120487451Y-105472489D01*
X120480347Y-105488159D01*
X120475886Y-105498831D01*
X120469731Y-105515141D01*
X120464182Y-105531786D01*
X120459238Y-105548766D01*
X120454900Y-105566081D01*
X120451167Y-105583731D01*
X120448039Y-105601716D01*
X120445517Y-105620036D01*
X120443600Y-105638690D01*
X120442288Y-105657680D01*
X120441582Y-105677004D01*
X120441448Y-105690073D01*
X120441750Y-105709555D01*
X120442658Y-105728708D01*
X120444172Y-105747534D01*
X120446290Y-105766030D01*
X120449015Y-105784199D01*
X120452344Y-105802039D01*
X120456279Y-105819550D01*
X120460819Y-105836733D01*
X120465965Y-105853588D01*
X120471715Y-105870114D01*
X120475886Y-105880949D01*
X120482660Y-105896889D01*
X120489929Y-105912423D01*
X120497695Y-105927552D01*
X120505956Y-105942275D01*
X120514714Y-105956592D01*
X120523967Y-105970503D01*
X120533716Y-105984009D01*
X120543961Y-105997109D01*
X120554702Y-106009803D01*
X120565938Y-106022092D01*
X120573705Y-106030059D01*
X120585723Y-106041616D01*
X120598147Y-106052659D01*
X120610976Y-106063186D01*
X120624212Y-106073198D01*
X120637853Y-106082695D01*
X120651899Y-106091677D01*
X120666352Y-106100143D01*
X120681210Y-106108094D01*
X120696474Y-106115530D01*
X120712143Y-106122451D01*
X120722815Y-106126779D01*
X120739106Y-106132803D01*
X120755694Y-106138234D01*
X120772577Y-106143072D01*
X120789757Y-106147318D01*
X120807233Y-106150972D01*
X120825005Y-106154033D01*
X120843074Y-106156502D01*
X120861438Y-106158378D01*
X120880099Y-106159662D01*
X120899057Y-106160353D01*
X120911859Y-106160484D01*
X120932182Y-106160108D01*
X120952208Y-106158978D01*
X120971938Y-106157094D01*
X120991372Y-106154457D01*
X121010509Y-106151066D01*
X121029351Y-106146922D01*
X121047896Y-106142024D01*
X121066144Y-106136373D01*
X121084097Y-106129969D01*
X121101753Y-106122811D01*
X121113360Y-106117620D01*
X121130522Y-106109118D01*
X121147389Y-106099824D01*
X121163959Y-106089738D01*
X121180233Y-106078860D01*
X121196210Y-106067189D01*
X121211892Y-106054727D01*
X121227277Y-106041472D01*
X121242366Y-106027426D01*
X121257158Y-106012587D01*
X121271655Y-105996956D01*
X121281154Y-105986095D01*
X121499874Y-106187595D01*
X121486537Y-106203386D01*
X121472814Y-106218702D01*
X121458705Y-106233543D01*
X121444209Y-106247908D01*
X121429327Y-106261799D01*
X121414059Y-106275214D01*
X121398404Y-106288154D01*
X121382363Y-106300619D01*
X121365935Y-106312609D01*
X121349121Y-106324123D01*
X121331920Y-106335163D01*
X121314333Y-106345727D01*
X121296360Y-106355817D01*
X121278000Y-106365431D01*
X121259254Y-106374570D01*
X121240122Y-106383234D01*
X121220690Y-106391353D01*
X121200955Y-106398948D01*
X121180917Y-106406019D01*
X121160575Y-106412566D01*
X121139930Y-106418590D01*
X121118981Y-106424089D01*
X121097729Y-106429065D01*
X121076174Y-106433517D01*
X121054315Y-106437446D01*
X121032153Y-106440850D01*
X121009687Y-106443731D01*
X120986918Y-106446088D01*
X120963846Y-106447922D01*
X120940470Y-106449231D01*
X120916791Y-106450017D01*
X120892808Y-106450279D01*
G37*
G36*
X146665125Y-64515000D02*
G01*
X146030949Y-63045146D01*
X146398778Y-63045146D01*
X146953087Y-64346838D01*
X146736566Y-64346838D01*
X147299668Y-63045146D01*
X147637456Y-63045146D01*
X147001448Y-64515000D01*
X146665125Y-64515000D01*
G37*
G36*
X147758722Y-64515000D02*
G01*
X147758722Y-63045146D01*
X148098709Y-63045146D01*
X148098709Y-64515000D01*
X147758722Y-64515000D01*
G37*
G36*
X148447487Y-64515000D02*
G01*
X148447487Y-63045146D01*
X148728855Y-63045146D01*
X149596039Y-64103572D01*
X149459752Y-64103572D01*
X149459752Y-63045146D01*
X149795708Y-63045146D01*
X149795708Y-64515000D01*
X149516172Y-64515000D01*
X148646789Y-63456573D01*
X148783443Y-63456573D01*
X148783443Y-64515000D01*
X148447487Y-64515000D01*
G37*
G36*
X182676000Y-82410488D02*
G01*
X181500117Y-82410488D01*
X181500117Y-82138499D01*
X182676000Y-82138499D01*
X182676000Y-82410488D01*
G37*
G36*
X182676000Y-81943593D02*
G01*
X182499558Y-81943593D01*
X182071059Y-81489888D01*
X182062027Y-81480081D01*
X182053175Y-81470774D01*
X182044503Y-81461967D01*
X182036011Y-81453659D01*
X182024970Y-81443360D01*
X182014249Y-81433949D01*
X182003849Y-81425426D01*
X181993770Y-81417792D01*
X181984011Y-81411046D01*
X181972085Y-81403563D01*
X181960489Y-81396867D01*
X181949222Y-81390958D01*
X181938284Y-81385836D01*
X181925593Y-81380728D01*
X181913376Y-81376755D01*
X181901571Y-81373567D01*
X181890116Y-81371039D01*
X181877195Y-81368924D01*
X181864751Y-81367705D01*
X181854464Y-81367376D01*
X181841509Y-81367796D01*
X181829130Y-81369055D01*
X181817329Y-81371155D01*
X181802491Y-81375260D01*
X181788679Y-81380859D01*
X181775893Y-81387950D01*
X181764133Y-81396535D01*
X181753398Y-81406612D01*
X181746020Y-81415150D01*
X181737159Y-81427794D01*
X181731288Y-81438196D01*
X181726082Y-81449387D01*
X181721541Y-81461367D01*
X181717664Y-81474134D01*
X181714452Y-81487690D01*
X181711904Y-81502034D01*
X181710021Y-81517166D01*
X181708802Y-81533087D01*
X181708249Y-81549796D01*
X181708212Y-81555540D01*
X181708464Y-81569294D01*
X181709221Y-81582856D01*
X181710484Y-81596228D01*
X181712251Y-81609410D01*
X181714523Y-81622400D01*
X181717300Y-81635201D01*
X181720582Y-81647810D01*
X181724368Y-81660229D01*
X181728660Y-81672457D01*
X181733456Y-81684495D01*
X181736935Y-81692414D01*
X181742549Y-81704059D01*
X181748729Y-81715364D01*
X181755477Y-81726330D01*
X181762791Y-81736955D01*
X181770672Y-81747240D01*
X181779119Y-81757185D01*
X181788133Y-81766790D01*
X181797714Y-81776055D01*
X181807862Y-81784980D01*
X181818577Y-81793565D01*
X181826034Y-81799099D01*
X181698247Y-81997229D01*
X181685808Y-81988630D01*
X181673700Y-81979612D01*
X181661922Y-81970174D01*
X181650473Y-81960318D01*
X181639353Y-81950043D01*
X181628564Y-81939348D01*
X181618104Y-81928235D01*
X181607974Y-81916702D01*
X181598174Y-81904751D01*
X181588704Y-81892380D01*
X181579563Y-81879591D01*
X181570752Y-81866382D01*
X181562270Y-81852754D01*
X181554119Y-81838708D01*
X181546297Y-81824242D01*
X181538805Y-81809357D01*
X181531671Y-81794082D01*
X181524997Y-81778519D01*
X181518784Y-81762667D01*
X181513031Y-81746526D01*
X181507738Y-81730097D01*
X181502906Y-81713379D01*
X181498533Y-81696373D01*
X181494621Y-81679078D01*
X181491169Y-81661495D01*
X181488178Y-81643623D01*
X181485646Y-81625463D01*
X181483575Y-81607015D01*
X181481965Y-81588277D01*
X181480814Y-81569252D01*
X181480124Y-81549937D01*
X181479893Y-81530334D01*
X181480061Y-81514086D01*
X181480562Y-81498094D01*
X181481398Y-81482359D01*
X181482568Y-81466880D01*
X181484072Y-81451658D01*
X181485911Y-81436692D01*
X181488084Y-81421982D01*
X181490591Y-81407529D01*
X181493433Y-81393333D01*
X181496609Y-81379392D01*
X181500119Y-81365709D01*
X181503964Y-81352281D01*
X181508142Y-81339111D01*
X181512656Y-81326196D01*
X181517503Y-81313538D01*
X181522685Y-81301137D01*
X181528169Y-81288999D01*
X181533923Y-81277204D01*
X181539947Y-81265753D01*
X181546242Y-81254645D01*
X181552807Y-81243881D01*
X181559642Y-81233460D01*
X181566747Y-81223383D01*
X181574122Y-81213649D01*
X181581768Y-81204259D01*
X181589684Y-81195212D01*
X181597870Y-81186508D01*
X181606326Y-81178148D01*
X181615052Y-81170132D01*
X181624049Y-81162459D01*
X181633315Y-81155129D01*
X181642852Y-81148143D01*
X181652607Y-81141506D01*
X181662599Y-81135298D01*
X181672830Y-81129517D01*
X181683299Y-81124165D01*
X181694006Y-81119241D01*
X181704951Y-81114745D01*
X181716134Y-81110677D01*
X181727556Y-81107037D01*
X181739215Y-81103826D01*
X181751113Y-81101043D01*
X181763249Y-81098688D01*
X181775623Y-81096761D01*
X181788235Y-81095262D01*
X181801085Y-81094192D01*
X181814173Y-81093549D01*
X181827500Y-81093335D01*
X181841774Y-81093560D01*
X181856021Y-81094233D01*
X181870241Y-81095355D01*
X181884433Y-81096926D01*
X181898597Y-81098945D01*
X181912734Y-81101413D01*
X181926844Y-81104331D01*
X181940926Y-81107697D01*
X181955086Y-81111731D01*
X181969429Y-81116654D01*
X181983956Y-81122466D01*
X181994971Y-81127407D01*
X182006089Y-81132849D01*
X182017310Y-81138790D01*
X182028634Y-81145231D01*
X182040061Y-81152171D01*
X182051591Y-81159612D01*
X182059335Y-81164849D01*
X182071119Y-81173221D01*
X182083172Y-81182287D01*
X182095492Y-81192049D01*
X182108080Y-81202507D01*
X182120936Y-81213660D01*
X182134060Y-81225509D01*
X182142958Y-81233795D01*
X182151975Y-81242389D01*
X182161111Y-81251293D01*
X182170366Y-81260506D01*
X182179741Y-81270028D01*
X182189234Y-81279859D01*
X182198847Y-81290000D01*
X182553487Y-81666329D01*
X182454129Y-81718499D01*
X182454129Y-81054940D01*
X182676000Y-81054940D01*
X182676000Y-81943593D01*
G37*
G36*
X182696223Y-80306092D02*
G01*
X182696049Y-80323016D01*
X182695527Y-80339793D01*
X182694657Y-80356420D01*
X182693438Y-80372898D01*
X182691872Y-80389228D01*
X182689958Y-80405408D01*
X182687696Y-80421440D01*
X182685085Y-80437323D01*
X182682127Y-80453057D01*
X182678821Y-80468643D01*
X182675166Y-80484079D01*
X182671163Y-80499367D01*
X182666813Y-80514506D01*
X182662114Y-80529496D01*
X182657068Y-80544337D01*
X182651673Y-80559030D01*
X182645956Y-80573491D01*
X182639945Y-80587711D01*
X182633637Y-80601691D01*
X182627035Y-80615431D01*
X182620137Y-80628931D01*
X182612944Y-80642190D01*
X182605455Y-80655208D01*
X182597671Y-80667986D01*
X182589591Y-80680524D01*
X182581216Y-80692821D01*
X182572546Y-80704878D01*
X182563581Y-80716694D01*
X182554320Y-80728270D01*
X182544763Y-80739606D01*
X182534911Y-80750701D01*
X182524764Y-80761556D01*
X182514358Y-80772106D01*
X182503730Y-80782361D01*
X182492880Y-80792320D01*
X182481808Y-80801984D01*
X182470514Y-80811353D01*
X182458997Y-80820426D01*
X182447259Y-80829204D01*
X182435298Y-80837686D01*
X182423115Y-80845873D01*
X182410711Y-80853765D01*
X182398084Y-80861361D01*
X182385234Y-80868662D01*
X182372163Y-80875668D01*
X182358870Y-80882378D01*
X182345355Y-80888793D01*
X182331617Y-80894912D01*
X182317683Y-80900697D01*
X182303576Y-80906109D01*
X182289299Y-80911148D01*
X182274849Y-80915813D01*
X182260228Y-80920106D01*
X182245434Y-80924024D01*
X182230470Y-80927570D01*
X182215333Y-80930743D01*
X182200025Y-80933542D01*
X182184545Y-80935968D01*
X182168893Y-80938021D01*
X182153069Y-80939700D01*
X182137074Y-80941007D01*
X182120907Y-80941940D01*
X182104569Y-80942500D01*
X182088058Y-80942686D01*
X182071548Y-80942500D01*
X182055209Y-80941940D01*
X182039042Y-80941007D01*
X182023047Y-80939700D01*
X182007223Y-80938021D01*
X181991572Y-80935968D01*
X181976091Y-80933542D01*
X181960783Y-80930743D01*
X181945647Y-80927570D01*
X181930682Y-80924024D01*
X181915889Y-80920106D01*
X181901267Y-80915813D01*
X181886818Y-80911148D01*
X181872540Y-80906109D01*
X181858434Y-80900697D01*
X181844499Y-80894912D01*
X181830727Y-80888789D01*
X181817182Y-80882364D01*
X181803864Y-80875637D01*
X181790772Y-80868607D01*
X181777907Y-80861275D01*
X181765268Y-80853641D01*
X181752857Y-80845705D01*
X181740672Y-80837466D01*
X181728713Y-80828925D01*
X181716981Y-80820082D01*
X181705477Y-80810937D01*
X181694198Y-80801489D01*
X181683147Y-80791740D01*
X181672322Y-80781687D01*
X181661723Y-80771333D01*
X181651352Y-80760676D01*
X181641205Y-80749719D01*
X181631353Y-80738534D01*
X181621797Y-80727123D01*
X181612536Y-80715485D01*
X181603570Y-80703621D01*
X181594900Y-80691530D01*
X181586525Y-80679212D01*
X181578445Y-80666667D01*
X181570661Y-80653896D01*
X181563173Y-80640898D01*
X181555979Y-80627674D01*
X181549081Y-80614222D01*
X181542479Y-80600544D01*
X181536172Y-80586640D01*
X181530160Y-80572508D01*
X181524443Y-80558150D01*
X181519049Y-80543557D01*
X181514002Y-80528795D01*
X181509303Y-80513864D01*
X181504953Y-80498763D01*
X181500950Y-80483492D01*
X181497296Y-80468052D01*
X181493989Y-80452443D01*
X181491031Y-80436664D01*
X181488421Y-80420716D01*
X181486158Y-80404598D01*
X181484244Y-80388311D01*
X181482678Y-80371854D01*
X181481460Y-80355228D01*
X181480590Y-80338432D01*
X181480067Y-80321467D01*
X181479893Y-80304333D01*
X181480101Y-80285360D01*
X181480722Y-80266616D01*
X181481758Y-80248101D01*
X181483209Y-80229815D01*
X181485074Y-80211757D01*
X181487354Y-80193929D01*
X181490047Y-80176330D01*
X181493156Y-80158960D01*
X181496679Y-80141818D01*
X181500616Y-80124906D01*
X181504968Y-80108223D01*
X181509734Y-80091769D01*
X181514914Y-80075543D01*
X181520509Y-80059547D01*
X181526519Y-80043779D01*
X181532943Y-80028241D01*
X181539732Y-80012935D01*
X181546911Y-79997938D01*
X181554478Y-79983250D01*
X181562435Y-79968872D01*
X181570782Y-79954802D01*
X181579517Y-79941042D01*
X181588642Y-79927590D01*
X181598156Y-79914448D01*
X181608059Y-79901615D01*
X181618352Y-79889091D01*
X181629033Y-79876876D01*
X181640105Y-79864971D01*
X181651565Y-79853374D01*
X181663414Y-79842087D01*
X181675653Y-79831108D01*
X181688281Y-79820439D01*
X181849482Y-79995415D01*
X181836871Y-80006854D01*
X181824869Y-80018530D01*
X181813474Y-80030443D01*
X181802688Y-80042593D01*
X181792509Y-80054980D01*
X181782939Y-80067605D01*
X181773976Y-80080466D01*
X181765621Y-80093564D01*
X181757874Y-80106899D01*
X181750735Y-80120471D01*
X181746314Y-80129651D01*
X181740133Y-80143618D01*
X181734560Y-80157822D01*
X181729595Y-80172263D01*
X181725238Y-80186941D01*
X181721489Y-80201856D01*
X181718348Y-80217008D01*
X181715815Y-80232397D01*
X181713890Y-80248023D01*
X181712573Y-80263886D01*
X181711864Y-80279986D01*
X181711729Y-80290851D01*
X181711966Y-80306175D01*
X181712677Y-80321261D01*
X181713862Y-80336111D01*
X181715521Y-80350724D01*
X181717654Y-80365100D01*
X181720260Y-80379239D01*
X181723341Y-80393140D01*
X181726896Y-80406805D01*
X181730925Y-80420233D01*
X181735428Y-80433424D01*
X181738693Y-80442086D01*
X181743903Y-80454838D01*
X181749530Y-80467266D01*
X181755574Y-80479368D01*
X181762035Y-80491147D01*
X181768914Y-80502601D01*
X181776210Y-80513730D01*
X181783923Y-80524534D01*
X181792054Y-80535014D01*
X181800602Y-80545170D01*
X181809567Y-80555001D01*
X181815776Y-80561374D01*
X181825391Y-80570628D01*
X181835330Y-80579485D01*
X181845593Y-80587946D01*
X181856182Y-80596009D01*
X181867094Y-80603676D01*
X181878332Y-80610947D01*
X181889894Y-80617820D01*
X181901780Y-80624297D01*
X181913991Y-80630378D01*
X181926527Y-80636061D01*
X181935064Y-80639630D01*
X181948113Y-80644553D01*
X181961429Y-80648993D01*
X181975013Y-80652948D01*
X181988865Y-80656418D01*
X182002985Y-80659405D01*
X182017373Y-80661907D01*
X182032028Y-80663925D01*
X182046952Y-80665458D01*
X182062144Y-80666508D01*
X182077603Y-80667073D01*
X182088058Y-80667180D01*
X182103644Y-80666938D01*
X182118967Y-80666212D01*
X182134027Y-80665001D01*
X182148824Y-80663306D01*
X182163359Y-80661127D01*
X182177631Y-80658463D01*
X182191640Y-80655315D01*
X182205386Y-80651683D01*
X182218870Y-80647567D01*
X182232091Y-80642966D01*
X182240759Y-80639630D01*
X182253511Y-80634211D01*
X182265938Y-80628395D01*
X182278041Y-80622182D01*
X182289820Y-80615573D01*
X182301273Y-80608567D01*
X182312402Y-80601165D01*
X182323207Y-80593366D01*
X182333687Y-80585170D01*
X182343842Y-80576577D01*
X182353673Y-80567588D01*
X182360047Y-80561374D01*
X182369293Y-80551760D01*
X182378127Y-80541821D01*
X182386549Y-80531557D01*
X182394558Y-80520969D01*
X182402156Y-80510056D01*
X182409341Y-80498819D01*
X182416114Y-80487257D01*
X182422475Y-80475370D01*
X182428424Y-80463159D01*
X182433961Y-80450623D01*
X182437423Y-80442086D01*
X182442242Y-80429053D01*
X182446587Y-80415783D01*
X182450458Y-80402277D01*
X182453855Y-80388533D01*
X182456777Y-80374552D01*
X182459226Y-80360334D01*
X182461201Y-80345879D01*
X182462702Y-80331188D01*
X182463729Y-80316259D01*
X182464282Y-80301093D01*
X182464387Y-80290851D01*
X182464086Y-80274593D01*
X182463182Y-80258572D01*
X182461675Y-80242788D01*
X182459565Y-80227241D01*
X182456853Y-80211931D01*
X182453537Y-80196858D01*
X182449619Y-80182022D01*
X182445098Y-80167423D01*
X182439975Y-80153061D01*
X182434248Y-80138936D01*
X182430096Y-80129651D01*
X182423294Y-80115921D01*
X182415859Y-80102427D01*
X182407790Y-80089171D01*
X182399088Y-80076152D01*
X182389751Y-80063370D01*
X182379781Y-80050825D01*
X182369178Y-80038517D01*
X182357940Y-80026446D01*
X182346069Y-80014612D01*
X182333565Y-80003014D01*
X182324876Y-79995415D01*
X182486076Y-79820439D01*
X182498709Y-79831108D01*
X182510962Y-79842087D01*
X182522834Y-79853374D01*
X182534326Y-79864971D01*
X182545439Y-79876876D01*
X182556171Y-79889091D01*
X182566523Y-79901615D01*
X182576495Y-79914448D01*
X182586087Y-79927590D01*
X182595299Y-79941042D01*
X182604130Y-79954802D01*
X182612582Y-79968872D01*
X182620653Y-79983250D01*
X182628345Y-79997938D01*
X182635656Y-80012935D01*
X182642587Y-80028241D01*
X182649082Y-80043786D01*
X182655158Y-80059574D01*
X182660815Y-80075605D01*
X182666053Y-80091878D01*
X182670872Y-80108395D01*
X182675271Y-80125153D01*
X182679252Y-80142155D01*
X182682814Y-80159399D01*
X182685957Y-80176886D01*
X182688680Y-80194616D01*
X182690985Y-80212589D01*
X182692871Y-80230804D01*
X182694337Y-80249262D01*
X182695385Y-80267962D01*
X182696013Y-80286906D01*
X182696223Y-80306092D01*
G37*
G36*
X120924662Y-89715249D02*
G01*
X120941592Y-89715557D01*
X120958253Y-89716070D01*
X120974645Y-89716789D01*
X120990768Y-89717713D01*
X121006622Y-89718843D01*
X121022206Y-89720177D01*
X121037522Y-89721718D01*
X121052569Y-89723463D01*
X121067347Y-89725414D01*
X121081855Y-89727571D01*
X121110065Y-89732499D01*
X121137199Y-89738250D01*
X121163257Y-89744821D01*
X121188238Y-89752214D01*
X121212143Y-89760429D01*
X121234972Y-89769465D01*
X121256725Y-89779322D01*
X121277402Y-89790001D01*
X121297003Y-89801502D01*
X121315527Y-89813824D01*
X121324385Y-89820293D01*
X121341288Y-89833653D01*
X121357101Y-89847541D01*
X121371822Y-89861955D01*
X121385454Y-89876896D01*
X121397995Y-89892363D01*
X121409445Y-89908357D01*
X121419805Y-89924878D01*
X121429074Y-89941926D01*
X121437253Y-89959500D01*
X121444341Y-89977600D01*
X121450339Y-89996228D01*
X121455246Y-90015382D01*
X121459063Y-90035062D01*
X121461789Y-90055269D01*
X121463425Y-90076003D01*
X121463970Y-90097264D01*
X121463471Y-90118635D01*
X121461974Y-90139472D01*
X121459478Y-90159774D01*
X121455985Y-90179541D01*
X121451493Y-90198774D01*
X121446003Y-90217473D01*
X121439514Y-90235637D01*
X121432028Y-90253266D01*
X121423543Y-90270361D01*
X121414060Y-90286922D01*
X121407184Y-90297665D01*
X121396231Y-90313264D01*
X121384532Y-90328187D01*
X121372086Y-90342433D01*
X121358892Y-90356003D01*
X121344952Y-90368897D01*
X121330264Y-90381115D01*
X121314830Y-90392656D01*
X121298648Y-90403522D01*
X121281720Y-90413711D01*
X121270859Y-90419555D01*
X121283227Y-90423758D01*
X121296968Y-90428862D01*
X121310464Y-90434319D01*
X121330172Y-90443148D01*
X121349043Y-90452738D01*
X121367078Y-90463087D01*
X121384275Y-90474196D01*
X121400634Y-90486064D01*
X121416157Y-90498693D01*
X121430842Y-90512082D01*
X121444690Y-90526231D01*
X121457701Y-90541139D01*
X121469875Y-90556808D01*
X121477526Y-90567676D01*
X121488263Y-90584579D01*
X121497945Y-90602177D01*
X121506570Y-90620471D01*
X121514139Y-90639460D01*
X121520652Y-90659145D01*
X121526109Y-90679526D01*
X121530510Y-90700602D01*
X121533854Y-90722373D01*
X121535497Y-90737274D01*
X121536671Y-90752484D01*
X121537375Y-90768003D01*
X121537609Y-90783831D01*
X121537027Y-90807138D01*
X121535280Y-90829798D01*
X121532367Y-90851811D01*
X121528290Y-90873178D01*
X121523048Y-90893897D01*
X121516641Y-90913970D01*
X121509069Y-90933396D01*
X121500332Y-90952175D01*
X121490430Y-90970307D01*
X121479363Y-90987792D01*
X121467132Y-91004631D01*
X121453735Y-91020823D01*
X121439173Y-91036367D01*
X121423447Y-91051265D01*
X121406555Y-91065516D01*
X121388499Y-91079120D01*
X121369311Y-91091942D01*
X121349023Y-91103936D01*
X121327637Y-91115103D01*
X121305151Y-91125442D01*
X121281567Y-91134955D01*
X121256883Y-91143640D01*
X121231100Y-91151499D01*
X121204218Y-91158530D01*
X121176237Y-91164734D01*
X121161834Y-91167525D01*
X121147157Y-91170110D01*
X121132204Y-91172488D01*
X121116977Y-91174660D01*
X121101476Y-91176624D01*
X121085699Y-91178382D01*
X121069648Y-91179933D01*
X121053322Y-91181277D01*
X121036721Y-91182415D01*
X121019845Y-91183345D01*
X121002695Y-91184069D01*
X120985269Y-91184586D01*
X120967570Y-91184896D01*
X120949595Y-91185000D01*
X120189389Y-91185000D01*
X120189389Y-90565478D01*
X120527543Y-90565478D01*
X120527543Y-90928911D01*
X120924316Y-90928911D01*
X120940597Y-90928743D01*
X120956378Y-90928241D01*
X120971658Y-90927404D01*
X120986437Y-90926232D01*
X121007667Y-90923846D01*
X121027769Y-90920706D01*
X121046745Y-90916813D01*
X121064593Y-90912167D01*
X121081315Y-90906767D01*
X121096909Y-90900614D01*
X121111376Y-90893707D01*
X121124717Y-90886046D01*
X121136960Y-90877490D01*
X121151412Y-90864678D01*
X121163722Y-90850264D01*
X121173892Y-90834247D01*
X121181920Y-90816627D01*
X121186537Y-90802361D01*
X121189949Y-90787192D01*
X121192157Y-90771122D01*
X121193160Y-90754151D01*
X121193227Y-90748293D01*
X121192625Y-90731398D01*
X121190818Y-90715333D01*
X121187808Y-90700100D01*
X121183593Y-90685697D01*
X121176099Y-90667785D01*
X121166465Y-90651350D01*
X121154690Y-90636392D01*
X121140774Y-90622911D01*
X121128932Y-90613769D01*
X121124717Y-90610907D01*
X121111376Y-90602788D01*
X121096909Y-90595468D01*
X121081315Y-90588946D01*
X121064593Y-90583223D01*
X121046745Y-90578299D01*
X121027769Y-90574173D01*
X121007667Y-90570846D01*
X120986437Y-90568317D01*
X120971658Y-90567075D01*
X120956378Y-90566187D01*
X120940597Y-90565655D01*
X120924316Y-90565478D01*
X120527543Y-90565478D01*
X120189389Y-90565478D01*
X120189389Y-89971235D01*
X120527543Y-89971235D01*
X120527543Y-90317815D01*
X120865331Y-90317815D01*
X120880628Y-90317648D01*
X120895470Y-90317146D01*
X120916880Y-90315764D01*
X120937266Y-90313629D01*
X120956628Y-90310741D01*
X120974965Y-90307099D01*
X120992279Y-90302704D01*
X121008569Y-90297555D01*
X121023835Y-90291653D01*
X121038077Y-90284997D01*
X121051296Y-90277588D01*
X121055474Y-90274951D01*
X121071016Y-90263439D01*
X121084485Y-90250519D01*
X121095883Y-90236190D01*
X121105208Y-90220454D01*
X121112461Y-90203309D01*
X121117641Y-90184756D01*
X121120167Y-90169918D01*
X121121527Y-90154287D01*
X121121786Y-90143426D01*
X121121203Y-90127663D01*
X121119455Y-90112660D01*
X121115310Y-90093838D01*
X121109093Y-90076367D01*
X121100804Y-90060247D01*
X121090443Y-90045478D01*
X121078010Y-90032060D01*
X121063504Y-90019993D01*
X121055474Y-90014466D01*
X121042597Y-90006740D01*
X121028697Y-89999774D01*
X121013772Y-89993568D01*
X120997823Y-89988122D01*
X120980851Y-89983436D01*
X120962854Y-89979509D01*
X120943833Y-89976343D01*
X120923789Y-89973937D01*
X120902721Y-89972290D01*
X120880628Y-89971404D01*
X120865331Y-89971235D01*
X120527543Y-89971235D01*
X120189389Y-89971235D01*
X120189389Y-89715146D01*
X120907463Y-89715146D01*
X120924662Y-89715249D01*
G37*
G36*
X182676000Y-98285488D02*
G01*
X181500117Y-98285488D01*
X181500117Y-98013499D01*
X182676000Y-98013499D01*
X182676000Y-98285488D01*
G37*
G36*
X182676000Y-97818593D02*
G01*
X182499558Y-97818593D01*
X182071059Y-97364888D01*
X182062027Y-97355081D01*
X182053175Y-97345774D01*
X182044503Y-97336967D01*
X182036011Y-97328659D01*
X182024970Y-97318360D01*
X182014249Y-97308949D01*
X182003849Y-97300426D01*
X181993770Y-97292792D01*
X181984011Y-97286046D01*
X181972085Y-97278563D01*
X181960489Y-97271867D01*
X181949222Y-97265958D01*
X181938284Y-97260836D01*
X181925593Y-97255728D01*
X181913376Y-97251755D01*
X181901571Y-97248567D01*
X181890116Y-97246039D01*
X181877195Y-97243924D01*
X181864751Y-97242705D01*
X181854464Y-97242376D01*
X181841509Y-97242796D01*
X181829130Y-97244055D01*
X181817329Y-97246155D01*
X181802491Y-97250260D01*
X181788679Y-97255859D01*
X181775893Y-97262950D01*
X181764133Y-97271535D01*
X181753398Y-97281612D01*
X181746020Y-97290150D01*
X181737159Y-97302794D01*
X181731288Y-97313196D01*
X181726082Y-97324387D01*
X181721541Y-97336367D01*
X181717664Y-97349134D01*
X181714452Y-97362690D01*
X181711904Y-97377034D01*
X181710021Y-97392166D01*
X181708802Y-97408087D01*
X181708249Y-97424796D01*
X181708212Y-97430540D01*
X181708464Y-97444294D01*
X181709221Y-97457856D01*
X181710484Y-97471228D01*
X181712251Y-97484410D01*
X181714523Y-97497400D01*
X181717300Y-97510201D01*
X181720582Y-97522810D01*
X181724368Y-97535229D01*
X181728660Y-97547457D01*
X181733456Y-97559495D01*
X181736935Y-97567414D01*
X181742549Y-97579059D01*
X181748729Y-97590364D01*
X181755477Y-97601330D01*
X181762791Y-97611955D01*
X181770672Y-97622240D01*
X181779119Y-97632185D01*
X181788133Y-97641790D01*
X181797714Y-97651055D01*
X181807862Y-97659980D01*
X181818577Y-97668565D01*
X181826034Y-97674099D01*
X181698247Y-97872229D01*
X181685808Y-97863630D01*
X181673700Y-97854612D01*
X181661922Y-97845174D01*
X181650473Y-97835318D01*
X181639353Y-97825043D01*
X181628564Y-97814348D01*
X181618104Y-97803235D01*
X181607974Y-97791702D01*
X181598174Y-97779751D01*
X181588704Y-97767380D01*
X181579563Y-97754591D01*
X181570752Y-97741382D01*
X181562270Y-97727754D01*
X181554119Y-97713708D01*
X181546297Y-97699242D01*
X181538805Y-97684357D01*
X181531671Y-97669082D01*
X181524997Y-97653519D01*
X181518784Y-97637667D01*
X181513031Y-97621526D01*
X181507738Y-97605097D01*
X181502906Y-97588379D01*
X181498533Y-97571373D01*
X181494621Y-97554078D01*
X181491169Y-97536495D01*
X181488178Y-97518623D01*
X181485646Y-97500463D01*
X181483575Y-97482015D01*
X181481965Y-97463277D01*
X181480814Y-97444252D01*
X181480124Y-97424937D01*
X181479893Y-97405334D01*
X181480061Y-97389086D01*
X181480562Y-97373094D01*
X181481398Y-97357359D01*
X181482568Y-97341880D01*
X181484072Y-97326658D01*
X181485911Y-97311692D01*
X181488084Y-97296982D01*
X181490591Y-97282529D01*
X181493433Y-97268333D01*
X181496609Y-97254392D01*
X181500119Y-97240709D01*
X181503964Y-97227281D01*
X181508142Y-97214111D01*
X181512656Y-97201196D01*
X181517503Y-97188538D01*
X181522685Y-97176137D01*
X181528169Y-97163999D01*
X181533923Y-97152204D01*
X181539947Y-97140753D01*
X181546242Y-97129645D01*
X181552807Y-97118881D01*
X181559642Y-97108460D01*
X181566747Y-97098383D01*
X181574122Y-97088649D01*
X181581768Y-97079259D01*
X181589684Y-97070212D01*
X181597870Y-97061508D01*
X181606326Y-97053148D01*
X181615052Y-97045132D01*
X181624049Y-97037459D01*
X181633315Y-97030129D01*
X181642852Y-97023143D01*
X181652607Y-97016506D01*
X181662599Y-97010298D01*
X181672830Y-97004517D01*
X181683299Y-96999165D01*
X181694006Y-96994241D01*
X181704951Y-96989745D01*
X181716134Y-96985677D01*
X181727556Y-96982037D01*
X181739215Y-96978826D01*
X181751113Y-96976043D01*
X181763249Y-96973688D01*
X181775623Y-96971761D01*
X181788235Y-96970262D01*
X181801085Y-96969192D01*
X181814173Y-96968549D01*
X181827500Y-96968335D01*
X181841774Y-96968560D01*
X181856021Y-96969233D01*
X181870241Y-96970355D01*
X181884433Y-96971926D01*
X181898597Y-96973945D01*
X181912734Y-96976413D01*
X181926844Y-96979331D01*
X181940926Y-96982697D01*
X181955086Y-96986731D01*
X181969429Y-96991654D01*
X181983956Y-96997466D01*
X181994971Y-97002407D01*
X182006089Y-97007849D01*
X182017310Y-97013790D01*
X182028634Y-97020231D01*
X182040061Y-97027171D01*
X182051591Y-97034612D01*
X182059335Y-97039849D01*
X182071119Y-97048221D01*
X182083172Y-97057287D01*
X182095492Y-97067049D01*
X182108080Y-97077507D01*
X182120936Y-97088660D01*
X182134060Y-97100509D01*
X182142958Y-97108795D01*
X182151975Y-97117389D01*
X182161111Y-97126293D01*
X182170366Y-97135506D01*
X182179741Y-97145028D01*
X182189234Y-97154859D01*
X182198847Y-97165000D01*
X182553487Y-97541329D01*
X182454129Y-97593499D01*
X182454129Y-96929940D01*
X182676000Y-96929940D01*
X182676000Y-97818593D01*
G37*
G36*
X182696223Y-96181092D02*
G01*
X182696049Y-96198016D01*
X182695527Y-96214793D01*
X182694657Y-96231420D01*
X182693438Y-96247898D01*
X182691872Y-96264228D01*
X182689958Y-96280408D01*
X182687696Y-96296440D01*
X182685085Y-96312323D01*
X182682127Y-96328057D01*
X182678821Y-96343643D01*
X182675166Y-96359079D01*
X182671163Y-96374367D01*
X182666813Y-96389506D01*
X182662114Y-96404496D01*
X182657068Y-96419337D01*
X182651673Y-96434030D01*
X182645956Y-96448491D01*
X182639945Y-96462711D01*
X182633637Y-96476691D01*
X182627035Y-96490431D01*
X182620137Y-96503931D01*
X182612944Y-96517190D01*
X182605455Y-96530208D01*
X182597671Y-96542986D01*
X182589591Y-96555524D01*
X182581216Y-96567821D01*
X182572546Y-96579878D01*
X182563581Y-96591694D01*
X182554320Y-96603270D01*
X182544763Y-96614606D01*
X182534911Y-96625701D01*
X182524764Y-96636556D01*
X182514358Y-96647106D01*
X182503730Y-96657361D01*
X182492880Y-96667320D01*
X182481808Y-96676984D01*
X182470514Y-96686353D01*
X182458997Y-96695426D01*
X182447259Y-96704204D01*
X182435298Y-96712686D01*
X182423115Y-96720873D01*
X182410711Y-96728765D01*
X182398084Y-96736361D01*
X182385234Y-96743662D01*
X182372163Y-96750668D01*
X182358870Y-96757378D01*
X182345355Y-96763793D01*
X182331617Y-96769912D01*
X182317683Y-96775697D01*
X182303576Y-96781109D01*
X182289299Y-96786148D01*
X182274849Y-96790813D01*
X182260228Y-96795106D01*
X182245434Y-96799024D01*
X182230470Y-96802570D01*
X182215333Y-96805743D01*
X182200025Y-96808542D01*
X182184545Y-96810968D01*
X182168893Y-96813021D01*
X182153069Y-96814700D01*
X182137074Y-96816007D01*
X182120907Y-96816940D01*
X182104569Y-96817500D01*
X182088058Y-96817686D01*
X182071548Y-96817500D01*
X182055209Y-96816940D01*
X182039042Y-96816007D01*
X182023047Y-96814700D01*
X182007223Y-96813021D01*
X181991572Y-96810968D01*
X181976091Y-96808542D01*
X181960783Y-96805743D01*
X181945647Y-96802570D01*
X181930682Y-96799024D01*
X181915889Y-96795106D01*
X181901267Y-96790813D01*
X181886818Y-96786148D01*
X181872540Y-96781109D01*
X181858434Y-96775697D01*
X181844499Y-96769912D01*
X181830727Y-96763789D01*
X181817182Y-96757364D01*
X181803864Y-96750637D01*
X181790772Y-96743607D01*
X181777907Y-96736275D01*
X181765268Y-96728641D01*
X181752857Y-96720705D01*
X181740672Y-96712466D01*
X181728713Y-96703925D01*
X181716981Y-96695082D01*
X181705477Y-96685937D01*
X181694198Y-96676489D01*
X181683147Y-96666740D01*
X181672322Y-96656687D01*
X181661723Y-96646333D01*
X181651352Y-96635676D01*
X181641205Y-96624719D01*
X181631353Y-96613534D01*
X181621797Y-96602123D01*
X181612536Y-96590485D01*
X181603570Y-96578621D01*
X181594900Y-96566530D01*
X181586525Y-96554212D01*
X181578445Y-96541667D01*
X181570661Y-96528896D01*
X181563173Y-96515898D01*
X181555979Y-96502674D01*
X181549081Y-96489222D01*
X181542479Y-96475544D01*
X181536172Y-96461640D01*
X181530160Y-96447508D01*
X181524443Y-96433150D01*
X181519049Y-96418557D01*
X181514002Y-96403795D01*
X181509303Y-96388864D01*
X181504953Y-96373763D01*
X181500950Y-96358492D01*
X181497296Y-96343052D01*
X181493989Y-96327443D01*
X181491031Y-96311664D01*
X181488421Y-96295716D01*
X181486158Y-96279598D01*
X181484244Y-96263311D01*
X181482678Y-96246854D01*
X181481460Y-96230228D01*
X181480590Y-96213432D01*
X181480067Y-96196467D01*
X181479893Y-96179333D01*
X181480101Y-96160360D01*
X181480722Y-96141616D01*
X181481758Y-96123101D01*
X181483209Y-96104815D01*
X181485074Y-96086757D01*
X181487354Y-96068929D01*
X181490047Y-96051330D01*
X181493156Y-96033960D01*
X181496679Y-96016818D01*
X181500616Y-95999906D01*
X181504968Y-95983223D01*
X181509734Y-95966769D01*
X181514914Y-95950543D01*
X181520509Y-95934547D01*
X181526519Y-95918779D01*
X181532943Y-95903241D01*
X181539732Y-95887935D01*
X181546911Y-95872938D01*
X181554478Y-95858250D01*
X181562435Y-95843872D01*
X181570782Y-95829802D01*
X181579517Y-95816042D01*
X181588642Y-95802590D01*
X181598156Y-95789448D01*
X181608059Y-95776615D01*
X181618352Y-95764091D01*
X181629033Y-95751876D01*
X181640105Y-95739971D01*
X181651565Y-95728374D01*
X181663414Y-95717087D01*
X181675653Y-95706108D01*
X181688281Y-95695439D01*
X181849482Y-95870415D01*
X181836871Y-95881854D01*
X181824869Y-95893530D01*
X181813474Y-95905443D01*
X181802688Y-95917593D01*
X181792509Y-95929980D01*
X181782939Y-95942605D01*
X181773976Y-95955466D01*
X181765621Y-95968564D01*
X181757874Y-95981899D01*
X181750735Y-95995471D01*
X181746314Y-96004651D01*
X181740133Y-96018618D01*
X181734560Y-96032822D01*
X181729595Y-96047263D01*
X181725238Y-96061941D01*
X181721489Y-96076856D01*
X181718348Y-96092008D01*
X181715815Y-96107397D01*
X181713890Y-96123023D01*
X181712573Y-96138886D01*
X181711864Y-96154986D01*
X181711729Y-96165851D01*
X181711966Y-96181175D01*
X181712677Y-96196261D01*
X181713862Y-96211111D01*
X181715521Y-96225724D01*
X181717654Y-96240100D01*
X181720260Y-96254239D01*
X181723341Y-96268140D01*
X181726896Y-96281805D01*
X181730925Y-96295233D01*
X181735428Y-96308424D01*
X181738693Y-96317086D01*
X181743903Y-96329838D01*
X181749530Y-96342266D01*
X181755574Y-96354368D01*
X181762035Y-96366147D01*
X181768914Y-96377601D01*
X181776210Y-96388730D01*
X181783923Y-96399534D01*
X181792054Y-96410014D01*
X181800602Y-96420170D01*
X181809567Y-96430001D01*
X181815776Y-96436374D01*
X181825391Y-96445628D01*
X181835330Y-96454485D01*
X181845593Y-96462946D01*
X181856182Y-96471009D01*
X181867094Y-96478676D01*
X181878332Y-96485947D01*
X181889894Y-96492820D01*
X181901780Y-96499297D01*
X181913991Y-96505378D01*
X181926527Y-96511061D01*
X181935064Y-96514630D01*
X181948113Y-96519553D01*
X181961429Y-96523993D01*
X181975013Y-96527948D01*
X181988865Y-96531418D01*
X182002985Y-96534405D01*
X182017373Y-96536907D01*
X182032028Y-96538925D01*
X182046952Y-96540458D01*
X182062144Y-96541508D01*
X182077603Y-96542073D01*
X182088058Y-96542180D01*
X182103644Y-96541938D01*
X182118967Y-96541212D01*
X182134027Y-96540001D01*
X182148824Y-96538306D01*
X182163359Y-96536127D01*
X182177631Y-96533463D01*
X182191640Y-96530315D01*
X182205386Y-96526683D01*
X182218870Y-96522567D01*
X182232091Y-96517966D01*
X182240759Y-96514630D01*
X182253511Y-96509211D01*
X182265938Y-96503395D01*
X182278041Y-96497182D01*
X182289820Y-96490573D01*
X182301273Y-96483567D01*
X182312402Y-96476165D01*
X182323207Y-96468366D01*
X182333687Y-96460170D01*
X182343842Y-96451577D01*
X182353673Y-96442588D01*
X182360047Y-96436374D01*
X182369293Y-96426760D01*
X182378127Y-96416821D01*
X182386549Y-96406557D01*
X182394558Y-96395969D01*
X182402156Y-96385056D01*
X182409341Y-96373819D01*
X182416114Y-96362257D01*
X182422475Y-96350370D01*
X182428424Y-96338159D01*
X182433961Y-96325623D01*
X182437423Y-96317086D01*
X182442242Y-96304053D01*
X182446587Y-96290783D01*
X182450458Y-96277277D01*
X182453855Y-96263533D01*
X182456777Y-96249552D01*
X182459226Y-96235334D01*
X182461201Y-96220879D01*
X182462702Y-96206188D01*
X182463729Y-96191259D01*
X182464282Y-96176093D01*
X182464387Y-96165851D01*
X182464086Y-96149593D01*
X182463182Y-96133572D01*
X182461675Y-96117788D01*
X182459565Y-96102241D01*
X182456853Y-96086931D01*
X182453537Y-96071858D01*
X182449619Y-96057022D01*
X182445098Y-96042423D01*
X182439975Y-96028061D01*
X182434248Y-96013936D01*
X182430096Y-96004651D01*
X182423294Y-95990921D01*
X182415859Y-95977427D01*
X182407790Y-95964171D01*
X182399088Y-95951152D01*
X182389751Y-95938370D01*
X182379781Y-95925825D01*
X182369178Y-95913517D01*
X182357940Y-95901446D01*
X182346069Y-95889612D01*
X182333565Y-95878014D01*
X182324876Y-95870415D01*
X182486076Y-95695439D01*
X182498709Y-95706108D01*
X182510962Y-95717087D01*
X182522834Y-95728374D01*
X182534326Y-95739971D01*
X182545439Y-95751876D01*
X182556171Y-95764091D01*
X182566523Y-95776615D01*
X182576495Y-95789448D01*
X182586087Y-95802590D01*
X182595299Y-95816042D01*
X182604130Y-95829802D01*
X182612582Y-95843872D01*
X182620653Y-95858250D01*
X182628345Y-95872938D01*
X182635656Y-95887935D01*
X182642587Y-95903241D01*
X182649082Y-95918786D01*
X182655158Y-95934574D01*
X182660815Y-95950605D01*
X182666053Y-95966878D01*
X182670872Y-95983395D01*
X182675271Y-96000153D01*
X182679252Y-96017155D01*
X182682814Y-96034399D01*
X182685957Y-96051886D01*
X182688680Y-96069616D01*
X182690985Y-96087589D01*
X182692871Y-96105804D01*
X182694337Y-96124262D01*
X182695385Y-96142962D01*
X182696013Y-96161906D01*
X182696223Y-96181092D01*
G37*
G36*
X163969511Y-113461000D02*
G01*
X163969511Y-112285117D01*
X164241500Y-112285117D01*
X164241500Y-113461000D01*
X163969511Y-113461000D01*
G37*
G36*
X164436406Y-113461000D02*
G01*
X164436406Y-113284558D01*
X164890111Y-112856059D01*
X164899918Y-112847027D01*
X164909225Y-112838175D01*
X164918032Y-112829503D01*
X164926340Y-112821011D01*
X164936639Y-112809970D01*
X164946050Y-112799249D01*
X164954573Y-112788849D01*
X164962207Y-112778770D01*
X164968953Y-112769011D01*
X164976436Y-112757085D01*
X164983132Y-112745489D01*
X164989041Y-112734222D01*
X164994163Y-112723284D01*
X164999271Y-112710593D01*
X165003244Y-112698376D01*
X165006432Y-112686571D01*
X165008960Y-112675116D01*
X165011075Y-112662195D01*
X165012294Y-112649751D01*
X165012623Y-112639464D01*
X165012203Y-112626509D01*
X165010944Y-112614130D01*
X165008844Y-112602329D01*
X165004739Y-112587491D01*
X164999140Y-112573679D01*
X164992049Y-112560893D01*
X164983464Y-112549133D01*
X164973387Y-112538398D01*
X164964849Y-112531020D01*
X164952205Y-112522159D01*
X164941803Y-112516288D01*
X164930612Y-112511082D01*
X164918632Y-112506541D01*
X164905865Y-112502664D01*
X164892309Y-112499452D01*
X164877965Y-112496904D01*
X164862833Y-112495021D01*
X164846912Y-112493802D01*
X164830203Y-112493249D01*
X164824459Y-112493212D01*
X164810705Y-112493464D01*
X164797143Y-112494221D01*
X164783771Y-112495484D01*
X164770589Y-112497251D01*
X164757599Y-112499523D01*
X164744798Y-112502300D01*
X164732189Y-112505582D01*
X164719770Y-112509368D01*
X164707542Y-112513660D01*
X164695504Y-112518456D01*
X164687585Y-112521935D01*
X164675940Y-112527549D01*
X164664635Y-112533729D01*
X164653669Y-112540477D01*
X164643044Y-112547791D01*
X164632759Y-112555672D01*
X164622814Y-112564119D01*
X164613209Y-112573133D01*
X164603944Y-112582714D01*
X164595019Y-112592862D01*
X164586434Y-112603577D01*
X164580900Y-112611034D01*
X164382770Y-112483247D01*
X164391369Y-112470808D01*
X164400387Y-112458700D01*
X164409825Y-112446922D01*
X164419681Y-112435473D01*
X164429956Y-112424353D01*
X164440651Y-112413564D01*
X164451764Y-112403104D01*
X164463297Y-112392974D01*
X164475248Y-112383174D01*
X164487619Y-112373704D01*
X164500408Y-112364563D01*
X164513617Y-112355752D01*
X164527245Y-112347270D01*
X164541291Y-112339119D01*
X164555757Y-112331297D01*
X164570642Y-112323805D01*
X164585917Y-112316671D01*
X164601480Y-112309997D01*
X164617332Y-112303784D01*
X164633473Y-112298031D01*
X164649902Y-112292738D01*
X164666620Y-112287906D01*
X164683626Y-112283533D01*
X164700921Y-112279621D01*
X164718504Y-112276169D01*
X164736376Y-112273178D01*
X164754536Y-112270646D01*
X164772984Y-112268575D01*
X164791722Y-112266965D01*
X164810747Y-112265814D01*
X164830062Y-112265124D01*
X164849665Y-112264893D01*
X164865913Y-112265061D01*
X164881905Y-112265562D01*
X164897640Y-112266398D01*
X164913119Y-112267568D01*
X164928341Y-112269072D01*
X164943307Y-112270911D01*
X164958017Y-112273084D01*
X164972470Y-112275591D01*
X164986666Y-112278433D01*
X165000607Y-112281609D01*
X165014290Y-112285119D01*
X165027718Y-112288964D01*
X165040888Y-112293142D01*
X165053803Y-112297656D01*
X165066461Y-112302503D01*
X165078862Y-112307685D01*
X165091000Y-112313169D01*
X165102795Y-112318923D01*
X165114246Y-112324947D01*
X165125354Y-112331242D01*
X165136118Y-112337807D01*
X165146539Y-112344642D01*
X165156616Y-112351747D01*
X165166350Y-112359122D01*
X165175740Y-112366768D01*
X165184787Y-112374684D01*
X165193491Y-112382870D01*
X165201851Y-112391326D01*
X165209867Y-112400052D01*
X165217540Y-112409049D01*
X165224870Y-112418315D01*
X165231856Y-112427852D01*
X165238493Y-112437607D01*
X165244701Y-112447599D01*
X165250482Y-112457830D01*
X165255834Y-112468299D01*
X165260758Y-112479006D01*
X165265254Y-112489951D01*
X165269322Y-112501134D01*
X165272962Y-112512556D01*
X165276173Y-112524215D01*
X165278956Y-112536113D01*
X165281311Y-112548249D01*
X165283238Y-112560623D01*
X165284737Y-112573235D01*
X165285807Y-112586085D01*
X165286450Y-112599173D01*
X165286664Y-112612500D01*
X165286439Y-112626774D01*
X165285766Y-112641021D01*
X165284644Y-112655241D01*
X165283073Y-112669433D01*
X165281054Y-112683597D01*
X165278586Y-112697734D01*
X165275668Y-112711844D01*
X165272302Y-112725926D01*
X165268268Y-112740086D01*
X165263345Y-112754429D01*
X165257533Y-112768956D01*
X165252592Y-112779971D01*
X165247150Y-112791089D01*
X165241209Y-112802310D01*
X165234768Y-112813634D01*
X165227828Y-112825061D01*
X165220387Y-112836591D01*
X165215150Y-112844335D01*
X165206778Y-112856119D01*
X165197712Y-112868172D01*
X165187950Y-112880492D01*
X165177492Y-112893080D01*
X165166339Y-112905936D01*
X165154490Y-112919060D01*
X165146204Y-112927958D01*
X165137610Y-112936975D01*
X165128706Y-112946111D01*
X165119493Y-112955366D01*
X165109971Y-112964741D01*
X165100140Y-112974234D01*
X165090000Y-112983847D01*
X164713670Y-113338487D01*
X164661500Y-113239129D01*
X165325059Y-113239129D01*
X165325059Y-113461000D01*
X164436406Y-113461000D01*
G37*
G36*
X166073907Y-113481223D02*
G01*
X166056983Y-113481049D01*
X166040206Y-113480527D01*
X166023579Y-113479657D01*
X166007101Y-113478438D01*
X165990771Y-113476872D01*
X165974591Y-113474958D01*
X165958559Y-113472696D01*
X165942676Y-113470085D01*
X165926942Y-113467127D01*
X165911356Y-113463821D01*
X165895920Y-113460166D01*
X165880632Y-113456163D01*
X165865493Y-113451813D01*
X165850503Y-113447114D01*
X165835662Y-113442068D01*
X165820969Y-113436673D01*
X165806508Y-113430956D01*
X165792288Y-113424945D01*
X165778308Y-113418637D01*
X165764568Y-113412035D01*
X165751068Y-113405137D01*
X165737809Y-113397944D01*
X165724791Y-113390455D01*
X165712013Y-113382671D01*
X165699475Y-113374591D01*
X165687178Y-113366216D01*
X165675121Y-113357546D01*
X165663305Y-113348581D01*
X165651729Y-113339320D01*
X165640393Y-113329763D01*
X165629298Y-113319911D01*
X165618443Y-113309764D01*
X165607893Y-113299358D01*
X165597638Y-113288730D01*
X165587679Y-113277880D01*
X165578015Y-113266808D01*
X165568646Y-113255514D01*
X165559573Y-113243997D01*
X165550795Y-113232259D01*
X165542313Y-113220298D01*
X165534126Y-113208115D01*
X165526234Y-113195711D01*
X165518638Y-113183084D01*
X165511337Y-113170234D01*
X165504331Y-113157163D01*
X165497621Y-113143870D01*
X165491206Y-113130355D01*
X165485087Y-113116617D01*
X165479302Y-113102683D01*
X165473890Y-113088576D01*
X165468851Y-113074299D01*
X165464186Y-113059849D01*
X165459893Y-113045228D01*
X165455975Y-113030434D01*
X165452429Y-113015470D01*
X165449256Y-113000333D01*
X165446457Y-112985025D01*
X165444031Y-112969545D01*
X165441978Y-112953893D01*
X165440299Y-112938069D01*
X165438992Y-112922074D01*
X165438059Y-112905907D01*
X165437499Y-112889569D01*
X165437313Y-112873058D01*
X165437499Y-112856548D01*
X165438059Y-112840209D01*
X165438992Y-112824042D01*
X165440299Y-112808047D01*
X165441978Y-112792223D01*
X165444031Y-112776572D01*
X165446457Y-112761091D01*
X165449256Y-112745783D01*
X165452429Y-112730647D01*
X165455975Y-112715682D01*
X165459893Y-112700889D01*
X165464186Y-112686267D01*
X165468851Y-112671818D01*
X165473890Y-112657540D01*
X165479302Y-112643434D01*
X165485087Y-112629499D01*
X165491210Y-112615727D01*
X165497635Y-112602182D01*
X165504362Y-112588864D01*
X165511392Y-112575772D01*
X165518724Y-112562907D01*
X165526358Y-112550268D01*
X165534294Y-112537857D01*
X165542533Y-112525672D01*
X165551074Y-112513713D01*
X165559917Y-112501981D01*
X165569062Y-112490477D01*
X165578510Y-112479198D01*
X165588259Y-112468147D01*
X165598312Y-112457322D01*
X165608666Y-112446723D01*
X165619323Y-112436352D01*
X165630280Y-112426205D01*
X165641465Y-112416353D01*
X165652876Y-112406797D01*
X165664514Y-112397536D01*
X165676378Y-112388570D01*
X165688469Y-112379900D01*
X165700787Y-112371525D01*
X165713332Y-112363445D01*
X165726103Y-112355661D01*
X165739101Y-112348173D01*
X165752325Y-112340979D01*
X165765777Y-112334081D01*
X165779455Y-112327479D01*
X165793359Y-112321172D01*
X165807491Y-112315160D01*
X165821849Y-112309443D01*
X165836442Y-112304049D01*
X165851204Y-112299002D01*
X165866135Y-112294303D01*
X165881236Y-112289953D01*
X165896507Y-112285950D01*
X165911947Y-112282296D01*
X165927556Y-112278989D01*
X165943335Y-112276031D01*
X165959283Y-112273421D01*
X165975401Y-112271158D01*
X165991688Y-112269244D01*
X166008145Y-112267678D01*
X166024771Y-112266460D01*
X166041567Y-112265590D01*
X166058532Y-112265067D01*
X166075666Y-112264893D01*
X166094639Y-112265101D01*
X166113383Y-112265722D01*
X166131898Y-112266758D01*
X166150184Y-112268209D01*
X166168242Y-112270074D01*
X166186070Y-112272354D01*
X166203669Y-112275047D01*
X166221039Y-112278156D01*
X166238181Y-112281679D01*
X166255093Y-112285616D01*
X166271776Y-112289968D01*
X166288230Y-112294734D01*
X166304456Y-112299914D01*
X166320452Y-112305509D01*
X166336220Y-112311519D01*
X166351758Y-112317943D01*
X166367064Y-112324732D01*
X166382061Y-112331911D01*
X166396749Y-112339478D01*
X166411127Y-112347435D01*
X166425197Y-112355782D01*
X166438957Y-112364517D01*
X166452409Y-112373642D01*
X166465551Y-112383156D01*
X166478384Y-112393059D01*
X166490908Y-112403352D01*
X166503123Y-112414033D01*
X166515028Y-112425105D01*
X166526625Y-112436565D01*
X166537912Y-112448414D01*
X166548891Y-112460653D01*
X166559560Y-112473281D01*
X166384584Y-112634482D01*
X166373145Y-112621871D01*
X166361469Y-112609869D01*
X166349556Y-112598474D01*
X166337406Y-112587688D01*
X166325019Y-112577509D01*
X166312394Y-112567939D01*
X166299533Y-112558976D01*
X166286435Y-112550621D01*
X166273100Y-112542874D01*
X166259528Y-112535735D01*
X166250348Y-112531314D01*
X166236381Y-112525133D01*
X166222177Y-112519560D01*
X166207736Y-112514595D01*
X166193058Y-112510238D01*
X166178143Y-112506489D01*
X166162991Y-112503348D01*
X166147602Y-112500815D01*
X166131976Y-112498890D01*
X166116113Y-112497573D01*
X166100013Y-112496864D01*
X166089148Y-112496729D01*
X166073824Y-112496966D01*
X166058738Y-112497677D01*
X166043888Y-112498862D01*
X166029275Y-112500521D01*
X166014899Y-112502654D01*
X166000760Y-112505260D01*
X165986859Y-112508341D01*
X165973194Y-112511896D01*
X165959766Y-112515925D01*
X165946575Y-112520428D01*
X165937913Y-112523693D01*
X165925161Y-112528903D01*
X165912733Y-112534530D01*
X165900631Y-112540574D01*
X165888852Y-112547035D01*
X165877398Y-112553914D01*
X165866269Y-112561210D01*
X165855465Y-112568923D01*
X165844985Y-112577054D01*
X165834829Y-112585602D01*
X165824998Y-112594567D01*
X165818625Y-112600776D01*
X165809371Y-112610391D01*
X165800514Y-112620330D01*
X165792053Y-112630593D01*
X165783990Y-112641182D01*
X165776323Y-112652094D01*
X165769052Y-112663332D01*
X165762179Y-112674894D01*
X165755702Y-112686780D01*
X165749621Y-112698991D01*
X165743938Y-112711527D01*
X165740369Y-112720064D01*
X165735446Y-112733113D01*
X165731006Y-112746429D01*
X165727051Y-112760013D01*
X165723581Y-112773865D01*
X165720594Y-112787985D01*
X165718092Y-112802373D01*
X165716074Y-112817028D01*
X165714541Y-112831952D01*
X165713491Y-112847144D01*
X165712926Y-112862603D01*
X165712819Y-112873058D01*
X165713061Y-112888644D01*
X165713787Y-112903967D01*
X165714998Y-112919027D01*
X165716693Y-112933824D01*
X165718872Y-112948359D01*
X165721536Y-112962631D01*
X165724684Y-112976640D01*
X165728316Y-112990386D01*
X165732432Y-113003870D01*
X165737033Y-113017091D01*
X165740369Y-113025759D01*
X165745788Y-113038511D01*
X165751604Y-113050938D01*
X165757817Y-113063041D01*
X165764426Y-113074820D01*
X165771432Y-113086273D01*
X165778834Y-113097402D01*
X165786633Y-113108207D01*
X165794829Y-113118687D01*
X165803422Y-113128842D01*
X165812411Y-113138673D01*
X165818625Y-113145047D01*
X165828239Y-113154293D01*
X165838178Y-113163127D01*
X165848442Y-113171549D01*
X165859030Y-113179558D01*
X165869943Y-113187156D01*
X165881180Y-113194341D01*
X165892742Y-113201114D01*
X165904629Y-113207475D01*
X165916840Y-113213424D01*
X165929376Y-113218961D01*
X165937913Y-113222423D01*
X165950946Y-113227242D01*
X165964216Y-113231587D01*
X165977722Y-113235458D01*
X165991466Y-113238855D01*
X166005447Y-113241777D01*
X166019665Y-113244226D01*
X166034120Y-113246201D01*
X166048811Y-113247702D01*
X166063740Y-113248729D01*
X166078906Y-113249282D01*
X166089148Y-113249387D01*
X166105406Y-113249086D01*
X166121427Y-113248182D01*
X166137211Y-113246675D01*
X166152758Y-113244565D01*
X166168068Y-113241853D01*
X166183141Y-113238537D01*
X166197977Y-113234619D01*
X166212576Y-113230098D01*
X166226938Y-113224975D01*
X166241063Y-113219248D01*
X166250348Y-113215096D01*
X166264078Y-113208294D01*
X166277572Y-113200859D01*
X166290828Y-113192790D01*
X166303847Y-113184088D01*
X166316629Y-113174751D01*
X166329174Y-113164781D01*
X166341482Y-113154178D01*
X166353553Y-113142940D01*
X166365387Y-113131069D01*
X166376985Y-113118565D01*
X166384584Y-113109876D01*
X166559560Y-113271076D01*
X166548891Y-113283709D01*
X166537912Y-113295962D01*
X166526625Y-113307834D01*
X166515028Y-113319326D01*
X166503123Y-113330439D01*
X166490908Y-113341171D01*
X166478384Y-113351523D01*
X166465551Y-113361495D01*
X166452409Y-113371087D01*
X166438957Y-113380299D01*
X166425197Y-113389130D01*
X166411127Y-113397582D01*
X166396749Y-113405653D01*
X166382061Y-113413345D01*
X166367064Y-113420656D01*
X166351758Y-113427587D01*
X166336213Y-113434082D01*
X166320425Y-113440158D01*
X166304394Y-113445815D01*
X166288121Y-113451053D01*
X166271604Y-113455872D01*
X166254846Y-113460271D01*
X166237844Y-113464252D01*
X166220600Y-113467814D01*
X166203113Y-113470957D01*
X166185383Y-113473680D01*
X166167410Y-113475985D01*
X166149195Y-113477871D01*
X166130737Y-113479337D01*
X166112037Y-113480385D01*
X166093093Y-113481013D01*
X166073907Y-113481223D01*
G37*
G36*
X120872168Y-117655235D02*
G01*
X120886954Y-117655502D01*
X120901629Y-117655948D01*
X120930646Y-117657373D01*
X120959219Y-117659511D01*
X120987349Y-117662362D01*
X121015035Y-117665926D01*
X121042278Y-117670202D01*
X121069077Y-117675191D01*
X121095432Y-117680892D01*
X121121344Y-117687306D01*
X121146812Y-117694433D01*
X121171837Y-117702273D01*
X121196417Y-117710825D01*
X121220554Y-117720090D01*
X121244248Y-117730068D01*
X121267498Y-117740758D01*
X121278956Y-117746371D01*
X121301496Y-117758057D01*
X121323412Y-117770310D01*
X121344704Y-117783130D01*
X121365372Y-117796517D01*
X121385417Y-117810470D01*
X121404837Y-117824990D01*
X121423633Y-117840077D01*
X121441805Y-117855730D01*
X121459353Y-117871951D01*
X121476278Y-117888738D01*
X121492578Y-117906091D01*
X121508254Y-117924012D01*
X121523307Y-117942499D01*
X121537735Y-117961553D01*
X121551540Y-117981173D01*
X121564720Y-118001360D01*
X121577187Y-118022070D01*
X121588849Y-118043257D01*
X121599707Y-118064923D01*
X121609760Y-118087067D01*
X121619010Y-118109688D01*
X121627455Y-118132788D01*
X121635095Y-118156365D01*
X121641932Y-118180421D01*
X121647964Y-118204954D01*
X121653192Y-118229966D01*
X121657615Y-118255455D01*
X121661234Y-118281423D01*
X121664049Y-118307868D01*
X121666060Y-118334792D01*
X121667267Y-118362193D01*
X121667669Y-118390073D01*
X121667267Y-118417646D01*
X121666060Y-118444770D01*
X121664049Y-118471444D01*
X121661234Y-118497669D01*
X121657615Y-118523445D01*
X121653192Y-118548771D01*
X121647964Y-118573648D01*
X121641932Y-118598076D01*
X121635095Y-118622054D01*
X121627455Y-118645583D01*
X121619010Y-118668663D01*
X121609760Y-118691293D01*
X121599707Y-118713474D01*
X121588849Y-118735205D01*
X121577187Y-118756487D01*
X121564720Y-118777320D01*
X121551540Y-118797642D01*
X121537735Y-118817391D01*
X121523307Y-118836568D01*
X121508254Y-118855172D01*
X121492578Y-118873204D01*
X121476278Y-118890664D01*
X121459353Y-118907551D01*
X121441805Y-118923866D01*
X121423633Y-118939608D01*
X121404837Y-118954778D01*
X121385417Y-118969375D01*
X121365372Y-118983400D01*
X121344704Y-118996852D01*
X121323412Y-119009732D01*
X121301496Y-119022040D01*
X121278956Y-119033775D01*
X121255928Y-119044822D01*
X121232457Y-119055156D01*
X121208541Y-119064777D01*
X121184182Y-119073686D01*
X121159380Y-119081882D01*
X121134134Y-119089365D01*
X121108444Y-119096135D01*
X121082310Y-119102193D01*
X121055733Y-119107539D01*
X121028712Y-119112171D01*
X121001248Y-119116091D01*
X120973340Y-119119298D01*
X120944988Y-119121792D01*
X120916193Y-119123574D01*
X120886954Y-119124643D01*
X120872168Y-119124910D01*
X120857271Y-119125000D01*
X120189389Y-119125000D01*
X120189389Y-117934316D01*
X120529375Y-117934316D01*
X120529375Y-118845830D01*
X120840418Y-118845830D01*
X120858631Y-118845612D01*
X120876539Y-118844960D01*
X120894145Y-118843872D01*
X120911447Y-118842349D01*
X120928446Y-118840392D01*
X120945141Y-118837999D01*
X120961533Y-118835171D01*
X120977622Y-118831908D01*
X120993407Y-118828210D01*
X121008889Y-118824077D01*
X121024067Y-118819509D01*
X121038942Y-118814506D01*
X121053513Y-118809068D01*
X121067782Y-118803194D01*
X121081746Y-118796886D01*
X121095408Y-118790143D01*
X121108729Y-118782997D01*
X121121671Y-118775482D01*
X121134237Y-118767598D01*
X121146424Y-118759345D01*
X121163997Y-118746273D01*
X121180719Y-118732370D01*
X121196592Y-118717636D01*
X121211614Y-118702072D01*
X121225786Y-118685677D01*
X121239108Y-118668451D01*
X121251581Y-118650394D01*
X121259423Y-118637895D01*
X121263203Y-118631507D01*
X121270478Y-118618499D01*
X121277285Y-118605214D01*
X121283622Y-118591652D01*
X121289489Y-118577812D01*
X121294887Y-118563694D01*
X121299816Y-118549298D01*
X121304275Y-118534625D01*
X121308265Y-118519674D01*
X121311786Y-118504446D01*
X121314837Y-118488940D01*
X121317419Y-118473156D01*
X121319531Y-118457095D01*
X121321174Y-118440756D01*
X121322348Y-118424139D01*
X121323052Y-118407245D01*
X121323286Y-118390073D01*
X121323052Y-118372639D01*
X121322348Y-118355509D01*
X121321174Y-118338682D01*
X121319531Y-118322158D01*
X121317419Y-118305938D01*
X121314837Y-118290021D01*
X121311786Y-118274408D01*
X121308265Y-118259098D01*
X121304275Y-118244091D01*
X121299816Y-118229388D01*
X121294887Y-118214988D01*
X121289489Y-118200891D01*
X121283622Y-118187098D01*
X121277285Y-118173609D01*
X121270478Y-118160422D01*
X121263203Y-118147540D01*
X121255549Y-118134989D01*
X121243360Y-118116839D01*
X121230321Y-118099500D01*
X121216432Y-118082973D01*
X121201693Y-118067257D01*
X121186104Y-118052353D01*
X121169665Y-118038260D01*
X121152376Y-118024979D01*
X121134237Y-118012509D01*
X121121671Y-118004646D01*
X121108729Y-117997144D01*
X121095408Y-117990003D01*
X121081746Y-117983260D01*
X121067782Y-117976951D01*
X121053513Y-117971078D01*
X121038942Y-117965640D01*
X121024067Y-117960637D01*
X121008889Y-117956068D01*
X120993407Y-117951935D01*
X120977622Y-117948237D01*
X120961533Y-117944975D01*
X120945141Y-117942147D01*
X120928446Y-117939754D01*
X120911447Y-117937796D01*
X120894145Y-117936273D01*
X120876539Y-117935186D01*
X120858631Y-117934533D01*
X120840418Y-117934316D01*
X120529375Y-117934316D01*
X120189389Y-117934316D01*
X120189389Y-117655146D01*
X120857271Y-117655146D01*
X120872168Y-117655235D01*
G37*
G36*
X119995949Y-78485000D02*
G01*
X120651374Y-77015146D01*
X120987330Y-77015146D01*
X121644588Y-78485000D01*
X121287749Y-78485000D01*
X120749926Y-77187337D01*
X120884382Y-77187337D01*
X120344727Y-78485000D01*
X119995949Y-78485000D01*
G37*
G36*
X120323845Y-78169926D02*
G01*
X120413970Y-77911639D01*
X121170146Y-77911639D01*
X121262470Y-78169926D01*
X120323845Y-78169926D01*
G37*
G36*
X189754964Y-136048925D02*
G01*
X189754767Y-136072361D01*
X189754176Y-136095679D01*
X189753192Y-136118878D01*
X189751813Y-136141957D01*
X189750041Y-136164917D01*
X189747875Y-136187759D01*
X189745315Y-136210481D01*
X189742361Y-136233084D01*
X189739013Y-136255568D01*
X189735272Y-136277933D01*
X189731136Y-136300179D01*
X189726607Y-136322306D01*
X189721684Y-136344314D01*
X189716367Y-136366202D01*
X189710657Y-136387972D01*
X189704552Y-136409623D01*
X189698132Y-136430904D01*
X189691473Y-136451663D01*
X189684576Y-136471900D01*
X189677441Y-136491615D01*
X189670068Y-136510808D01*
X189662457Y-136529479D01*
X189654608Y-136547628D01*
X189646520Y-136565254D01*
X189638194Y-136582359D01*
X189629631Y-136598941D01*
X189620829Y-136615002D01*
X189611789Y-136630540D01*
X189602511Y-136645557D01*
X189592994Y-136660051D01*
X189583240Y-136674023D01*
X189573247Y-136687473D01*
X189300086Y-136563984D01*
X189313342Y-136544757D01*
X189321927Y-136531580D01*
X189330310Y-136518116D01*
X189338492Y-136504365D01*
X189346473Y-136490327D01*
X189354252Y-136476003D01*
X189361830Y-136461391D01*
X189369206Y-136446492D01*
X189376381Y-136431306D01*
X189383354Y-136415833D01*
X189390125Y-136400074D01*
X189396696Y-136384027D01*
X189403064Y-136367693D01*
X189409231Y-136351072D01*
X189415197Y-136334165D01*
X189418104Y-136325603D01*
X189423641Y-136308347D01*
X189428820Y-136291067D01*
X189433643Y-136273763D01*
X189438108Y-136256434D01*
X189442216Y-136239080D01*
X189445966Y-136221702D01*
X189449360Y-136204300D01*
X189452396Y-136186873D01*
X189455075Y-136169422D01*
X189457397Y-136151946D01*
X189459361Y-136134446D01*
X189460969Y-136116922D01*
X189462219Y-136099373D01*
X189463112Y-136081800D01*
X189463648Y-136064202D01*
X189463826Y-136046580D01*
X189463641Y-136026794D01*
X189463085Y-136007736D01*
X189462157Y-135989407D01*
X189460859Y-135971805D01*
X189459190Y-135954932D01*
X189457149Y-135938787D01*
X189453852Y-135918392D01*
X189449895Y-135899293D01*
X189445279Y-135881487D01*
X189442724Y-135873070D01*
X189437094Y-135857103D01*
X189430951Y-135842222D01*
X189422552Y-135825150D01*
X189413351Y-135809776D01*
X189403348Y-135796100D01*
X189392544Y-135784123D01*
X189383324Y-135775764D01*
X189368578Y-135765006D01*
X189353062Y-135756475D01*
X189336777Y-135750169D01*
X189319723Y-135746088D01*
X189301900Y-135744233D01*
X189295787Y-135744110D01*
X189276765Y-135745321D01*
X189259021Y-135748956D01*
X189242556Y-135755015D01*
X189227369Y-135763497D01*
X189213460Y-135774402D01*
X189200830Y-135787730D01*
X189196136Y-135793740D01*
X189187069Y-135806538D01*
X189178429Y-135820314D01*
X189170216Y-135835066D01*
X189162431Y-135850795D01*
X189155073Y-135867501D01*
X189148143Y-135885184D01*
X189141640Y-135903845D01*
X189135564Y-135923482D01*
X189131188Y-135938727D01*
X189126854Y-135954275D01*
X189122560Y-135970124D01*
X189118308Y-135986277D01*
X189114097Y-136002731D01*
X189109928Y-136019487D01*
X189105799Y-136036546D01*
X189101712Y-136053907D01*
X189097666Y-136071571D01*
X189093661Y-136089536D01*
X189091014Y-136101681D01*
X189086898Y-136119930D01*
X189082611Y-136138185D01*
X189078151Y-136156447D01*
X189073520Y-136174716D01*
X189068717Y-136192992D01*
X189063743Y-136211275D01*
X189058597Y-136229564D01*
X189053279Y-136247861D01*
X189047789Y-136266164D01*
X189042127Y-136284474D01*
X189038258Y-136296685D01*
X189032168Y-136314782D01*
X189025769Y-136332584D01*
X189019061Y-136350090D01*
X189012044Y-136367301D01*
X189004718Y-136384217D01*
X188997083Y-136400838D01*
X188989139Y-136417163D01*
X188980885Y-136433192D01*
X188972322Y-136448926D01*
X188963451Y-136464365D01*
X188957364Y-136474494D01*
X188947857Y-136489323D01*
X188937801Y-136503624D01*
X188927194Y-136517396D01*
X188916039Y-136530639D01*
X188904333Y-136543353D01*
X188892078Y-136555538D01*
X188879274Y-136567194D01*
X188865920Y-136578321D01*
X188852016Y-136588919D01*
X188837563Y-136598989D01*
X188827623Y-136605408D01*
X188812064Y-136614417D01*
X188795721Y-136622540D01*
X188778596Y-136629777D01*
X188760688Y-136636127D01*
X188741996Y-136641592D01*
X188722522Y-136646170D01*
X188702264Y-136649863D01*
X188681224Y-136652669D01*
X188659400Y-136654589D01*
X188636793Y-136655623D01*
X188621286Y-136655819D01*
X188604576Y-136655536D01*
X188588051Y-136654684D01*
X188571713Y-136653264D01*
X188555561Y-136651277D01*
X188539595Y-136648721D01*
X188523815Y-136645598D01*
X188508222Y-136641907D01*
X188492815Y-136637648D01*
X188477594Y-136632821D01*
X188462559Y-136627426D01*
X188447711Y-136621464D01*
X188433048Y-136614933D01*
X188418572Y-136607835D01*
X188404283Y-136600169D01*
X188390179Y-136591935D01*
X188376262Y-136583133D01*
X188362564Y-136573758D01*
X188349218Y-136563807D01*
X188336223Y-136553279D01*
X188323579Y-136542173D01*
X188311286Y-136530491D01*
X188299344Y-136518231D01*
X188287753Y-136505395D01*
X188276513Y-136491981D01*
X188265624Y-136477991D01*
X188255087Y-136463423D01*
X188244900Y-136448279D01*
X188235065Y-136432557D01*
X188225581Y-136416258D01*
X188216448Y-136399383D01*
X188207666Y-136381930D01*
X188199235Y-136363900D01*
X188191237Y-136345240D01*
X188183756Y-136325994D01*
X188176790Y-136306161D01*
X188170341Y-136285743D01*
X188164407Y-136264738D01*
X188158990Y-136243147D01*
X188154088Y-136220969D01*
X188149702Y-136198206D01*
X188145832Y-136174856D01*
X188142479Y-136150921D01*
X188139641Y-136126399D01*
X188137319Y-136101290D01*
X188135513Y-136075596D01*
X188134223Y-136049316D01*
X188133449Y-136022449D01*
X188133191Y-135994996D01*
X188133327Y-135976548D01*
X188133735Y-135958134D01*
X188134414Y-135939753D01*
X188135365Y-135921406D01*
X188136588Y-135903092D01*
X188138082Y-135884812D01*
X188139849Y-135866565D01*
X188141886Y-135848353D01*
X188144196Y-135830173D01*
X188146777Y-135812028D01*
X188149630Y-135793915D01*
X188152755Y-135775837D01*
X188156152Y-135757792D01*
X188159820Y-135739781D01*
X188163760Y-135721803D01*
X188167972Y-135703859D01*
X188172453Y-135686062D01*
X188177204Y-135668529D01*
X188182223Y-135651258D01*
X188187511Y-135634249D01*
X188193068Y-135617503D01*
X188198893Y-135601020D01*
X188204987Y-135584799D01*
X188211349Y-135568841D01*
X188217980Y-135553145D01*
X188224880Y-135537712D01*
X188232049Y-135522542D01*
X188239486Y-135507634D01*
X188247192Y-135492988D01*
X188255166Y-135478606D01*
X188263409Y-135464485D01*
X188271921Y-135450628D01*
X188547427Y-135562784D01*
X188539738Y-135576510D01*
X188528680Y-135597100D01*
X188518191Y-135617690D01*
X188508273Y-135638279D01*
X188498925Y-135658869D01*
X188490147Y-135679459D01*
X188481940Y-135700048D01*
X188474302Y-135720638D01*
X188467235Y-135741228D01*
X188460737Y-135761817D01*
X188454810Y-135782407D01*
X188449363Y-135802955D01*
X188444451Y-135823422D01*
X188440076Y-135843805D01*
X188436236Y-135864106D01*
X188432932Y-135884325D01*
X188430163Y-135904461D01*
X188427931Y-135924515D01*
X188426234Y-135944487D01*
X188425073Y-135964376D01*
X188424448Y-135984182D01*
X188424329Y-135997341D01*
X188424545Y-136016718D01*
X188425194Y-136035429D01*
X188426276Y-136053473D01*
X188427791Y-136070852D01*
X188429738Y-136087564D01*
X188432119Y-136103609D01*
X188434932Y-136118989D01*
X188439356Y-136138458D01*
X188444549Y-136156742D01*
X188448949Y-136169678D01*
X188455336Y-136185890D01*
X188462187Y-136200917D01*
X188469502Y-136214760D01*
X188479298Y-136230397D01*
X188489820Y-136244183D01*
X188501066Y-136256119D01*
X188513038Y-136266203D01*
X188528132Y-136276031D01*
X188544106Y-136283825D01*
X188560958Y-136289586D01*
X188578690Y-136293314D01*
X188597302Y-136295009D01*
X188603701Y-136295122D01*
X188621945Y-136293919D01*
X188639063Y-136290313D01*
X188655055Y-136284302D01*
X188669921Y-136275887D01*
X188683662Y-136265068D01*
X188696276Y-136251845D01*
X188701007Y-136245882D01*
X188712143Y-136229732D01*
X188720557Y-136215712D01*
X188728532Y-136200716D01*
X188736067Y-136184742D01*
X188743162Y-136167792D01*
X188749818Y-136149864D01*
X188756034Y-136130960D01*
X188760407Y-136116140D01*
X188764587Y-136100829D01*
X188768774Y-136085228D01*
X188772968Y-136069340D01*
X188777168Y-136053162D01*
X188781376Y-136036697D01*
X188785590Y-136019942D01*
X188789811Y-136002900D01*
X188794039Y-135985568D01*
X188798274Y-135967948D01*
X188802516Y-135950040D01*
X188805348Y-135937941D01*
X188809586Y-135919696D01*
X188813948Y-135901451D01*
X188818434Y-135883206D01*
X188823043Y-135864961D01*
X188827776Y-135846716D01*
X188832633Y-135828471D01*
X188837613Y-135810226D01*
X188842717Y-135791981D01*
X188847944Y-135773736D01*
X188853296Y-135755491D01*
X188856932Y-135743328D01*
X188862533Y-135725161D01*
X188868491Y-135707296D01*
X188874806Y-135689734D01*
X188881478Y-135672473D01*
X188888508Y-135655515D01*
X188895895Y-135638859D01*
X188903639Y-135622506D01*
X188911740Y-135606454D01*
X188920198Y-135590705D01*
X188929014Y-135575259D01*
X188935090Y-135565129D01*
X188944600Y-135550229D01*
X188954667Y-135535865D01*
X188965291Y-135522037D01*
X188976470Y-135508745D01*
X188988207Y-135495989D01*
X189000499Y-135483768D01*
X189013348Y-135472084D01*
X189026754Y-135460935D01*
X189040716Y-135450321D01*
X189055234Y-135440244D01*
X189065222Y-135433824D01*
X189080691Y-135424815D01*
X189096908Y-135416692D01*
X189113874Y-135409455D01*
X189131589Y-135403104D01*
X189150053Y-135397639D01*
X189169265Y-135393061D01*
X189189226Y-135389369D01*
X189209936Y-135386563D01*
X189231395Y-135384643D01*
X189253602Y-135383609D01*
X189268823Y-135383412D01*
X189285247Y-135383702D01*
X189301497Y-135384572D01*
X189317572Y-135386022D01*
X189333474Y-135388053D01*
X189349202Y-135390663D01*
X189364755Y-135393853D01*
X189380135Y-135397624D01*
X189395341Y-135401974D01*
X189410372Y-135406905D01*
X189425230Y-135412416D01*
X189439914Y-135418507D01*
X189454423Y-135425177D01*
X189468759Y-135432428D01*
X189482920Y-135440259D01*
X189496908Y-135448671D01*
X189510721Y-135457662D01*
X189524281Y-135467180D01*
X189537508Y-135477268D01*
X189550403Y-135487928D01*
X189562965Y-135499159D01*
X189575194Y-135510960D01*
X189587090Y-135523333D01*
X189598653Y-135536276D01*
X189609884Y-135549790D01*
X189620781Y-135563875D01*
X189631346Y-135578531D01*
X189641579Y-135593758D01*
X189651478Y-135609556D01*
X189661045Y-135625925D01*
X189670279Y-135642865D01*
X189679180Y-135660376D01*
X189687748Y-135678457D01*
X189695888Y-135697078D01*
X189703502Y-135716303D01*
X189710591Y-135736132D01*
X189717155Y-135756566D01*
X189723194Y-135777605D01*
X189728708Y-135799248D01*
X189733696Y-135821495D01*
X189738160Y-135844347D01*
X189742098Y-135867803D01*
X189745512Y-135891864D01*
X189748400Y-135916530D01*
X189750763Y-135941800D01*
X189752601Y-135967674D01*
X189753914Y-135994153D01*
X189754701Y-136021237D01*
X189754964Y-136048925D01*
G37*
G36*
X188504831Y-133616657D02*
G01*
X188505056Y-133598858D01*
X188505729Y-133581315D01*
X188506851Y-133564029D01*
X188508422Y-133546999D01*
X188510441Y-133530225D01*
X188512910Y-133513709D01*
X188515827Y-133497448D01*
X188519193Y-133481444D01*
X188523008Y-133465696D01*
X188527271Y-133450205D01*
X188531983Y-133434971D01*
X188537145Y-133419993D01*
X188542755Y-133405271D01*
X188548813Y-133390806D01*
X188558743Y-133369588D01*
X188562277Y-133362644D01*
X188573507Y-133342250D01*
X188585802Y-133322688D01*
X188599162Y-133303956D01*
X188613587Y-133286056D01*
X188629076Y-133268987D01*
X188645630Y-133252749D01*
X188663248Y-133237342D01*
X188675586Y-133227533D01*
X188688396Y-133218093D01*
X188701680Y-133209022D01*
X188715437Y-133200321D01*
X188729667Y-133191989D01*
X188736960Y-133187962D01*
X188751921Y-133180201D01*
X188767398Y-133172941D01*
X188783392Y-133166181D01*
X188799901Y-133159923D01*
X188816926Y-133154165D01*
X188834468Y-133148907D01*
X188852525Y-133144151D01*
X188871098Y-133139895D01*
X188890187Y-133136140D01*
X188909792Y-133132885D01*
X188929913Y-133130131D01*
X188950550Y-133127878D01*
X188971703Y-133126126D01*
X188993372Y-133124874D01*
X189015557Y-133124123D01*
X189038258Y-133123872D01*
X189728000Y-133123872D01*
X189728000Y-133473237D01*
X189091796Y-133473237D01*
X189073920Y-133473474D01*
X189056637Y-133474184D01*
X189039946Y-133475367D01*
X189023847Y-133477023D01*
X189008341Y-133479153D01*
X188986192Y-133483234D01*
X188965376Y-133488381D01*
X188945892Y-133494592D01*
X188927741Y-133501867D01*
X188910922Y-133510208D01*
X188895437Y-133519613D01*
X188881284Y-133530083D01*
X188876862Y-133533810D01*
X188864431Y-133545596D01*
X188853222Y-133558242D01*
X188843237Y-133571746D01*
X188834474Y-133586108D01*
X188826933Y-133601329D01*
X188820616Y-133617409D01*
X188815521Y-133634348D01*
X188811649Y-133652145D01*
X188809000Y-133670801D01*
X188807573Y-133690316D01*
X188807302Y-133703803D01*
X188807845Y-133722609D01*
X188809475Y-133740928D01*
X188812193Y-133758757D01*
X188815997Y-133776099D01*
X188820888Y-133792951D01*
X188826866Y-133809316D01*
X188833930Y-133825191D01*
X188842082Y-133840579D01*
X188851320Y-133855300D01*
X188861646Y-133869180D01*
X188873058Y-133882216D01*
X188885557Y-133894410D01*
X188899143Y-133905761D01*
X188913816Y-133916270D01*
X188929576Y-133925935D01*
X188946422Y-133934759D01*
X188964313Y-133942636D01*
X188983401Y-133949462D01*
X188998502Y-133953893D01*
X189014276Y-133957733D01*
X189030724Y-133960982D01*
X189047844Y-133963640D01*
X189065638Y-133965708D01*
X189084105Y-133967185D01*
X189103245Y-133968071D01*
X189123059Y-133968367D01*
X189728000Y-133968367D01*
X189728000Y-134317732D01*
X189091796Y-134317732D01*
X189073920Y-134317964D01*
X189056637Y-134318660D01*
X189039946Y-134319820D01*
X189023847Y-134321444D01*
X189008341Y-134323532D01*
X188986192Y-134327535D01*
X188965376Y-134332581D01*
X188945892Y-134338672D01*
X188927741Y-134345807D01*
X188910922Y-134353986D01*
X188895437Y-134363210D01*
X188881284Y-134373477D01*
X188876862Y-134377131D01*
X188864431Y-134388712D01*
X188853222Y-134401179D01*
X188843237Y-134414531D01*
X188834474Y-134428770D01*
X188826933Y-134443896D01*
X188820616Y-134459907D01*
X188815521Y-134476804D01*
X188811649Y-134494588D01*
X188809000Y-134513257D01*
X188807573Y-134532813D01*
X188807302Y-134546343D01*
X188807845Y-134565150D01*
X188809475Y-134583468D01*
X188812193Y-134601297D01*
X188815997Y-134618639D01*
X188820888Y-134635491D01*
X188826866Y-134651856D01*
X188833930Y-134667732D01*
X188842082Y-134683119D01*
X188851320Y-134697749D01*
X188861646Y-134711549D01*
X188873058Y-134724518D01*
X188885557Y-134736657D01*
X188899143Y-134747965D01*
X188913816Y-134758443D01*
X188929576Y-134768091D01*
X188946422Y-134776908D01*
X188964313Y-134784785D01*
X188983401Y-134791612D01*
X188998502Y-134796042D01*
X189014276Y-134799882D01*
X189030724Y-134803131D01*
X189047844Y-134805790D01*
X189065638Y-134807857D01*
X189084105Y-134809334D01*
X189103245Y-134810221D01*
X189123059Y-134810516D01*
X189728000Y-134810516D01*
X189728000Y-135159881D01*
X188522808Y-135159881D01*
X188522808Y-134826147D01*
X188852242Y-134826147D01*
X188755718Y-134889064D01*
X188740562Y-134880995D01*
X188725871Y-134872517D01*
X188711644Y-134863630D01*
X188697881Y-134854333D01*
X188684582Y-134844627D01*
X188671747Y-134834513D01*
X188659376Y-134823989D01*
X188647469Y-134813056D01*
X188636026Y-134801714D01*
X188625048Y-134789963D01*
X188614533Y-134777803D01*
X188604482Y-134765233D01*
X188594896Y-134752255D01*
X188585773Y-134738867D01*
X188577115Y-134725071D01*
X188568921Y-134710865D01*
X188561160Y-134696328D01*
X188553900Y-134681537D01*
X188547140Y-134666494D01*
X188540882Y-134651196D01*
X188535124Y-134635646D01*
X188529866Y-134619842D01*
X188525110Y-134603784D01*
X188520854Y-134587473D01*
X188517098Y-134570909D01*
X188513844Y-134554091D01*
X188511090Y-134537020D01*
X188508837Y-134519696D01*
X188507084Y-134502118D01*
X188505833Y-134484287D01*
X188505082Y-134466202D01*
X188504831Y-134447864D01*
X188505160Y-134427267D01*
X188506144Y-134406996D01*
X188507785Y-134387052D01*
X188510083Y-134367435D01*
X188513036Y-134348144D01*
X188516647Y-134329180D01*
X188520913Y-134310543D01*
X188525836Y-134292233D01*
X188531416Y-134274249D01*
X188537651Y-134256591D01*
X188544544Y-134239261D01*
X188552092Y-134222257D01*
X188560297Y-134205580D01*
X188569159Y-134189229D01*
X188578677Y-134173205D01*
X188588851Y-134157508D01*
X188599700Y-134142303D01*
X188611242Y-134127753D01*
X188623477Y-134113860D01*
X188636405Y-134100624D01*
X188650026Y-134088044D01*
X188664340Y-134076120D01*
X188679347Y-134064853D01*
X188695048Y-134054242D01*
X188711441Y-134044288D01*
X188728527Y-134034990D01*
X188746307Y-134026348D01*
X188764779Y-134018363D01*
X188783944Y-134011034D01*
X188803803Y-134004362D01*
X188824354Y-133998346D01*
X188845599Y-133992986D01*
X188811991Y-134116085D01*
X188794537Y-134108229D01*
X188777541Y-134099806D01*
X188761002Y-134090815D01*
X188744922Y-134081256D01*
X188729300Y-134071129D01*
X188714135Y-134060434D01*
X188699429Y-134049171D01*
X188685180Y-134037341D01*
X188671390Y-134024942D01*
X188658057Y-134011976D01*
X188645182Y-133998442D01*
X188632766Y-133984340D01*
X188620807Y-133969670D01*
X188609306Y-133954433D01*
X188598263Y-133938627D01*
X188587678Y-133922254D01*
X188577646Y-133905443D01*
X188568261Y-133888328D01*
X188559523Y-133870908D01*
X188551433Y-133853182D01*
X188543990Y-133835150D01*
X188537193Y-133816814D01*
X188531045Y-133798172D01*
X188525543Y-133779225D01*
X188520689Y-133759972D01*
X188516482Y-133740415D01*
X188512922Y-133720552D01*
X188510009Y-133700383D01*
X188507744Y-133679910D01*
X188506126Y-133659131D01*
X188505155Y-133638046D01*
X188504831Y-133616657D01*
G37*
G36*
X189728000Y-132071479D02*
G01*
X189492745Y-132071479D01*
X189441161Y-132093754D01*
X189020281Y-132093754D01*
X188999688Y-132094355D01*
X188979968Y-132096158D01*
X188961119Y-132099163D01*
X188943143Y-132103371D01*
X188926040Y-132108781D01*
X188909809Y-132115392D01*
X188894450Y-132123206D01*
X188879964Y-132132222D01*
X188866350Y-132142440D01*
X188853609Y-132153860D01*
X188845599Y-132162142D01*
X188834355Y-132175603D01*
X188824217Y-132190343D01*
X188815185Y-132206360D01*
X188807259Y-132223654D01*
X188800439Y-132242227D01*
X188794725Y-132262077D01*
X188790117Y-132283205D01*
X188786614Y-132305610D01*
X188784894Y-132321257D01*
X188783665Y-132337472D01*
X188782928Y-132354254D01*
X188782682Y-132371605D01*
X188782950Y-132389602D01*
X188783754Y-132407545D01*
X188785093Y-132425433D01*
X188786968Y-132443265D01*
X188789380Y-132461043D01*
X188792327Y-132478766D01*
X188795809Y-132496434D01*
X188799828Y-132514047D01*
X188804382Y-132531605D01*
X188809472Y-132549108D01*
X188813163Y-132560746D01*
X188818994Y-132577938D01*
X188825203Y-132594635D01*
X188831790Y-132610837D01*
X188838754Y-132626545D01*
X188846096Y-132641758D01*
X188853816Y-132656477D01*
X188861914Y-132670701D01*
X188870390Y-132684431D01*
X188879243Y-132697666D01*
X188888474Y-132710406D01*
X188894838Y-132718625D01*
X188650595Y-132844068D01*
X188637831Y-132825249D01*
X188625623Y-132805723D01*
X188613972Y-132785490D01*
X188606513Y-132771608D01*
X188599302Y-132757411D01*
X188592338Y-132742900D01*
X188585621Y-132728074D01*
X188579152Y-132712934D01*
X188572930Y-132697480D01*
X188566955Y-132681711D01*
X188561227Y-132665627D01*
X188555747Y-132649230D01*
X188550514Y-132632517D01*
X188545529Y-132615491D01*
X188543129Y-132606859D01*
X188538491Y-132589452D01*
X188534153Y-132572012D01*
X188530114Y-132554538D01*
X188526374Y-132537030D01*
X188522933Y-132519489D01*
X188519791Y-132501914D01*
X188516949Y-132484306D01*
X188514406Y-132466664D01*
X188512162Y-132448988D01*
X188510217Y-132431279D01*
X188508571Y-132413536D01*
X188507225Y-132395760D01*
X188506178Y-132377950D01*
X188505430Y-132360107D01*
X188504981Y-132342230D01*
X188504831Y-132324319D01*
X188504958Y-132307221D01*
X188505340Y-132290363D01*
X188505975Y-132273747D01*
X188506865Y-132257372D01*
X188508008Y-132241238D01*
X188509406Y-132225346D01*
X188511058Y-132209694D01*
X188515125Y-132179115D01*
X188520208Y-132149501D01*
X188526308Y-132120851D01*
X188533425Y-132093166D01*
X188541558Y-132066446D01*
X188550708Y-132040691D01*
X188560875Y-132015900D01*
X188572058Y-131992074D01*
X188584258Y-131969213D01*
X188597475Y-131947317D01*
X188611708Y-131926385D01*
X188626958Y-131906418D01*
X188634964Y-131896796D01*
X188651751Y-131878341D01*
X188669677Y-131861076D01*
X188688742Y-131845002D01*
X188708945Y-131830118D01*
X188730287Y-131816425D01*
X188752768Y-131803923D01*
X188776388Y-131792612D01*
X188801147Y-131782491D01*
X188827044Y-131773561D01*
X188854080Y-131765821D01*
X188882255Y-131759272D01*
X188911569Y-131753914D01*
X188942021Y-131749747D01*
X188957675Y-131748110D01*
X188973613Y-131746770D01*
X188989835Y-131745728D01*
X189006343Y-131744984D01*
X189023135Y-131744538D01*
X189040212Y-131744389D01*
X189728000Y-131744389D01*
X189728000Y-132071479D01*
G37*
G36*
X189745976Y-132438820D02*
G01*
X189745788Y-132456297D01*
X189745225Y-132473460D01*
X189744286Y-132490308D01*
X189742972Y-132506842D01*
X189741282Y-132523061D01*
X189739216Y-132538966D01*
X189736775Y-132554556D01*
X189732410Y-132577352D01*
X189727200Y-132599440D01*
X189721144Y-132620821D01*
X189714244Y-132641494D01*
X189706499Y-132661460D01*
X189697909Y-132680718D01*
X189688521Y-132699211D01*
X189678528Y-132716878D01*
X189667931Y-132733722D01*
X189656729Y-132749741D01*
X189644923Y-132764936D01*
X189632513Y-132779307D01*
X189619498Y-132792853D01*
X189605878Y-132805575D01*
X189591654Y-132817473D01*
X189576825Y-132828546D01*
X189566604Y-132835471D01*
X189550895Y-132845038D01*
X189534835Y-132853665D01*
X189518426Y-132861351D01*
X189501666Y-132868095D01*
X189484555Y-132873899D01*
X189467095Y-132878761D01*
X189449284Y-132882682D01*
X189431122Y-132885662D01*
X189412611Y-132887701D01*
X189393749Y-132888799D01*
X189380979Y-132889009D01*
X189360996Y-132888548D01*
X189341494Y-132887168D01*
X189322473Y-132884866D01*
X189303933Y-132881645D01*
X189285873Y-132877502D01*
X189268295Y-132872440D01*
X189251197Y-132866457D01*
X189234580Y-132859553D01*
X189218444Y-132851729D01*
X189202789Y-132842984D01*
X189192619Y-132836643D01*
X189177831Y-132826212D01*
X189163654Y-132814702D01*
X189150088Y-132802114D01*
X189137133Y-132788448D01*
X189124790Y-132773703D01*
X189113059Y-132757879D01*
X189101938Y-132740977D01*
X189091429Y-132722997D01*
X189081532Y-132703938D01*
X189072246Y-132683800D01*
X189066394Y-132669776D01*
X189058154Y-132647699D01*
X189053110Y-132632306D01*
X189048427Y-132616372D01*
X189044103Y-132599898D01*
X189040141Y-132582883D01*
X189036538Y-132565328D01*
X189033296Y-132547233D01*
X189030414Y-132528597D01*
X189027892Y-132509421D01*
X189025730Y-132489705D01*
X189023929Y-132469448D01*
X189022488Y-132448651D01*
X189021407Y-132427313D01*
X189020687Y-132405435D01*
X189020326Y-132383016D01*
X189020281Y-132371605D01*
X189020281Y-132051158D01*
X189223882Y-132051158D01*
X189223882Y-132333307D01*
X189224239Y-132355781D01*
X189225311Y-132376895D01*
X189227097Y-132396649D01*
X189229598Y-132415043D01*
X189232812Y-132432077D01*
X189236742Y-132447750D01*
X189243092Y-132466533D01*
X189250712Y-132482897D01*
X189259603Y-132496843D01*
X189264524Y-132502909D01*
X189277589Y-132516081D01*
X189291628Y-132527021D01*
X189306639Y-132535728D01*
X189322624Y-132542202D01*
X189339581Y-132546444D01*
X189357512Y-132548453D01*
X189364957Y-132548632D01*
X189381327Y-132547807D01*
X189396831Y-132545334D01*
X189414990Y-132539925D01*
X189431796Y-132531939D01*
X189447246Y-132521378D01*
X189461341Y-132508240D01*
X189471642Y-132495875D01*
X189480801Y-132482076D01*
X189488739Y-132467055D01*
X189495456Y-132450812D01*
X189500951Y-132433349D01*
X189505226Y-132414665D01*
X189508279Y-132394759D01*
X189509767Y-132379028D01*
X189510568Y-132362610D01*
X189510721Y-132351284D01*
X189510357Y-132335098D01*
X189509265Y-132319222D01*
X189507444Y-132303655D01*
X189503885Y-132283380D01*
X189499030Y-132263654D01*
X189492881Y-132244478D01*
X189485438Y-132225851D01*
X189476700Y-132207774D01*
X189469297Y-132194577D01*
X189458331Y-132177786D01*
X189446143Y-132162191D01*
X189432734Y-132147793D01*
X189418104Y-132134591D01*
X189402253Y-132122587D01*
X189385180Y-132111779D01*
X189366886Y-132102168D01*
X189352365Y-132095745D01*
X189347371Y-132093754D01*
X189508376Y-132039825D01*
X189529720Y-132047555D01*
X189550082Y-132056385D01*
X189569462Y-132066313D01*
X189587859Y-132077341D01*
X189605274Y-132089467D01*
X189621707Y-132102693D01*
X189637157Y-132117018D01*
X189651625Y-132132442D01*
X189665110Y-132148965D01*
X189677614Y-132166587D01*
X189685404Y-132178946D01*
X189696228Y-132198362D01*
X189705989Y-132218802D01*
X189714684Y-132240265D01*
X189719889Y-132255142D01*
X189724622Y-132270475D01*
X189728881Y-132286262D01*
X189732666Y-132302504D01*
X189735979Y-132319201D01*
X189738818Y-132336353D01*
X189741184Y-132353960D01*
X189743077Y-132372022D01*
X189744497Y-132390538D01*
X189745443Y-132409510D01*
X189745917Y-132428936D01*
X189745976Y-132438820D01*
G37*
G36*
X189728000Y-131428632D02*
G01*
X188522808Y-131428632D01*
X188522808Y-131094898D01*
X188863184Y-131094898D01*
X188764706Y-131142184D01*
X188749021Y-131135189D01*
X188733815Y-131127688D01*
X188719089Y-131119680D01*
X188704842Y-131111165D01*
X188691074Y-131102143D01*
X188677786Y-131092615D01*
X188664977Y-131082579D01*
X188652647Y-131072037D01*
X188640797Y-131060988D01*
X188629426Y-131049433D01*
X188618534Y-131037370D01*
X188608122Y-131024801D01*
X188598189Y-131011724D01*
X188588735Y-130998142D01*
X188579760Y-130984052D01*
X188571265Y-130969455D01*
X188563221Y-130954405D01*
X188555695Y-130938955D01*
X188548688Y-130923106D01*
X188542200Y-130906856D01*
X188536232Y-130890206D01*
X188530782Y-130873156D01*
X188525851Y-130855707D01*
X188521440Y-130837857D01*
X188517547Y-130819608D01*
X188514174Y-130800958D01*
X188511319Y-130781909D01*
X188508983Y-130762459D01*
X188507167Y-130742610D01*
X188505869Y-130722361D01*
X188505091Y-130701712D01*
X188504831Y-130680662D01*
X188827623Y-130680662D01*
X188826029Y-130696764D01*
X188824675Y-130712843D01*
X188824106Y-130720914D01*
X188823304Y-130737017D01*
X188822952Y-130753868D01*
X188822933Y-130758820D01*
X188823254Y-130776534D01*
X188824215Y-130793820D01*
X188825818Y-130810679D01*
X188828062Y-130827110D01*
X188830947Y-130843114D01*
X188834474Y-130858691D01*
X188838641Y-130873840D01*
X188846094Y-130895763D01*
X188854990Y-130916723D01*
X188865328Y-130936722D01*
X188877109Y-130955759D01*
X188890333Y-130973835D01*
X188904999Y-130990949D01*
X188921110Y-131006732D01*
X188938814Y-131020963D01*
X188958112Y-131033641D01*
X188971863Y-131041231D01*
X188986323Y-131048131D01*
X189001490Y-131054341D01*
X189017366Y-131059861D01*
X189033950Y-131064691D01*
X189051242Y-131068831D01*
X189069243Y-131072281D01*
X189087952Y-131075041D01*
X189107369Y-131077111D01*
X189127495Y-131078491D01*
X189148329Y-131079181D01*
X189159011Y-131079267D01*
X189728000Y-131079267D01*
X189728000Y-131428632D01*
G37*
G36*
X189745976Y-129936992D02*
G01*
X189745551Y-129963246D01*
X189744278Y-129988765D01*
X189742156Y-130013548D01*
X189739186Y-130037595D01*
X189735366Y-130060907D01*
X189730698Y-130083483D01*
X189725182Y-130105322D01*
X189718816Y-130126427D01*
X189711602Y-130146795D01*
X189703539Y-130166427D01*
X189694627Y-130185324D01*
X189684866Y-130203485D01*
X189674257Y-130220910D01*
X189662799Y-130237600D01*
X189650492Y-130253553D01*
X189637337Y-130268771D01*
X189623341Y-130283110D01*
X189608516Y-130296523D01*
X189592860Y-130309012D01*
X189576374Y-130320575D01*
X189559057Y-130331214D01*
X189540909Y-130340927D01*
X189521932Y-130349715D01*
X189502124Y-130357578D01*
X189481485Y-130364516D01*
X189460016Y-130370529D01*
X189437717Y-130375617D01*
X189414587Y-130379780D01*
X189390627Y-130383017D01*
X189365836Y-130385330D01*
X189340215Y-130386718D01*
X189313764Y-130387180D01*
X188256290Y-130387180D01*
X188256290Y-130037815D01*
X189309074Y-130037815D01*
X189327582Y-130037186D01*
X189345002Y-130035300D01*
X189361336Y-130032155D01*
X189376583Y-130027752D01*
X189394113Y-130020481D01*
X189409945Y-130011243D01*
X189424079Y-130000040D01*
X189426702Y-129997564D01*
X189438635Y-129984270D01*
X189448546Y-129969545D01*
X189456434Y-129953389D01*
X189462300Y-129935801D01*
X189466143Y-129916783D01*
X189467761Y-129900537D01*
X189468125Y-129887752D01*
X189467423Y-129867425D01*
X189465316Y-129847868D01*
X189461805Y-129829079D01*
X189456890Y-129811060D01*
X189450570Y-129793811D01*
X189442846Y-129777330D01*
X189433717Y-129761619D01*
X189423184Y-129746678D01*
X189669772Y-129652498D01*
X189678956Y-129666310D01*
X189687553Y-129680781D01*
X189695564Y-129695912D01*
X189702989Y-129711702D01*
X189709828Y-129728152D01*
X189716080Y-129745261D01*
X189721747Y-129763030D01*
X189726827Y-129781458D01*
X189731315Y-129800301D01*
X189735205Y-129819316D01*
X189738496Y-129838501D01*
X189741189Y-129857857D01*
X189743283Y-129877384D01*
X189744779Y-129897083D01*
X189745677Y-129916952D01*
X189745976Y-129936992D01*
G37*
G36*
X188818635Y-130573196D02*
G01*
X188549772Y-130573196D01*
X188549772Y-129737690D01*
X188818635Y-129737690D01*
X188818635Y-130573196D01*
G37*
G36*
X188160156Y-127723175D02*
G01*
X188160156Y-127360132D01*
X189728000Y-127360132D01*
X189728000Y-127723175D01*
X188160156Y-127723175D01*
G37*
G36*
X189728000Y-128435582D02*
G01*
X189728000Y-128798234D01*
X188160156Y-128798234D01*
X188160156Y-128435582D01*
X189728000Y-128435582D01*
G37*
G36*
X189085152Y-127696210D02*
G01*
X189085152Y-128462156D01*
X188778383Y-128462156D01*
X188778383Y-127696210D01*
X189085152Y-127696210D01*
G37*
G36*
X189728000Y-126527362D02*
G01*
X188160156Y-127203817D01*
X188160156Y-126811465D01*
X189548628Y-126220202D01*
X189548628Y-126451158D01*
X188160156Y-125850516D01*
X188160156Y-125490209D01*
X189728000Y-126168618D01*
X189728000Y-126527362D01*
G37*
G36*
X189728000Y-125618778D02*
G01*
X188160156Y-124919658D01*
X188160156Y-124561304D01*
X189728000Y-123860230D01*
X189728000Y-124240858D01*
X188343826Y-124814535D01*
X188343826Y-124671116D01*
X189728000Y-125246748D01*
X189728000Y-125618778D01*
G37*
G36*
X189391921Y-125269023D02*
G01*
X189116415Y-125172889D01*
X189116415Y-124366301D01*
X189391921Y-124267822D01*
X189391921Y-125269023D01*
G37*
G36*
X189754964Y-122969232D02*
G01*
X189754732Y-122991798D01*
X189754036Y-123014166D01*
X189752876Y-123036336D01*
X189751251Y-123058307D01*
X189749163Y-123080080D01*
X189746611Y-123101654D01*
X189743594Y-123123030D01*
X189740114Y-123144207D01*
X189736169Y-123165186D01*
X189731761Y-123185967D01*
X189726888Y-123206549D01*
X189721551Y-123226933D01*
X189715751Y-123247118D01*
X189709486Y-123267104D01*
X189702757Y-123286893D01*
X189695564Y-123306482D01*
X189687942Y-123325764D01*
X189679926Y-123344725D01*
X189671517Y-123363365D01*
X189662713Y-123381685D01*
X189653516Y-123399684D01*
X189643925Y-123417363D01*
X189633940Y-123434721D01*
X189623561Y-123451758D01*
X189612789Y-123468475D01*
X189601622Y-123484871D01*
X189590062Y-123500947D01*
X189578108Y-123516702D01*
X189565760Y-123532137D01*
X189553018Y-123547251D01*
X189539882Y-123562044D01*
X189526353Y-123576517D01*
X189512478Y-123590584D01*
X189498307Y-123604257D01*
X189483841Y-123617536D01*
X189469078Y-123630422D01*
X189454019Y-123642913D01*
X189438663Y-123655011D01*
X189423012Y-123666715D01*
X189407064Y-123678025D01*
X189390821Y-123688941D01*
X189374281Y-123699463D01*
X189357445Y-123709591D01*
X189340313Y-123719326D01*
X189322885Y-123728667D01*
X189305160Y-123737614D01*
X189287140Y-123746167D01*
X189268823Y-123754326D01*
X189250244Y-123762040D01*
X189231435Y-123769255D01*
X189212398Y-123775974D01*
X189193132Y-123782194D01*
X189173637Y-123787917D01*
X189153913Y-123793142D01*
X189133960Y-123797870D01*
X189113778Y-123802100D01*
X189093367Y-123805832D01*
X189072726Y-123809067D01*
X189051857Y-123811804D01*
X189030759Y-123814043D01*
X189009432Y-123815785D01*
X188987877Y-123817029D01*
X188966092Y-123817776D01*
X188944078Y-123818025D01*
X188922064Y-123817776D01*
X188900279Y-123817029D01*
X188878723Y-123815785D01*
X188857396Y-123814043D01*
X188836298Y-123811804D01*
X188815429Y-123809067D01*
X188794789Y-123805832D01*
X188774378Y-123802100D01*
X188754196Y-123797870D01*
X188734243Y-123793142D01*
X188714518Y-123787917D01*
X188695023Y-123782194D01*
X188675757Y-123775974D01*
X188656720Y-123769255D01*
X188637912Y-123762040D01*
X188619332Y-123754326D01*
X188600970Y-123746162D01*
X188582910Y-123737595D01*
X188565152Y-123728626D01*
X188547696Y-123719253D01*
X188530542Y-123709477D01*
X188513691Y-123699298D01*
X188497142Y-123688716D01*
X188480896Y-123677732D01*
X188464951Y-123666344D01*
X188449309Y-123654553D01*
X188433969Y-123642359D01*
X188418931Y-123629762D01*
X188404196Y-123616762D01*
X188389762Y-123603360D01*
X188375631Y-123589554D01*
X188361803Y-123575345D01*
X188348273Y-123560735D01*
X188335137Y-123545822D01*
X188322396Y-123530607D01*
X188310048Y-123515090D01*
X188298093Y-123499271D01*
X188286533Y-123483149D01*
X188275367Y-123466726D01*
X188264594Y-123450000D01*
X188254215Y-123432971D01*
X188244230Y-123415641D01*
X188234639Y-123398008D01*
X188225442Y-123380073D01*
X188216639Y-123361835D01*
X188208229Y-123343296D01*
X188200213Y-123324454D01*
X188192591Y-123305310D01*
X188185398Y-123285853D01*
X188178669Y-123266170D01*
X188172405Y-123246261D01*
X188166604Y-123226127D01*
X188161267Y-123205766D01*
X188156394Y-123185179D01*
X188151986Y-123164367D01*
X188148041Y-123143328D01*
X188144561Y-123122064D01*
X188141545Y-123100573D01*
X188138992Y-123078857D01*
X188136904Y-123056915D01*
X188135280Y-123034747D01*
X188134120Y-123012353D01*
X188133423Y-122989733D01*
X188133191Y-122966887D01*
X188133468Y-122941590D01*
X188134297Y-122916598D01*
X188135678Y-122891911D01*
X188137612Y-122867529D01*
X188140099Y-122843453D01*
X188143138Y-122819682D01*
X188146730Y-122796216D01*
X188150875Y-122773056D01*
X188155572Y-122750201D01*
X188160821Y-122727651D01*
X188166624Y-122705407D01*
X188172979Y-122683468D01*
X188179886Y-122661834D01*
X188187346Y-122640505D01*
X188195359Y-122619482D01*
X188203924Y-122598764D01*
X188212976Y-122578356D01*
X188222548Y-122558360D01*
X188232638Y-122538777D01*
X188243247Y-122519605D01*
X188254376Y-122500846D01*
X188266023Y-122482499D01*
X188278189Y-122464564D01*
X188290875Y-122447041D01*
X188304079Y-122429930D01*
X188317802Y-122413231D01*
X188332045Y-122396945D01*
X188346806Y-122381071D01*
X188362087Y-122365609D01*
X188377886Y-122350559D01*
X188394205Y-122335921D01*
X188411042Y-122321695D01*
X188625976Y-122554996D01*
X188609162Y-122570248D01*
X188593159Y-122585816D01*
X188577966Y-122601701D01*
X188563584Y-122617901D01*
X188550012Y-122634417D01*
X188537252Y-122651249D01*
X188525301Y-122668397D01*
X188514161Y-122685861D01*
X188503832Y-122703641D01*
X188494314Y-122721738D01*
X188488418Y-122733977D01*
X188480177Y-122752600D01*
X188472747Y-122771539D01*
X188466127Y-122790793D01*
X188460318Y-122810364D01*
X188455319Y-122830251D01*
X188451131Y-122850454D01*
X188447754Y-122870972D01*
X188445187Y-122891807D01*
X188443431Y-122912958D01*
X188442485Y-122934424D01*
X188442305Y-122948911D01*
X188442621Y-122969343D01*
X188443569Y-122989458D01*
X188445149Y-123009258D01*
X188447361Y-123028742D01*
X188450205Y-123047909D01*
X188453681Y-123066761D01*
X188457789Y-123085297D01*
X188462528Y-123103517D01*
X188467900Y-123121420D01*
X188473904Y-123139008D01*
X188478258Y-123150558D01*
X188485204Y-123167561D01*
X188492706Y-123184130D01*
X188500765Y-123200268D01*
X188509380Y-123215972D01*
X188518552Y-123231244D01*
X188528280Y-123246083D01*
X188538565Y-123260489D01*
X188549406Y-123274462D01*
X188560803Y-123288003D01*
X188572757Y-123301111D01*
X188581035Y-123309609D01*
X188593854Y-123321947D01*
X188607106Y-123333757D01*
X188620791Y-123345037D01*
X188634909Y-123355789D01*
X188649459Y-123366012D01*
X188664442Y-123375705D01*
X188679858Y-123384870D01*
X188695707Y-123393506D01*
X188711989Y-123401613D01*
X188728703Y-123409191D01*
X188740086Y-123413949D01*
X188757484Y-123420514D01*
X188775239Y-123426433D01*
X188793351Y-123431706D01*
X188811820Y-123436334D01*
X188830647Y-123440316D01*
X188849830Y-123443652D01*
X188869371Y-123446343D01*
X188889270Y-123448387D01*
X188909525Y-123449787D01*
X188930137Y-123450540D01*
X188944078Y-123450683D01*
X188964859Y-123450361D01*
X188985289Y-123449392D01*
X189005369Y-123447778D01*
X189025099Y-123445518D01*
X189044479Y-123442612D01*
X189063508Y-123439060D01*
X189082187Y-123434863D01*
X189100515Y-123430020D01*
X189118493Y-123424532D01*
X189136121Y-123418398D01*
X189147678Y-123413949D01*
X189164681Y-123406724D01*
X189181251Y-123398970D01*
X189197388Y-123390686D01*
X189213093Y-123381874D01*
X189228365Y-123372533D01*
X189243203Y-123362663D01*
X189257610Y-123352264D01*
X189271583Y-123341336D01*
X189285123Y-123329879D01*
X189298231Y-123317893D01*
X189306729Y-123309609D01*
X189319058Y-123296789D01*
X189330836Y-123283537D01*
X189342065Y-123269852D01*
X189352745Y-123255735D01*
X189362875Y-123241184D01*
X189372455Y-123226201D01*
X189381486Y-123210785D01*
X189389967Y-123194937D01*
X189397899Y-123178655D01*
X189405281Y-123161941D01*
X189409898Y-123150558D01*
X189416323Y-123133181D01*
X189422116Y-123115488D01*
X189427277Y-123097478D01*
X189431806Y-123079153D01*
X189435703Y-123060512D01*
X189438969Y-123041555D01*
X189441602Y-123022282D01*
X189443603Y-123002693D01*
X189444972Y-122982788D01*
X189445710Y-122962567D01*
X189445850Y-122948911D01*
X189445448Y-122927234D01*
X189444243Y-122905872D01*
X189442233Y-122884827D01*
X189439420Y-122864098D01*
X189435804Y-122843684D01*
X189431383Y-122823587D01*
X189426159Y-122803805D01*
X189420131Y-122784340D01*
X189413300Y-122765191D01*
X189405665Y-122746357D01*
X189400128Y-122733977D01*
X189391059Y-122715670D01*
X189381146Y-122697680D01*
X189370387Y-122680005D01*
X189358784Y-122662646D01*
X189346335Y-122645603D01*
X189333042Y-122628876D01*
X189318904Y-122612466D01*
X189303921Y-122596371D01*
X189288093Y-122580592D01*
X189271420Y-122565129D01*
X189259835Y-122554996D01*
X189474769Y-122321695D01*
X189491612Y-122335921D01*
X189507949Y-122350559D01*
X189523779Y-122365609D01*
X189539102Y-122381071D01*
X189553918Y-122396945D01*
X189568228Y-122413231D01*
X189582031Y-122429930D01*
X189595327Y-122447041D01*
X189608116Y-122464564D01*
X189620398Y-122482499D01*
X189632174Y-122500846D01*
X189643443Y-122519605D01*
X189654205Y-122538777D01*
X189664460Y-122558360D01*
X189674208Y-122578356D01*
X189683450Y-122598764D01*
X189692110Y-122619491D01*
X189700211Y-122640542D01*
X189707753Y-122661916D01*
X189714737Y-122683614D01*
X189721162Y-122705636D01*
X189727029Y-122727981D01*
X189732336Y-122750650D01*
X189737085Y-122773642D01*
X189741276Y-122796958D01*
X189744907Y-122820598D01*
X189747980Y-122844561D01*
X189750494Y-122868848D01*
X189752450Y-122893459D01*
X189753846Y-122918393D01*
X189754685Y-122943650D01*
X189754964Y-122969232D01*
G37*
G36*
X189754964Y-120930097D02*
G01*
X189754767Y-120953534D01*
X189754176Y-120976851D01*
X189753192Y-121000050D01*
X189751813Y-121023129D01*
X189750041Y-121046090D01*
X189747875Y-121068931D01*
X189745315Y-121091653D01*
X189742361Y-121114256D01*
X189739013Y-121136740D01*
X189735272Y-121159105D01*
X189731136Y-121181351D01*
X189726607Y-121203478D01*
X189721684Y-121225486D01*
X189716367Y-121247375D01*
X189710657Y-121269144D01*
X189704552Y-121290795D01*
X189698132Y-121312076D01*
X189691473Y-121332835D01*
X189684576Y-121353072D01*
X189677441Y-121372787D01*
X189670068Y-121391980D01*
X189662457Y-121410651D01*
X189654608Y-121428800D01*
X189646520Y-121446427D01*
X189638194Y-121463531D01*
X189629631Y-121480114D01*
X189620829Y-121496174D01*
X189611789Y-121511713D01*
X189602511Y-121526729D01*
X189592994Y-121541223D01*
X189583240Y-121555196D01*
X189573247Y-121568646D01*
X189300086Y-121445157D01*
X189313342Y-121425929D01*
X189321927Y-121412752D01*
X189330310Y-121399288D01*
X189338492Y-121385538D01*
X189346473Y-121371500D01*
X189354252Y-121357175D01*
X189361830Y-121342563D01*
X189369206Y-121327664D01*
X189376381Y-121312478D01*
X189383354Y-121297006D01*
X189390125Y-121281246D01*
X189396696Y-121265199D01*
X189403064Y-121248865D01*
X189409231Y-121232245D01*
X189415197Y-121215337D01*
X189418104Y-121206775D01*
X189423641Y-121189520D01*
X189428820Y-121172240D01*
X189433643Y-121154935D01*
X189438108Y-121137606D01*
X189442216Y-121120252D01*
X189445966Y-121102875D01*
X189449360Y-121085472D01*
X189452396Y-121068046D01*
X189455075Y-121050594D01*
X189457397Y-121033119D01*
X189459361Y-121015619D01*
X189460969Y-120998094D01*
X189462219Y-120980546D01*
X189463112Y-120962972D01*
X189463648Y-120945375D01*
X189463826Y-120927752D01*
X189463641Y-120907967D01*
X189463085Y-120888909D01*
X189462157Y-120870579D01*
X189460859Y-120852978D01*
X189459190Y-120836104D01*
X189457149Y-120819959D01*
X189453852Y-120799565D01*
X189449895Y-120780465D01*
X189445279Y-120762660D01*
X189442724Y-120754242D01*
X189437094Y-120738275D01*
X189430951Y-120723394D01*
X189422552Y-120706322D01*
X189413351Y-120690948D01*
X189403348Y-120677273D01*
X189392544Y-120665295D01*
X189383324Y-120656936D01*
X189368578Y-120646179D01*
X189353062Y-120637647D01*
X189336777Y-120631341D01*
X189319723Y-120627260D01*
X189301900Y-120625406D01*
X189295787Y-120625282D01*
X189276765Y-120626494D01*
X189259021Y-120630129D01*
X189242556Y-120636187D01*
X189227369Y-120644669D01*
X189213460Y-120655574D01*
X189200830Y-120668902D01*
X189196136Y-120674912D01*
X189187069Y-120687711D01*
X189178429Y-120701486D01*
X189170216Y-120716238D01*
X189162431Y-120731967D01*
X189155073Y-120748674D01*
X189148143Y-120766357D01*
X189141640Y-120785017D01*
X189135564Y-120804654D01*
X189131188Y-120819899D01*
X189126854Y-120835447D01*
X189122560Y-120851297D01*
X189118308Y-120867449D01*
X189114097Y-120883903D01*
X189109928Y-120900660D01*
X189105799Y-120917719D01*
X189101712Y-120935080D01*
X189097666Y-120952743D01*
X189093661Y-120970709D01*
X189091014Y-120982854D01*
X189086898Y-121001102D01*
X189082611Y-121019357D01*
X189078151Y-121037619D01*
X189073520Y-121055888D01*
X189068717Y-121074164D01*
X189063743Y-121092447D01*
X189058597Y-121110737D01*
X189053279Y-121129033D01*
X189047789Y-121147336D01*
X189042127Y-121165647D01*
X189038258Y-121177857D01*
X189032168Y-121195954D01*
X189025769Y-121213756D01*
X189019061Y-121231263D01*
X189012044Y-121248474D01*
X189004718Y-121265390D01*
X188997083Y-121282010D01*
X188989139Y-121298335D01*
X188980885Y-121314364D01*
X188972322Y-121330099D01*
X188963451Y-121345537D01*
X188957364Y-121355666D01*
X188947857Y-121370496D01*
X188937801Y-121384796D01*
X188927194Y-121398568D01*
X188916039Y-121411811D01*
X188904333Y-121424525D01*
X188892078Y-121436710D01*
X188879274Y-121448366D01*
X188865920Y-121459494D01*
X188852016Y-121470092D01*
X188837563Y-121480161D01*
X188827623Y-121486580D01*
X188812064Y-121495589D01*
X188795721Y-121503712D01*
X188778596Y-121510949D01*
X188760688Y-121517300D01*
X188741996Y-121522764D01*
X188722522Y-121527343D01*
X188702264Y-121531035D01*
X188681224Y-121533841D01*
X188659400Y-121535761D01*
X188636793Y-121536795D01*
X188621286Y-121536992D01*
X188604576Y-121536708D01*
X188588051Y-121535856D01*
X188571713Y-121534436D01*
X188555561Y-121532449D01*
X188539595Y-121529894D01*
X188523815Y-121526770D01*
X188508222Y-121523079D01*
X188492815Y-121518820D01*
X188477594Y-121513993D01*
X188462559Y-121508599D01*
X188447711Y-121502636D01*
X188433048Y-121496106D01*
X188418572Y-121489007D01*
X188404283Y-121481341D01*
X188390179Y-121473107D01*
X188376262Y-121464305D01*
X188362564Y-121454931D01*
X188349218Y-121444979D01*
X188336223Y-121434451D01*
X188323579Y-121423346D01*
X188311286Y-121411663D01*
X188299344Y-121399404D01*
X188287753Y-121386567D01*
X188276513Y-121373154D01*
X188265624Y-121359163D01*
X188255087Y-121344596D01*
X188244900Y-121329451D01*
X188235065Y-121313729D01*
X188225581Y-121297431D01*
X188216448Y-121280555D01*
X188207666Y-121263102D01*
X188199235Y-121245073D01*
X188191237Y-121226413D01*
X188183756Y-121207166D01*
X188176790Y-121187334D01*
X188170341Y-121166915D01*
X188164407Y-121145910D01*
X188158990Y-121124319D01*
X188154088Y-121102142D01*
X188149702Y-121079378D01*
X188145832Y-121056029D01*
X188142479Y-121032093D01*
X188139641Y-121007571D01*
X188137319Y-120982463D01*
X188135513Y-120956769D01*
X188134223Y-120930488D01*
X188133449Y-120903621D01*
X188133191Y-120876168D01*
X188133327Y-120857720D01*
X188133735Y-120839306D01*
X188134414Y-120820925D01*
X188135365Y-120802578D01*
X188136588Y-120784264D01*
X188138082Y-120765984D01*
X188139849Y-120747738D01*
X188141886Y-120729525D01*
X188144196Y-120711346D01*
X188146777Y-120693200D01*
X188149630Y-120675088D01*
X188152755Y-120657009D01*
X188156152Y-120638964D01*
X188159820Y-120620953D01*
X188163760Y-120602975D01*
X188167972Y-120585031D01*
X188172453Y-120567235D01*
X188177204Y-120549701D01*
X188182223Y-120532430D01*
X188187511Y-120515422D01*
X188193068Y-120498676D01*
X188198893Y-120482192D01*
X188204987Y-120465972D01*
X188211349Y-120450013D01*
X188217980Y-120434318D01*
X188224880Y-120418885D01*
X188232049Y-120403714D01*
X188239486Y-120388806D01*
X188247192Y-120374161D01*
X188255166Y-120359778D01*
X188263409Y-120345658D01*
X188271921Y-120331800D01*
X188547427Y-120443956D01*
X188539738Y-120457683D01*
X188528680Y-120478272D01*
X188518191Y-120498862D01*
X188508273Y-120519452D01*
X188498925Y-120540041D01*
X188490147Y-120560631D01*
X188481940Y-120581221D01*
X188474302Y-120601810D01*
X188467235Y-120622400D01*
X188460737Y-120642990D01*
X188454810Y-120663579D01*
X188449363Y-120684128D01*
X188444451Y-120704594D01*
X188440076Y-120724977D01*
X188436236Y-120745279D01*
X188432932Y-120765497D01*
X188430163Y-120785634D01*
X188427931Y-120805688D01*
X188426234Y-120825659D01*
X188425073Y-120845548D01*
X188424448Y-120865355D01*
X188424329Y-120878513D01*
X188424545Y-120897890D01*
X188425194Y-120916601D01*
X188426276Y-120934646D01*
X188427791Y-120952024D01*
X188429738Y-120968736D01*
X188432119Y-120984782D01*
X188434932Y-121000161D01*
X188439356Y-121019630D01*
X188444549Y-121037915D01*
X188448949Y-121050851D01*
X188455336Y-121067062D01*
X188462187Y-121082090D01*
X188469502Y-121095932D01*
X188479298Y-121111569D01*
X188489820Y-121125356D01*
X188501066Y-121137291D01*
X188513038Y-121147376D01*
X188528132Y-121157203D01*
X188544106Y-121164998D01*
X188560958Y-121170759D01*
X188578690Y-121174487D01*
X188597302Y-121176181D01*
X188603701Y-121176294D01*
X188621945Y-121175092D01*
X188639063Y-121171485D01*
X188655055Y-121165475D01*
X188669921Y-121157060D01*
X188683662Y-121146241D01*
X188696276Y-121133017D01*
X188701007Y-121127055D01*
X188712143Y-121110904D01*
X188720557Y-121096885D01*
X188728532Y-121081888D01*
X188736067Y-121065915D01*
X188743162Y-121048964D01*
X188749818Y-121031037D01*
X188756034Y-121012132D01*
X188760407Y-120997313D01*
X188764587Y-120982001D01*
X188768774Y-120966401D01*
X188772968Y-120950512D01*
X188777168Y-120934335D01*
X188781376Y-120917869D01*
X188785590Y-120901115D01*
X188789811Y-120884072D01*
X188794039Y-120866741D01*
X188798274Y-120849121D01*
X188802516Y-120831212D01*
X188805348Y-120819113D01*
X188809586Y-120800868D01*
X188813948Y-120782623D01*
X188818434Y-120764378D01*
X188823043Y-120746133D01*
X188827776Y-120727889D01*
X188832633Y-120709644D01*
X188837613Y-120691399D01*
X188842717Y-120673154D01*
X188847944Y-120654909D01*
X188853296Y-120636664D01*
X188856932Y-120624501D01*
X188862533Y-120606333D01*
X188868491Y-120588469D01*
X188874806Y-120570906D01*
X188881478Y-120553646D01*
X188888508Y-120536688D01*
X188895895Y-120520032D01*
X188903639Y-120503678D01*
X188911740Y-120487627D01*
X188920198Y-120471878D01*
X188929014Y-120456431D01*
X188935090Y-120446301D01*
X188944600Y-120431401D01*
X188954667Y-120417038D01*
X188965291Y-120403210D01*
X188976470Y-120389918D01*
X188988207Y-120377161D01*
X189000499Y-120364941D01*
X189013348Y-120353256D01*
X189026754Y-120342107D01*
X189040716Y-120331494D01*
X189055234Y-120321417D01*
X189065222Y-120314996D01*
X189080691Y-120305987D01*
X189096908Y-120297864D01*
X189113874Y-120290627D01*
X189131589Y-120284276D01*
X189150053Y-120278812D01*
X189169265Y-120274233D01*
X189189226Y-120270541D01*
X189209936Y-120267735D01*
X189231395Y-120265815D01*
X189253602Y-120264781D01*
X189268823Y-120264584D01*
X189285247Y-120264874D01*
X189301497Y-120265744D01*
X189317572Y-120267195D01*
X189333474Y-120269225D01*
X189349202Y-120271835D01*
X189364755Y-120275026D01*
X189380135Y-120278796D01*
X189395341Y-120283147D01*
X189410372Y-120288077D01*
X189425230Y-120293588D01*
X189439914Y-120299679D01*
X189454423Y-120306350D01*
X189468759Y-120313601D01*
X189482920Y-120321432D01*
X189496908Y-120329843D01*
X189510721Y-120338834D01*
X189524281Y-120348352D01*
X189537508Y-120358441D01*
X189550403Y-120369100D01*
X189562965Y-120380331D01*
X189575194Y-120392132D01*
X189587090Y-120404505D01*
X189598653Y-120417448D01*
X189609884Y-120430963D01*
X189620781Y-120445048D01*
X189631346Y-120459704D01*
X189641579Y-120474931D01*
X189651478Y-120490729D01*
X189661045Y-120507098D01*
X189670279Y-120524037D01*
X189679180Y-120541548D01*
X189687748Y-120559630D01*
X189695888Y-120578250D01*
X189703502Y-120597475D01*
X189710591Y-120617305D01*
X189717155Y-120637739D01*
X189723194Y-120658777D01*
X189728708Y-120680420D01*
X189733696Y-120702667D01*
X189738160Y-120725519D01*
X189742098Y-120748976D01*
X189745512Y-120773037D01*
X189748400Y-120797702D01*
X189750763Y-120822972D01*
X189752601Y-120848847D01*
X189753914Y-120875326D01*
X189754701Y-120902409D01*
X189754964Y-120930097D01*
G37*
G36*
X190180533Y-119910921D02*
G01*
X190180275Y-119928489D01*
X190179502Y-119946023D01*
X190178214Y-119963523D01*
X190176411Y-119980988D01*
X190174093Y-119998419D01*
X190171259Y-120015815D01*
X190167910Y-120033178D01*
X190164046Y-120050505D01*
X190159667Y-120067799D01*
X190154773Y-120085058D01*
X190151224Y-120096545D01*
X190145602Y-120113469D01*
X190139582Y-120129802D01*
X190133164Y-120145544D01*
X190126347Y-120160696D01*
X190119132Y-120175256D01*
X190111519Y-120189226D01*
X190100748Y-120206934D01*
X190089268Y-120223591D01*
X190077081Y-120239198D01*
X190070721Y-120246608D01*
X189822180Y-120119211D01*
X189832921Y-120106224D01*
X189842917Y-120092665D01*
X189852170Y-120078533D01*
X189860678Y-120063829D01*
X189868443Y-120048552D01*
X189875463Y-120032703D01*
X189878062Y-120026203D01*
X189883917Y-120009745D01*
X189888778Y-119993345D01*
X189892648Y-119977002D01*
X189895526Y-119960716D01*
X189897411Y-119944487D01*
X189898304Y-119928315D01*
X189898383Y-119921863D01*
X189897840Y-119903868D01*
X189896210Y-119886814D01*
X189893492Y-119870700D01*
X189889688Y-119855526D01*
X189883405Y-119837882D01*
X189875423Y-119821706D01*
X189865743Y-119807000D01*
X189863603Y-119804235D01*
X189851618Y-119790758D01*
X189837400Y-119777682D01*
X189824419Y-119767509D01*
X189810009Y-119757593D01*
X189794169Y-119747933D01*
X189776901Y-119738529D01*
X189758205Y-119729383D01*
X189748321Y-119724905D01*
X189600212Y-119661988D01*
X189562305Y-119635024D01*
X188522808Y-119202812D01*
X188522808Y-118866734D01*
X189801859Y-119411102D01*
X189819833Y-119418446D01*
X189837316Y-119425922D01*
X189854308Y-119433528D01*
X189870808Y-119441266D01*
X189886817Y-119449135D01*
X189902334Y-119457136D01*
X189917359Y-119465268D01*
X189931893Y-119473531D01*
X189945936Y-119481925D01*
X189959487Y-119490450D01*
X189972546Y-119499107D01*
X189991214Y-119512339D01*
X190008775Y-119525866D01*
X190025230Y-119539688D01*
X190030470Y-119544361D01*
X190045571Y-119558570D01*
X190059806Y-119573061D01*
X190073176Y-119587834D01*
X190085681Y-119602888D01*
X190097320Y-119618223D01*
X190108093Y-119633841D01*
X190118001Y-119649740D01*
X190127043Y-119665921D01*
X190135220Y-119682383D01*
X190142532Y-119699127D01*
X190146925Y-119710446D01*
X190152931Y-119727614D01*
X190158346Y-119745118D01*
X190163171Y-119762959D01*
X190167405Y-119781136D01*
X190171048Y-119799650D01*
X190174100Y-119818501D01*
X190176561Y-119837688D01*
X190178432Y-119857212D01*
X190179712Y-119877072D01*
X190180401Y-119897269D01*
X190180533Y-119910921D01*
G37*
G36*
X189774894Y-119704584D02*
G01*
X188522808Y-120242309D01*
X188522808Y-119881612D01*
X189531042Y-119465031D01*
X189774894Y-119704584D01*
G37*
G36*
X189745976Y-118336824D02*
G01*
X189745832Y-118356072D01*
X189745402Y-118375225D01*
X189744684Y-118394284D01*
X189743680Y-118413248D01*
X189742388Y-118432117D01*
X189740810Y-118450892D01*
X189738945Y-118469572D01*
X189736792Y-118488157D01*
X189734353Y-118506648D01*
X189731627Y-118525044D01*
X189728613Y-118543345D01*
X189725313Y-118561552D01*
X189721726Y-118579664D01*
X189717851Y-118597682D01*
X189713690Y-118615605D01*
X189709242Y-118633433D01*
X189704526Y-118650982D01*
X189699661Y-118668066D01*
X189694647Y-118684687D01*
X189689482Y-118700844D01*
X189684169Y-118716536D01*
X189678705Y-118731765D01*
X189673092Y-118746530D01*
X189664392Y-118767806D01*
X189655356Y-118788039D01*
X189645982Y-118807227D01*
X189636273Y-118825371D01*
X189626226Y-118842471D01*
X189615843Y-118858527D01*
X189364957Y-118742072D01*
X189374461Y-118726274D01*
X189383628Y-118709947D01*
X189392458Y-118693090D01*
X189400952Y-118675705D01*
X189409110Y-118657791D01*
X189416930Y-118639348D01*
X189424414Y-118620376D01*
X189431562Y-118600875D01*
X189438373Y-118580845D01*
X189444847Y-118560287D01*
X189448976Y-118546287D01*
X189454773Y-118525069D01*
X189459999Y-118503912D01*
X189464656Y-118482818D01*
X189468742Y-118461785D01*
X189472258Y-118440814D01*
X189475204Y-118419905D01*
X189477579Y-118399058D01*
X189479385Y-118378272D01*
X189480620Y-118357549D01*
X189481285Y-118336887D01*
X189481412Y-118323147D01*
X189481158Y-118301124D01*
X189480395Y-118280337D01*
X189479124Y-118260787D01*
X189477345Y-118242473D01*
X189475058Y-118225396D01*
X189472262Y-118209556D01*
X189467743Y-118190358D01*
X189462321Y-118173359D01*
X189455995Y-118158558D01*
X189452494Y-118151981D01*
X189442800Y-118137458D01*
X189432038Y-118125397D01*
X189417713Y-118114173D01*
X189401850Y-118106493D01*
X189384448Y-118102357D01*
X189371991Y-118101570D01*
X189354384Y-118103458D01*
X189338834Y-118109124D01*
X189325340Y-118118568D01*
X189313904Y-118131789D01*
X189308293Y-118141039D01*
X189300590Y-118156601D01*
X189293601Y-118173975D01*
X189288323Y-118189840D01*
X189283542Y-118206963D01*
X189279256Y-118225347D01*
X189276185Y-118240960D01*
X189275466Y-118244989D01*
X189272639Y-118261402D01*
X189269824Y-118278206D01*
X189267022Y-118295401D01*
X189264231Y-118312986D01*
X189261453Y-118330963D01*
X189258687Y-118349330D01*
X189255933Y-118368087D01*
X189253191Y-118387236D01*
X189250242Y-118406598D01*
X189247061Y-118425997D01*
X189243648Y-118445433D01*
X189240002Y-118464905D01*
X189236125Y-118484414D01*
X189232016Y-118503960D01*
X189227674Y-118523542D01*
X189223101Y-118543161D01*
X189218020Y-118562493D01*
X189212354Y-118581409D01*
X189206101Y-118599911D01*
X189199263Y-118617997D01*
X189191838Y-118635668D01*
X189183826Y-118652923D01*
X189175229Y-118669764D01*
X189166046Y-118686189D01*
X189156056Y-118702010D01*
X189145236Y-118717037D01*
X189133586Y-118731270D01*
X189121105Y-118744710D01*
X189107794Y-118757356D01*
X189093652Y-118769207D01*
X189078680Y-118780266D01*
X189062877Y-118790530D01*
X189045976Y-118799689D01*
X189027902Y-118807627D01*
X189008655Y-118814344D01*
X188993451Y-118818580D01*
X188977588Y-118822129D01*
X188961065Y-118824991D01*
X188943882Y-118827166D01*
X188926040Y-118828655D01*
X188907539Y-118829456D01*
X188894838Y-118829609D01*
X188873610Y-118829028D01*
X188852862Y-118827287D01*
X188832595Y-118824385D01*
X188812809Y-118820321D01*
X188793504Y-118815097D01*
X188774680Y-118808712D01*
X188756337Y-118801166D01*
X188738474Y-118792459D01*
X188721092Y-118782592D01*
X188704191Y-118771563D01*
X188693191Y-118763565D01*
X188677105Y-118750660D01*
X188661670Y-118736711D01*
X188646889Y-118721717D01*
X188632760Y-118705680D01*
X188619283Y-118688598D01*
X188606459Y-118670472D01*
X188594288Y-118651302D01*
X188582769Y-118631088D01*
X188575453Y-118617032D01*
X188568426Y-118602512D01*
X188561690Y-118587527D01*
X188555243Y-118572079D01*
X188549139Y-118556206D01*
X188543428Y-118539949D01*
X188538111Y-118523307D01*
X188533188Y-118506280D01*
X188528659Y-118488869D01*
X188524523Y-118471072D01*
X188520782Y-118452892D01*
X188517434Y-118434326D01*
X188514480Y-118415376D01*
X188511920Y-118396041D01*
X188509754Y-118376321D01*
X188507982Y-118356217D01*
X188506604Y-118335728D01*
X188505619Y-118314855D01*
X188505028Y-118293596D01*
X188504831Y-118271953D01*
X188505068Y-118248765D01*
X188505779Y-118225508D01*
X188506964Y-118202182D01*
X188508623Y-118178787D01*
X188509992Y-118163152D01*
X188511572Y-118147487D01*
X188513363Y-118131792D01*
X188515364Y-118116065D01*
X188517576Y-118100309D01*
X188519999Y-118084521D01*
X188522632Y-118068704D01*
X188525476Y-118052855D01*
X188528531Y-118036977D01*
X188531796Y-118021067D01*
X188535262Y-118005260D01*
X188538922Y-117989786D01*
X188544771Y-117967198D01*
X188551053Y-117945360D01*
X188557768Y-117924270D01*
X188564915Y-117903928D01*
X188572495Y-117884336D01*
X188580508Y-117865492D01*
X188588954Y-117847397D01*
X188597833Y-117830051D01*
X188607144Y-117813454D01*
X188610344Y-117808087D01*
X188858886Y-117924542D01*
X188849502Y-117940962D01*
X188840696Y-117957396D01*
X188832466Y-117973844D01*
X188824814Y-117990305D01*
X188817738Y-118006780D01*
X188811240Y-118023268D01*
X188805319Y-118039771D01*
X188799974Y-118056287D01*
X188795207Y-118072817D01*
X188791017Y-118089361D01*
X188788544Y-118100397D01*
X188785122Y-118116912D01*
X188782036Y-118133338D01*
X188779287Y-118149674D01*
X188776875Y-118165922D01*
X188774799Y-118182079D01*
X188773060Y-118198148D01*
X188771658Y-118214127D01*
X188770592Y-118230017D01*
X188769863Y-118245818D01*
X188769470Y-118261529D01*
X188769395Y-118271953D01*
X188769670Y-118293239D01*
X188770494Y-118313426D01*
X188771868Y-118332513D01*
X188773792Y-118350502D01*
X188776265Y-118367391D01*
X188779287Y-118383182D01*
X188784172Y-118402526D01*
X188790034Y-118419916D01*
X188796872Y-118435352D01*
X188800658Y-118442337D01*
X188810867Y-118457761D01*
X188821953Y-118470570D01*
X188833917Y-118480765D01*
X188849433Y-118489549D01*
X188866212Y-118494568D01*
X188881161Y-118495875D01*
X188897230Y-118494501D01*
X188913999Y-118489426D01*
X188928635Y-118480610D01*
X188941140Y-118468054D01*
X188948767Y-118456796D01*
X188956804Y-118441102D01*
X188963019Y-118426660D01*
X188968795Y-118410976D01*
X188974132Y-118394053D01*
X188979030Y-118375889D01*
X188982633Y-118360466D01*
X188984329Y-118352456D01*
X188987602Y-118336043D01*
X188990777Y-118319239D01*
X188993854Y-118302044D01*
X188996834Y-118284459D01*
X188999716Y-118266482D01*
X189002501Y-118248115D01*
X189005187Y-118229357D01*
X189007776Y-118210209D01*
X189010475Y-118190853D01*
X189013491Y-118171472D01*
X189016825Y-118152067D01*
X189020477Y-118132637D01*
X189024446Y-118113183D01*
X189028732Y-118093705D01*
X189033336Y-118074202D01*
X189038258Y-118054675D01*
X189043509Y-118035270D01*
X189049297Y-118016329D01*
X189055623Y-117997852D01*
X189062487Y-117979839D01*
X189069887Y-117962290D01*
X189077825Y-117945205D01*
X189086300Y-117928585D01*
X189095313Y-117912428D01*
X189104924Y-117896778D01*
X189115390Y-117881873D01*
X189126710Y-117867713D01*
X189138886Y-117854298D01*
X189151916Y-117841628D01*
X189165801Y-117829703D01*
X189180541Y-117818523D01*
X189196136Y-117808087D01*
X189212678Y-117798654D01*
X189230452Y-117790478D01*
X189249461Y-117783559D01*
X189264526Y-117779196D01*
X189280286Y-117775541D01*
X189296739Y-117772592D01*
X189313886Y-117770352D01*
X189331727Y-117768819D01*
X189350261Y-117767993D01*
X189363003Y-117767836D01*
X189383736Y-117768427D01*
X189404022Y-117770199D01*
X189423862Y-117773153D01*
X189443255Y-117777288D01*
X189462202Y-117782605D01*
X189480702Y-117789104D01*
X189498756Y-117796784D01*
X189516363Y-117805645D01*
X189533524Y-117815688D01*
X189550238Y-117826912D01*
X189561133Y-117835052D01*
X189577000Y-117848177D01*
X189592214Y-117862346D01*
X189606776Y-117877559D01*
X189620685Y-117893817D01*
X189633942Y-117911118D01*
X189646546Y-117929464D01*
X189658498Y-117948854D01*
X189669796Y-117969288D01*
X189676966Y-117983490D01*
X189683846Y-117998157D01*
X189690436Y-118013288D01*
X189696736Y-118028883D01*
X189702699Y-118044924D01*
X189708277Y-118061392D01*
X189713470Y-118078287D01*
X189718279Y-118095610D01*
X189722702Y-118113360D01*
X189726742Y-118131538D01*
X189730396Y-118150143D01*
X189733666Y-118169176D01*
X189736551Y-118188636D01*
X189739051Y-118208524D01*
X189741167Y-118228838D01*
X189742898Y-118249581D01*
X189744245Y-118270751D01*
X189745206Y-118292348D01*
X189745783Y-118314372D01*
X189745976Y-118336824D01*
G37*
G36*
X189745976Y-117059727D02*
G01*
X189745551Y-117085982D01*
X189744278Y-117111501D01*
X189742156Y-117136284D01*
X189739186Y-117160331D01*
X189735366Y-117183642D01*
X189730698Y-117206218D01*
X189725182Y-117228058D01*
X189718816Y-117249162D01*
X189711602Y-117269530D01*
X189703539Y-117289163D01*
X189694627Y-117308060D01*
X189684866Y-117326221D01*
X189674257Y-117343646D01*
X189662799Y-117360335D01*
X189650492Y-117376289D01*
X189637337Y-117391507D01*
X189623341Y-117405845D01*
X189608516Y-117419259D01*
X189592860Y-117431747D01*
X189576374Y-117443311D01*
X189559057Y-117453949D01*
X189540909Y-117463662D01*
X189521932Y-117472450D01*
X189502124Y-117480314D01*
X189481485Y-117487252D01*
X189460016Y-117493265D01*
X189437717Y-117498352D01*
X189414587Y-117502515D01*
X189390627Y-117505753D01*
X189365836Y-117508066D01*
X189340215Y-117509453D01*
X189313764Y-117509916D01*
X188256290Y-117509916D01*
X188256290Y-117160551D01*
X189309074Y-117160551D01*
X189327582Y-117159922D01*
X189345002Y-117158035D01*
X189361336Y-117154890D01*
X189376583Y-117150488D01*
X189394113Y-117143216D01*
X189409945Y-117133979D01*
X189424079Y-117122776D01*
X189426702Y-117120300D01*
X189438635Y-117107006D01*
X189448546Y-117092280D01*
X189456434Y-117076124D01*
X189462300Y-117058537D01*
X189466143Y-117039518D01*
X189467761Y-117023273D01*
X189468125Y-117010488D01*
X189467423Y-116990161D01*
X189465316Y-116970603D01*
X189461805Y-116951815D01*
X189456890Y-116933796D01*
X189450570Y-116916546D01*
X189442846Y-116900066D01*
X189433717Y-116884355D01*
X189423184Y-116869413D01*
X189669772Y-116775233D01*
X189678956Y-116789045D01*
X189687553Y-116803517D01*
X189695564Y-116818647D01*
X189702989Y-116834438D01*
X189709828Y-116850887D01*
X189716080Y-116867997D01*
X189721747Y-116885765D01*
X189726827Y-116904193D01*
X189731315Y-116923037D01*
X189735205Y-116942051D01*
X189738496Y-116961236D01*
X189741189Y-116980593D01*
X189743283Y-117000120D01*
X189744779Y-117019818D01*
X189745677Y-117039687D01*
X189745976Y-117059727D01*
G37*
G36*
X188818635Y-117695931D02*
G01*
X188549772Y-117695931D01*
X188549772Y-116860425D01*
X188818635Y-116860425D01*
X188818635Y-117695931D01*
G37*
G36*
X189745976Y-116018276D02*
G01*
X189745661Y-116043824D01*
X189744718Y-116068981D01*
X189743146Y-116093747D01*
X189740944Y-116118122D01*
X189738114Y-116142107D01*
X189734655Y-116165701D01*
X189730567Y-116188904D01*
X189725850Y-116211716D01*
X189720504Y-116234138D01*
X189714530Y-116256168D01*
X189707926Y-116277808D01*
X189700693Y-116299057D01*
X189692832Y-116319916D01*
X189684341Y-116340383D01*
X189675222Y-116360460D01*
X189665473Y-116380146D01*
X189655131Y-116399313D01*
X189644328Y-116417930D01*
X189633064Y-116435998D01*
X189621339Y-116453517D01*
X189609152Y-116470485D01*
X189596505Y-116486905D01*
X189583397Y-116502774D01*
X189569828Y-116518094D01*
X189555798Y-116532865D01*
X189541306Y-116547086D01*
X189526354Y-116560758D01*
X189510941Y-116573879D01*
X189495067Y-116586452D01*
X189478731Y-116598475D01*
X189461935Y-116609948D01*
X189444678Y-116620872D01*
X189427036Y-116631188D01*
X189409086Y-116640839D01*
X189390827Y-116649824D01*
X189372260Y-116658143D01*
X189353384Y-116665797D01*
X189334201Y-116672786D01*
X189314709Y-116679108D01*
X189294908Y-116684766D01*
X189274799Y-116689757D01*
X189254382Y-116694084D01*
X189233657Y-116697744D01*
X189212623Y-116700739D01*
X189191280Y-116703069D01*
X189169630Y-116704733D01*
X189147671Y-116705731D01*
X189125404Y-116706064D01*
X189102900Y-116705735D01*
X189080719Y-116704751D01*
X189058863Y-116703110D01*
X189037330Y-116700812D01*
X189016120Y-116697859D01*
X188995234Y-116694248D01*
X188974672Y-116689982D01*
X188954434Y-116685059D01*
X188934519Y-116679479D01*
X188914927Y-116673244D01*
X188895660Y-116666351D01*
X188876715Y-116658803D01*
X188858095Y-116650598D01*
X188839798Y-116641736D01*
X188821825Y-116632218D01*
X188804175Y-116622044D01*
X188786877Y-116611302D01*
X188770055Y-116600081D01*
X188753709Y-116588380D01*
X188737839Y-116576200D01*
X188722446Y-116563540D01*
X188707528Y-116550402D01*
X188693088Y-116536784D01*
X188679123Y-116522686D01*
X188665635Y-116508109D01*
X188652623Y-116493053D01*
X188640087Y-116477518D01*
X188628027Y-116461503D01*
X188616444Y-116445009D01*
X188605337Y-116428036D01*
X188594707Y-116410583D01*
X188584552Y-116392651D01*
X188574898Y-116374281D01*
X188565868Y-116355612D01*
X188557460Y-116336643D01*
X188549674Y-116317376D01*
X188542512Y-116297809D01*
X188535972Y-116277943D01*
X188530056Y-116257777D01*
X188524762Y-116237313D01*
X188520090Y-116216549D01*
X188516042Y-116195486D01*
X188512617Y-116174124D01*
X188509814Y-116152463D01*
X188507634Y-116130502D01*
X188506077Y-116108243D01*
X188505143Y-116085684D01*
X188504831Y-116062826D01*
X188505124Y-116040881D01*
X188506004Y-116019204D01*
X188507469Y-115997796D01*
X188509521Y-115976657D01*
X188512159Y-115955786D01*
X188515383Y-115935184D01*
X188519193Y-115914851D01*
X188523589Y-115894787D01*
X188528572Y-115874991D01*
X188534140Y-115855464D01*
X188540295Y-115836205D01*
X188547036Y-115817215D01*
X188554364Y-115798494D01*
X188562277Y-115780041D01*
X188570777Y-115761857D01*
X188579863Y-115743942D01*
X188589497Y-115726393D01*
X188599640Y-115709309D01*
X188610294Y-115692688D01*
X188621457Y-115676531D01*
X188633131Y-115660839D01*
X188645314Y-115645610D01*
X188658007Y-115630846D01*
X188671210Y-115616545D01*
X188684922Y-115602709D01*
X188699145Y-115589337D01*
X188713877Y-115576428D01*
X188729120Y-115563984D01*
X188744872Y-115552004D01*
X188761134Y-115540488D01*
X188777906Y-115529436D01*
X188795187Y-115518848D01*
X188812890Y-115508816D01*
X188831024Y-115499431D01*
X188849588Y-115490693D01*
X188868582Y-115482602D01*
X188888007Y-115475159D01*
X188907863Y-115468363D01*
X188928148Y-115462214D01*
X188948865Y-115456713D01*
X188970012Y-115451858D01*
X188991589Y-115447651D01*
X189013597Y-115444091D01*
X189036035Y-115441179D01*
X189058904Y-115438913D01*
X189082203Y-115437295D01*
X189105933Y-115436325D01*
X189130093Y-115436001D01*
X189145865Y-115436331D01*
X189161771Y-115437212D01*
X189175815Y-115438346D01*
X189191592Y-115439605D01*
X189208153Y-115441078D01*
X189223882Y-115442644D01*
X189223882Y-116421570D01*
X189020281Y-116421570D01*
X189020281Y-115626315D01*
X189080463Y-115760746D01*
X189063090Y-115761083D01*
X189046144Y-115762093D01*
X189029623Y-115763776D01*
X189013528Y-115766132D01*
X188997859Y-115769161D01*
X188982616Y-115772864D01*
X188962955Y-115778848D01*
X188944050Y-115786028D01*
X188925903Y-115794406D01*
X188917113Y-115799043D01*
X188900199Y-115808978D01*
X188884238Y-115819829D01*
X188869229Y-115831595D01*
X188855173Y-115844277D01*
X188842070Y-115857875D01*
X188829919Y-115872390D01*
X188818720Y-115887820D01*
X188808474Y-115904166D01*
X188799315Y-115921232D01*
X188791377Y-115939019D01*
X188784660Y-115957527D01*
X188779165Y-115976755D01*
X188774891Y-115996703D01*
X188771838Y-116017372D01*
X188770349Y-116033347D01*
X188769548Y-116049727D01*
X188769395Y-116060872D01*
X188769739Y-116077466D01*
X188770769Y-116093689D01*
X188772486Y-116109541D01*
X188774891Y-116125022D01*
X188779165Y-116145087D01*
X188784660Y-116164492D01*
X188791377Y-116183237D01*
X188799315Y-116201324D01*
X188808474Y-116218750D01*
X188818738Y-116235377D01*
X188829992Y-116251064D01*
X188842234Y-116265810D01*
X188855466Y-116279616D01*
X188869687Y-116292481D01*
X188884898Y-116304406D01*
X188901097Y-116315391D01*
X188918286Y-116325436D01*
X188936280Y-116334320D01*
X188955093Y-116342020D01*
X188974724Y-116348535D01*
X188989984Y-116352644D01*
X189005705Y-116356087D01*
X189021885Y-116358863D01*
X189038526Y-116360973D01*
X189055628Y-116362417D01*
X189073189Y-116363194D01*
X189085152Y-116363342D01*
X189138690Y-116363342D01*
X189157019Y-116362957D01*
X189174928Y-116361803D01*
X189192419Y-116359880D01*
X189209490Y-116357187D01*
X189226143Y-116353725D01*
X189242376Y-116349494D01*
X189258190Y-116344493D01*
X189273586Y-116338722D01*
X189288562Y-116332183D01*
X189303119Y-116324874D01*
X189312591Y-116319574D01*
X189326344Y-116311055D01*
X189339464Y-116301910D01*
X189351953Y-116292141D01*
X189363809Y-116281747D01*
X189375033Y-116270727D01*
X189385626Y-116259082D01*
X189395587Y-116246813D01*
X189404915Y-116233918D01*
X189413612Y-116220398D01*
X189421676Y-116206253D01*
X189426702Y-116196475D01*
X189433685Y-116181284D01*
X189439982Y-116165605D01*
X189445592Y-116149438D01*
X189450515Y-116132783D01*
X189454751Y-116115641D01*
X189458300Y-116098010D01*
X189461163Y-116079893D01*
X189463338Y-116061287D01*
X189464826Y-116042194D01*
X189465628Y-116022613D01*
X189465780Y-116009288D01*
X189465526Y-115991399D01*
X189464764Y-115973929D01*
X189463493Y-115956878D01*
X189461714Y-115940246D01*
X189459426Y-115924034D01*
X189456630Y-115908240D01*
X189453326Y-115892865D01*
X189448130Y-115873017D01*
X189442030Y-115853915D01*
X189436862Y-115840076D01*
X189429083Y-115822094D01*
X189420400Y-115804490D01*
X189410814Y-115787265D01*
X189400323Y-115770418D01*
X189388929Y-115753950D01*
X189376632Y-115737861D01*
X189363430Y-115722150D01*
X189349325Y-115706817D01*
X189550972Y-115520802D01*
X189562574Y-115531324D01*
X189573833Y-115542179D01*
X189584751Y-115553367D01*
X189595327Y-115564888D01*
X189605561Y-115576741D01*
X189615452Y-115588927D01*
X189625002Y-115601446D01*
X189634210Y-115614298D01*
X189643076Y-115627483D01*
X189651600Y-115641000D01*
X189659782Y-115654850D01*
X189667623Y-115669033D01*
X189675121Y-115683549D01*
X189682277Y-115698397D01*
X189689092Y-115713578D01*
X189695564Y-115729092D01*
X189701669Y-115744922D01*
X189707379Y-115761051D01*
X189712696Y-115777480D01*
X189717619Y-115794207D01*
X189722148Y-115811234D01*
X189726284Y-115828560D01*
X189730025Y-115846185D01*
X189733373Y-115864110D01*
X189736327Y-115882333D01*
X189738887Y-115900856D01*
X189741053Y-115919678D01*
X189742825Y-115938799D01*
X189744203Y-115958220D01*
X189745188Y-115977939D01*
X189745779Y-115997958D01*
X189745976Y-116018276D01*
G37*
G36*
X188504831Y-113659867D02*
G01*
X188505056Y-113642068D01*
X188505729Y-113624525D01*
X188506851Y-113607239D01*
X188508422Y-113590209D01*
X188510441Y-113573435D01*
X188512910Y-113556919D01*
X188515827Y-113540658D01*
X188519193Y-113524654D01*
X188523008Y-113508907D01*
X188527271Y-113493415D01*
X188531983Y-113478181D01*
X188537145Y-113463203D01*
X188542755Y-113448481D01*
X188548813Y-113434016D01*
X188558743Y-113412798D01*
X188562277Y-113405854D01*
X188573507Y-113385460D01*
X188585802Y-113365898D01*
X188599162Y-113347166D01*
X188613587Y-113329266D01*
X188629076Y-113312197D01*
X188645630Y-113295959D01*
X188663248Y-113280552D01*
X188675586Y-113270743D01*
X188688396Y-113261303D01*
X188701680Y-113252232D01*
X188715437Y-113243531D01*
X188729667Y-113235199D01*
X188736960Y-113231172D01*
X188751921Y-113223411D01*
X188767398Y-113216151D01*
X188783392Y-113209392D01*
X188799901Y-113203133D01*
X188816926Y-113197375D01*
X188834468Y-113192117D01*
X188852525Y-113187361D01*
X188871098Y-113183105D01*
X188890187Y-113179350D01*
X188909792Y-113176095D01*
X188929913Y-113173341D01*
X188950550Y-113171088D01*
X188971703Y-113169336D01*
X188993372Y-113168084D01*
X189015557Y-113167333D01*
X189038258Y-113167083D01*
X189728000Y-113167083D01*
X189728000Y-113516448D01*
X189091796Y-113516448D01*
X189073920Y-113516684D01*
X189056637Y-113517394D01*
X189039946Y-113518577D01*
X189023847Y-113520233D01*
X189008341Y-113522363D01*
X188986192Y-113526444D01*
X188965376Y-113531591D01*
X188945892Y-113537802D01*
X188927741Y-113545077D01*
X188910922Y-113553418D01*
X188895437Y-113562823D01*
X188881284Y-113573293D01*
X188876862Y-113577020D01*
X188864431Y-113588806D01*
X188853222Y-113601452D01*
X188843237Y-113614956D01*
X188834474Y-113629318D01*
X188826933Y-113644540D01*
X188820616Y-113660619D01*
X188815521Y-113677558D01*
X188811649Y-113695355D01*
X188809000Y-113714011D01*
X188807573Y-113733526D01*
X188807302Y-113747013D01*
X188807845Y-113765819D01*
X188809475Y-113784138D01*
X188812193Y-113801967D01*
X188815997Y-113819309D01*
X188820888Y-113836161D01*
X188826866Y-113852526D01*
X188833930Y-113868401D01*
X188842082Y-113883789D01*
X188851320Y-113898510D01*
X188861646Y-113912390D01*
X188873058Y-113925426D01*
X188885557Y-113937620D01*
X188899143Y-113948971D01*
X188913816Y-113959480D01*
X188929576Y-113969146D01*
X188946422Y-113977969D01*
X188964313Y-113985846D01*
X188983401Y-113992672D01*
X188998502Y-113997103D01*
X189014276Y-114000943D01*
X189030724Y-114004192D01*
X189047844Y-114006851D01*
X189065638Y-114008918D01*
X189084105Y-114010395D01*
X189103245Y-114011281D01*
X189123059Y-114011577D01*
X189728000Y-114011577D01*
X189728000Y-114360942D01*
X189091796Y-114360942D01*
X189073920Y-114361174D01*
X189056637Y-114361870D01*
X189039946Y-114363030D01*
X189023847Y-114364654D01*
X189008341Y-114366742D01*
X188986192Y-114370745D01*
X188965376Y-114375792D01*
X188945892Y-114381882D01*
X188927741Y-114389017D01*
X188910922Y-114397196D01*
X188895437Y-114406420D01*
X188881284Y-114416687D01*
X188876862Y-114420341D01*
X188864431Y-114431922D01*
X188853222Y-114444389D01*
X188843237Y-114457742D01*
X188834474Y-114471980D01*
X188826933Y-114487106D01*
X188820616Y-114503117D01*
X188815521Y-114520014D01*
X188811649Y-114537798D01*
X188809000Y-114556468D01*
X188807573Y-114576023D01*
X188807302Y-114589553D01*
X188807845Y-114608360D01*
X188809475Y-114626678D01*
X188812193Y-114644508D01*
X188815997Y-114661849D01*
X188820888Y-114678702D01*
X188826866Y-114695066D01*
X188833930Y-114710942D01*
X188842082Y-114726329D01*
X188851320Y-114740959D01*
X188861646Y-114754759D01*
X188873058Y-114767728D01*
X188885557Y-114779867D01*
X188899143Y-114791175D01*
X188913816Y-114801653D01*
X188929576Y-114811301D01*
X188946422Y-114820118D01*
X188964313Y-114827995D01*
X188983401Y-114834822D01*
X188998502Y-114839252D01*
X189014276Y-114843092D01*
X189030724Y-114846341D01*
X189047844Y-114849000D01*
X189065638Y-114851068D01*
X189084105Y-114852544D01*
X189103245Y-114853431D01*
X189123059Y-114853726D01*
X189728000Y-114853726D01*
X189728000Y-115203091D01*
X188522808Y-115203091D01*
X188522808Y-114869357D01*
X188852242Y-114869357D01*
X188755718Y-114932274D01*
X188740562Y-114924205D01*
X188725871Y-114915727D01*
X188711644Y-114906840D01*
X188697881Y-114897543D01*
X188684582Y-114887838D01*
X188671747Y-114877723D01*
X188659376Y-114867199D01*
X188647469Y-114856266D01*
X188636026Y-114844924D01*
X188625048Y-114833173D01*
X188614533Y-114821013D01*
X188604482Y-114808443D01*
X188594896Y-114795465D01*
X188585773Y-114782077D01*
X188577115Y-114768281D01*
X188568921Y-114754075D01*
X188561160Y-114739538D01*
X188553900Y-114724747D01*
X188547140Y-114709704D01*
X188540882Y-114694406D01*
X188535124Y-114678856D01*
X188529866Y-114663052D01*
X188525110Y-114646994D01*
X188520854Y-114630683D01*
X188517098Y-114614119D01*
X188513844Y-114597301D01*
X188511090Y-114580230D01*
X188508837Y-114562906D01*
X188507084Y-114545328D01*
X188505833Y-114527497D01*
X188505082Y-114509412D01*
X188504831Y-114491074D01*
X188505160Y-114470477D01*
X188506144Y-114450206D01*
X188507785Y-114430262D01*
X188510083Y-114410645D01*
X188513036Y-114391354D01*
X188516647Y-114372390D01*
X188520913Y-114353753D01*
X188525836Y-114335443D01*
X188531416Y-114317459D01*
X188537651Y-114299801D01*
X188544544Y-114282471D01*
X188552092Y-114265467D01*
X188560297Y-114248790D01*
X188569159Y-114232439D01*
X188578677Y-114216415D01*
X188588851Y-114200718D01*
X188599700Y-114185513D01*
X188611242Y-114170963D01*
X188623477Y-114157071D01*
X188636405Y-114143834D01*
X188650026Y-114131254D01*
X188664340Y-114119330D01*
X188679347Y-114108063D01*
X188695048Y-114097452D01*
X188711441Y-114087498D01*
X188728527Y-114078200D01*
X188746307Y-114069558D01*
X188764779Y-114061573D01*
X188783944Y-114054244D01*
X188803803Y-114047572D01*
X188824354Y-114041556D01*
X188845599Y-114036196D01*
X188811991Y-114159295D01*
X188794537Y-114151439D01*
X188777541Y-114143016D01*
X188761002Y-114134025D01*
X188744922Y-114124466D01*
X188729300Y-114114339D01*
X188714135Y-114103644D01*
X188699429Y-114092381D01*
X188685180Y-114080551D01*
X188671390Y-114068152D01*
X188658057Y-114055186D01*
X188645182Y-114041652D01*
X188632766Y-114027550D01*
X188620807Y-114012880D01*
X188609306Y-113997643D01*
X188598263Y-113981837D01*
X188587678Y-113965464D01*
X188577646Y-113948654D01*
X188568261Y-113931538D01*
X188559523Y-113914118D01*
X188551433Y-113896392D01*
X188543990Y-113878360D01*
X188537193Y-113860024D01*
X188531045Y-113841382D01*
X188525543Y-113822435D01*
X188520689Y-113803183D01*
X188516482Y-113783625D01*
X188512922Y-113763762D01*
X188510009Y-113743593D01*
X188507744Y-113723120D01*
X188506126Y-113702341D01*
X188505155Y-113681256D01*
X188504831Y-113659867D01*
G37*
%TO.C,G\u002A\u002A\u002A*%
G36*
X123514673Y-130457101D02*
G01*
X123690247Y-130457257D01*
X123845060Y-130457533D01*
X123980213Y-130457942D01*
X124096808Y-130458498D01*
X124195949Y-130459215D01*
X124278736Y-130460105D01*
X124346271Y-130461183D01*
X124399658Y-130462462D01*
X124439996Y-130463955D01*
X124468390Y-130465675D01*
X124485940Y-130467637D01*
X124493749Y-130469853D01*
X124494147Y-130471406D01*
X124485884Y-130482788D01*
X124465326Y-130511465D01*
X124433486Y-130556015D01*
X124391378Y-130615015D01*
X124340015Y-130687043D01*
X124280412Y-130770678D01*
X124213581Y-130864498D01*
X124140536Y-130967080D01*
X124062291Y-131077003D01*
X123979859Y-131192845D01*
X123939648Y-131249367D01*
X123860831Y-131360153D01*
X123770264Y-131487436D01*
X123669521Y-131629008D01*
X123560173Y-131782658D01*
X123443794Y-131946178D01*
X123321957Y-132117358D01*
X123196232Y-132293989D01*
X123068194Y-132473861D01*
X122939415Y-132654765D01*
X122811467Y-132834492D01*
X122685924Y-133010832D01*
X122564356Y-133181577D01*
X122519917Y-133243990D01*
X122412966Y-133394265D01*
X122309756Y-133539415D01*
X122211067Y-133678341D01*
X122117677Y-133809939D01*
X122030364Y-133933108D01*
X121949908Y-134046747D01*
X121877087Y-134149753D01*
X121812678Y-134241027D01*
X121757462Y-134319465D01*
X121712216Y-134383966D01*
X121677719Y-134433430D01*
X121654749Y-134466753D01*
X121644085Y-134482835D01*
X121643399Y-134484162D01*
X121654629Y-134485421D01*
X121687308Y-134486626D01*
X121739920Y-134487763D01*
X121810947Y-134488822D01*
X121898873Y-134489792D01*
X122002182Y-134490661D01*
X122119357Y-134491416D01*
X122248881Y-134492048D01*
X122389237Y-134492544D01*
X122538910Y-134492893D01*
X122696382Y-134493083D01*
X122823259Y-134493114D01*
X124003119Y-134492908D01*
X124043762Y-134550500D01*
X124071628Y-134590051D01*
X124105285Y-134637912D01*
X124136752Y-134682731D01*
X124155328Y-134709135D01*
X124185325Y-134751670D01*
X124224895Y-134807722D01*
X124272192Y-134874676D01*
X124325368Y-134949918D01*
X124382577Y-135030832D01*
X124441972Y-135114805D01*
X124444995Y-135119078D01*
X124504240Y-135202834D01*
X124561212Y-135283403D01*
X124614099Y-135358218D01*
X124661086Y-135424714D01*
X124700362Y-135480325D01*
X124730112Y-135522484D01*
X124748524Y-135548626D01*
X124749267Y-135549684D01*
X124790225Y-135607949D01*
X124838468Y-135676466D01*
X124892414Y-135752995D01*
X124950476Y-135835293D01*
X125011070Y-135921121D01*
X125072612Y-136008236D01*
X125133517Y-136094399D01*
X125192200Y-136177367D01*
X125247077Y-136254899D01*
X125296563Y-136324755D01*
X125339074Y-136384693D01*
X125373024Y-136432473D01*
X125396830Y-136465852D01*
X125408603Y-136482180D01*
X125428702Y-136510546D01*
X125441615Y-136530870D01*
X125444213Y-136536723D01*
X125432982Y-136537575D01*
X125400299Y-136538383D01*
X125347676Y-136539142D01*
X125276626Y-136539843D01*
X125188662Y-136540479D01*
X125085298Y-136541044D01*
X124968045Y-136541529D01*
X124838417Y-136541926D01*
X124697928Y-136542230D01*
X124548089Y-136542432D01*
X124390414Y-136542525D01*
X124258612Y-136542515D01*
X123073010Y-136542083D01*
X122350016Y-135517632D01*
X121627022Y-134493181D01*
X120446596Y-134493264D01*
X120252873Y-134493241D01*
X120080904Y-134493131D01*
X119929475Y-134492917D01*
X119797374Y-134492585D01*
X119683387Y-134492117D01*
X119586303Y-134491497D01*
X119504909Y-134490710D01*
X119437991Y-134489738D01*
X119384338Y-134488566D01*
X119342737Y-134487177D01*
X119311975Y-134485555D01*
X119290839Y-134483684D01*
X119278117Y-134481548D01*
X119272597Y-134479130D01*
X119272237Y-134477536D01*
X119279387Y-134466792D01*
X119299249Y-134438208D01*
X119331210Y-134392650D01*
X119374656Y-134330981D01*
X119428975Y-134254067D01*
X119493552Y-134162772D01*
X119567775Y-134057962D01*
X119651030Y-133940500D01*
X119742704Y-133811251D01*
X119842184Y-133671081D01*
X119948855Y-133520854D01*
X120062106Y-133361434D01*
X120181321Y-133193687D01*
X120305889Y-133018477D01*
X120435196Y-132836668D01*
X120568629Y-132649127D01*
X120703671Y-132459388D01*
X122129038Y-130457053D01*
X123317236Y-130457053D01*
X123514673Y-130457101D01*
G37*
G36*
X129231138Y-130494372D02*
G01*
X129220390Y-130509158D01*
X129197037Y-130541673D01*
X129161782Y-130590929D01*
X129115330Y-130655938D01*
X129058382Y-130735712D01*
X128991644Y-130829263D01*
X128915818Y-130935603D01*
X128831608Y-131053744D01*
X128739717Y-131182700D01*
X128640849Y-131321481D01*
X128535707Y-131469100D01*
X128424994Y-131624568D01*
X128309415Y-131786900D01*
X128189673Y-131955105D01*
X128066471Y-132128197D01*
X127940513Y-132305188D01*
X127812501Y-132485089D01*
X127683140Y-132666913D01*
X127553134Y-132849673D01*
X127423184Y-133032379D01*
X127293996Y-133214045D01*
X127166272Y-133393683D01*
X127058041Y-133545931D01*
X126966448Y-133674706D01*
X126878323Y-133798453D01*
X126794613Y-133915850D01*
X126716265Y-134025575D01*
X126644227Y-134126306D01*
X126579446Y-134216723D01*
X126522869Y-134295502D01*
X126475443Y-134361323D01*
X126438117Y-134412863D01*
X126411838Y-134448801D01*
X126397552Y-134467814D01*
X126395506Y-134470285D01*
X126391615Y-134473993D01*
X126386510Y-134477278D01*
X126378857Y-134480167D01*
X126367324Y-134482685D01*
X126350574Y-134484857D01*
X126327274Y-134486709D01*
X126296090Y-134488266D01*
X126255688Y-134489554D01*
X126204733Y-134490600D01*
X126141891Y-134491427D01*
X126065828Y-134492063D01*
X125975209Y-134492532D01*
X125868701Y-134492860D01*
X125744969Y-134493073D01*
X125602679Y-134493196D01*
X125440497Y-134493255D01*
X125257088Y-134493276D01*
X125197027Y-134493278D01*
X125034761Y-134493202D01*
X124879117Y-134492971D01*
X124731614Y-134492595D01*
X124593770Y-134492085D01*
X124467104Y-134491451D01*
X124353135Y-134490706D01*
X124253381Y-134489861D01*
X124169362Y-134488925D01*
X124102595Y-134487909D01*
X124054600Y-134486826D01*
X124026895Y-134485686D01*
X124020343Y-134484786D01*
X124026905Y-134474750D01*
X124046184Y-134446869D01*
X124077572Y-134402003D01*
X124120460Y-134341010D01*
X124174239Y-134264748D01*
X124238300Y-134174078D01*
X124312034Y-134069858D01*
X124394833Y-133952947D01*
X124486088Y-133824203D01*
X124585189Y-133684487D01*
X124691529Y-133534656D01*
X124804497Y-133375570D01*
X124923486Y-133208087D01*
X125047887Y-133033067D01*
X125177090Y-132851369D01*
X125310487Y-132663851D01*
X125447469Y-132471372D01*
X125450829Y-132466652D01*
X126881315Y-130457053D01*
X128070275Y-130457053D01*
X129259235Y-130457053D01*
X129231138Y-130494372D01*
G37*
D12*
%TO.C,R2*%
X134390000Y-129540000D02*
X135160000Y-129540000D01*
X135160000Y-128170000D02*
X135160000Y-130910000D01*
X135160000Y-130910000D02*
X141700000Y-130910000D01*
X141700000Y-128170000D02*
X135160000Y-128170000D01*
X141700000Y-130910000D02*
X141700000Y-128170000D01*
X142470000Y-129540000D02*
X141700000Y-129540000D01*
%TO.C,J8*%
X144745000Y-82550000D02*
X144745000Y-100390000D01*
X144745000Y-82550000D02*
X147405000Y-82550000D01*
X144745000Y-100390000D02*
X147405000Y-100390000D01*
X146075000Y-79950000D02*
X147405000Y-79950000D01*
X147405000Y-79950000D02*
X147405000Y-81280000D01*
X147405000Y-82550000D02*
X147405000Y-100390000D01*
%TO.C,J6*%
X129480000Y-82550000D02*
X129480000Y-100390000D01*
X129480000Y-82550000D02*
X132140000Y-82550000D01*
X129480000Y-100390000D02*
X132140000Y-100390000D01*
X130810000Y-79950000D02*
X132140000Y-79950000D01*
X132140000Y-79950000D02*
X132140000Y-81280000D01*
X132140000Y-82550000D02*
X132140000Y-100390000D01*
%TO.C,J3*%
X119320000Y-107890000D02*
X120650000Y-107890000D01*
X119320000Y-109220000D02*
X119320000Y-107890000D01*
X119320000Y-110490000D02*
X119320000Y-113090000D01*
X119320000Y-110490000D02*
X121980000Y-110490000D01*
X119320000Y-113090000D02*
X121980000Y-113090000D01*
X121980000Y-110490000D02*
X121980000Y-113090000D01*
%TO.C,J14*%
X171430000Y-119320000D02*
X163750000Y-119320000D01*
X171430000Y-119320000D02*
X171430000Y-121980000D01*
X163750000Y-119320000D02*
X163750000Y-121980000D01*
X174030000Y-120650000D02*
X174030000Y-121980000D01*
X174030000Y-121980000D02*
X172700000Y-121980000D01*
X171430000Y-121980000D02*
X163750000Y-121980000D01*
%TO.C,J101*%
X187995000Y-80000000D02*
X187995000Y-72320000D01*
X187995000Y-80000000D02*
X185335000Y-80000000D01*
X187995000Y-72320000D02*
X185335000Y-72320000D01*
X186665000Y-82600000D02*
X185335000Y-82600000D01*
X185335000Y-82600000D02*
X185335000Y-81270000D01*
X185335000Y-80000000D02*
X185335000Y-72320000D01*
%TO.C,J2*%
X119320000Y-92650000D02*
X120650000Y-92650000D01*
X119320000Y-93980000D02*
X119320000Y-92650000D01*
X119320000Y-95250000D02*
X119320000Y-97850000D01*
X119320000Y-95250000D02*
X121980000Y-95250000D01*
X119320000Y-97850000D02*
X121980000Y-97850000D01*
X121980000Y-95250000D02*
X121980000Y-97850000D01*
%TO.C,J4*%
X119320000Y-120590000D02*
X120650000Y-120590000D01*
X119320000Y-121920000D02*
X119320000Y-120590000D01*
X119320000Y-123190000D02*
X119320000Y-125790000D01*
X119320000Y-123190000D02*
X121980000Y-123190000D01*
X119320000Y-125790000D02*
X121980000Y-125790000D01*
X121980000Y-123190000D02*
X121980000Y-125790000D01*
%TO.C,J7*%
X129480000Y-107950000D02*
X129480000Y-125790000D01*
X129480000Y-107950000D02*
X132140000Y-107950000D01*
X129480000Y-125790000D02*
X132140000Y-125790000D01*
X130810000Y-105350000D02*
X132140000Y-105350000D01*
X132140000Y-105350000D02*
X132140000Y-106680000D01*
X132140000Y-107950000D02*
X132140000Y-125790000D01*
%TO.C,J10*%
X187995000Y-95230000D02*
X187995000Y-87550000D01*
X187995000Y-95230000D02*
X185335000Y-95230000D01*
X187995000Y-87550000D02*
X185335000Y-87550000D01*
X186665000Y-97830000D02*
X185335000Y-97830000D01*
X185335000Y-97830000D02*
X185335000Y-96500000D01*
X185335000Y-95230000D02*
X185335000Y-87550000D01*
%TO.C,A101*%
X175380000Y-105540000D02*
X175380000Y-102870000D01*
X175380000Y-100330000D02*
X175380000Y-62100000D01*
X175380000Y-62100000D02*
X170300000Y-62100000D01*
X172710000Y-102870000D02*
X175380000Y-102870000D01*
X172710000Y-100330000D02*
X175380000Y-100330000D01*
X172710000Y-100330000D02*
X172710000Y-102870000D01*
X172710000Y-100330000D02*
X172710000Y-64770000D01*
X172710000Y-64770000D02*
X175380000Y-64770000D01*
X170300000Y-69980000D02*
X162420000Y-69980000D01*
X170300000Y-59560000D02*
X170300000Y-69980000D01*
X162420000Y-69980000D02*
X162420000Y-59560000D01*
X162420000Y-59560000D02*
X170300000Y-59560000D01*
X160010000Y-102870000D02*
X160010000Y-64770000D01*
X160010000Y-102870000D02*
X157340000Y-102870000D01*
X160010000Y-64770000D02*
X157340000Y-64770000D01*
X157340000Y-105540000D02*
X175380000Y-105540000D01*
X157340000Y-62100000D02*
X162420000Y-62100000D01*
X157340000Y-62100000D02*
X157340000Y-105540000D01*
%TO.C,D1*%
X187926000Y-103850000D02*
X187770000Y-103850000D01*
X185610000Y-103850000D02*
X185454000Y-103850000D01*
X187768608Y-107082334D02*
G75*
G03*
X187925515Y-103850001I-1078608J1672334D01*
G01*
X187769836Y-106451129D02*
G75*
G03*
X187769999Y-104369040I-1079836J1041129D01*
G01*
X185610001Y-104369040D02*
G75*
G03*
X185610164Y-106451129I1079999J-1040960D01*
G01*
X185454485Y-103850001D02*
G75*
G03*
X185611392Y-107082334I1235515J-1559999D01*
G01*
%TO.C,R1*%
X180340000Y-125910000D02*
X180340000Y-125140000D01*
X178970000Y-125140000D02*
X181710000Y-125140000D01*
X181710000Y-125140000D02*
X181710000Y-118600000D01*
X178970000Y-118600000D02*
X178970000Y-125140000D01*
X181710000Y-118600000D02*
X178970000Y-118600000D01*
X180340000Y-117830000D02*
X180340000Y-118600000D01*
%TO.C,J1*%
X119320000Y-79950000D02*
X120650000Y-79950000D01*
X119320000Y-81280000D02*
X119320000Y-79950000D01*
X119320000Y-82550000D02*
X119320000Y-85150000D01*
X119320000Y-82550000D02*
X121980000Y-82550000D01*
X119320000Y-85150000D02*
X121980000Y-85150000D01*
X121980000Y-82550000D02*
X121980000Y-85150000D01*
%TO.C,J5*%
X140160000Y-62280000D02*
X140160000Y-67080000D01*
X134160000Y-62280000D02*
X134160000Y-67080000D01*
X132600000Y-62280000D02*
X141720000Y-62280000D01*
X144420000Y-62820000D02*
X142520000Y-62820000D01*
X144420000Y-64160000D02*
X144420000Y-62820000D01*
X141720000Y-65580000D02*
X141720000Y-68580000D01*
X132600000Y-65580000D02*
X132600000Y-68580000D01*
X141720000Y-71580000D02*
X141720000Y-73890000D01*
X132600000Y-71580000D02*
X132600000Y-73890000D01*
X132600000Y-73890000D02*
X141720000Y-73890000D01*
X134160000Y-67080000D02*
G75*
G03*
X140160000Y-67080000I3000000J0D01*
G01*
%TO.C,J12*%
X171440000Y-115485000D02*
X163760000Y-115485000D01*
X171440000Y-115485000D02*
X171440000Y-118145000D01*
X163760000Y-115485000D02*
X163760000Y-118145000D01*
X174040000Y-116815000D02*
X174040000Y-118145000D01*
X174040000Y-118145000D02*
X172710000Y-118145000D01*
X171440000Y-118145000D02*
X163760000Y-118145000D01*
%TO.C,J9*%
X144720000Y-107950000D02*
X144720000Y-125790000D01*
X144720000Y-107950000D02*
X147380000Y-107950000D01*
X144720000Y-125790000D02*
X147380000Y-125790000D01*
X146050000Y-105350000D02*
X147380000Y-105350000D01*
X147380000Y-105350000D02*
X147380000Y-106680000D01*
X147380000Y-107950000D02*
X147380000Y-125790000D01*
%TO.C,SW1*%
X132290000Y-132280000D02*
X144590000Y-132280000D01*
X132290000Y-135000000D02*
X132290000Y-132280000D01*
X132290000Y-140000000D02*
X132290000Y-136860000D01*
X132290000Y-144580000D02*
X132290000Y-141860000D01*
X144590000Y-132280000D02*
X144590000Y-135000000D01*
X144590000Y-136860000D02*
X144590000Y-140000000D01*
X144590000Y-141860000D02*
X144590000Y-144580000D01*
X144590000Y-144580000D02*
X132290000Y-144580000D01*
X143119050Y-138470000D02*
G75*
G03*
X143119050Y-138470000I-4579050J0D01*
G01*
%TD*%
M02*
