%TF.GenerationSoftware,KiCad,Pcbnew,(7.0.0-0)*%
%TF.CreationDate,2023-05-27T19:41:02+07:00*%
%TF.ProjectId,Office HVAC,4f666669-6365-4204-9856-41432e6b6963,rev?*%
%TF.SameCoordinates,Original*%
%TF.FileFunction,Soldermask,Top*%
%TF.FilePolarity,Negative*%
%FSLAX46Y46*%
G04 Gerber Fmt 4.6, Leading zero omitted, Abs format (unit mm)*
G04 Created by KiCad (PCBNEW (7.0.0-0)) date 2023-05-27 19:41:02*
%MOMM*%
%LPD*%
G01*
G04 APERTURE LIST*
%ADD10C,1.600000*%
%ADD11O,1.600000X1.600000*%
%ADD12C,3.200000*%
%ADD13R,1.700000X1.700000*%
%ADD14O,1.700000X1.700000*%
%ADD15R,1.600000X1.600000*%
%ADD16R,1.800000X1.800000*%
%ADD17C,1.800000*%
%ADD18O,2.000000X1.500000*%
%ADD19C,2.000000*%
%ADD20R,3.000000X2.000000*%
%ADD21O,3.048000X1.850000*%
G04 APERTURE END LIST*
D10*
%TO.C,R2*%
X133350000Y-129540000D03*
D11*
X143509999Y-129539999D03*
%TD*%
D12*
%TO.C,H1*%
X120650000Y-64770000D03*
%TD*%
D13*
%TO.C,J8*%
X146074999Y-81279999D03*
D14*
X146074999Y-83819999D03*
X146074999Y-86359999D03*
X146074999Y-88899999D03*
X146074999Y-91439999D03*
X146074999Y-93979999D03*
X146074999Y-96519999D03*
X146074999Y-99059999D03*
%TD*%
D13*
%TO.C,J6*%
X130809999Y-81279999D03*
D14*
X130809999Y-83819999D03*
X130809999Y-86359999D03*
X130809999Y-88899999D03*
X130809999Y-91439999D03*
X130809999Y-93979999D03*
X130809999Y-96519999D03*
X130809999Y-99059999D03*
%TD*%
D13*
%TO.C,J3*%
X120649999Y-109219999D03*
D14*
X120649999Y-111759999D03*
%TD*%
D13*
%TO.C,J14*%
X172699999Y-120649999D03*
D14*
X170159999Y-120649999D03*
X167619999Y-120649999D03*
X165079999Y-120649999D03*
%TD*%
D13*
%TO.C,J101*%
X186664999Y-81269999D03*
D14*
X186664999Y-78729999D03*
X186664999Y-76189999D03*
X186664999Y-73649999D03*
%TD*%
D13*
%TO.C,J2*%
X120649999Y-93979999D03*
D14*
X120649999Y-96519999D03*
%TD*%
D13*
%TO.C,J4*%
X120649999Y-121919999D03*
D14*
X120649999Y-124459999D03*
%TD*%
D12*
%TO.C,H4*%
X187960000Y-142240000D03*
%TD*%
D13*
%TO.C,J7*%
X130809999Y-106679999D03*
D14*
X130809999Y-109219999D03*
X130809999Y-111759999D03*
X130809999Y-114299999D03*
X130809999Y-116839999D03*
X130809999Y-119379999D03*
X130809999Y-121919999D03*
X130809999Y-124459999D03*
%TD*%
D12*
%TO.C,H2*%
X187960000Y-64770000D03*
%TD*%
D13*
%TO.C,J10*%
X186664999Y-96499999D03*
D14*
X186664999Y-93959999D03*
X186664999Y-91419999D03*
X186664999Y-88879999D03*
%TD*%
D15*
%TO.C,A101*%
X173979999Y-101599999D03*
D11*
X173979999Y-99059999D03*
X173979999Y-96519999D03*
X173979999Y-93979999D03*
X173979999Y-91439999D03*
X173979999Y-88899999D03*
X173979999Y-86359999D03*
X173979999Y-83819999D03*
X173979999Y-81279999D03*
X173979999Y-78739999D03*
X173979999Y-76199999D03*
X173979999Y-73659999D03*
X173979999Y-71119999D03*
X173979999Y-68579999D03*
X173979999Y-66039999D03*
X158739999Y-66039999D03*
X158739999Y-68579999D03*
X158739999Y-71119999D03*
X158739999Y-73659999D03*
X158739999Y-76199999D03*
X158739999Y-78739999D03*
X158739999Y-81279999D03*
X158739999Y-83819999D03*
X158739999Y-86359999D03*
X158739999Y-88899999D03*
X158739999Y-91439999D03*
X158739999Y-93979999D03*
X158739999Y-96519999D03*
X158739999Y-99059999D03*
X158739999Y-101599999D03*
%TD*%
D16*
%TO.C,D1*%
X186689999Y-104139999D03*
D17*
X186690000Y-106680000D03*
%TD*%
D10*
%TO.C,R1*%
X180340000Y-126950000D03*
D11*
X180339999Y-116789999D03*
%TD*%
D13*
%TO.C,J1*%
X120649999Y-81279999D03*
D14*
X120649999Y-83819999D03*
%TD*%
D12*
%TO.C,H3*%
X120650000Y-142240000D03*
%TD*%
D18*
%TO.C,J5*%
X137159999Y-64179999D03*
D19*
X137160000Y-68580000D03*
D20*
X142659999Y-64079999D03*
X142659999Y-70079999D03*
X131659999Y-70079999D03*
X131659999Y-64079999D03*
%TD*%
D13*
%TO.C,J12*%
X172709999Y-116814999D03*
D14*
X170169999Y-116814999D03*
X167629999Y-116814999D03*
X165089999Y-116814999D03*
%TD*%
D13*
%TO.C,J9*%
X146049999Y-106679999D03*
D14*
X146049999Y-109219999D03*
X146049999Y-111759999D03*
X146049999Y-114299999D03*
X146049999Y-116839999D03*
X146049999Y-119379999D03*
X146049999Y-121919999D03*
X146049999Y-124459999D03*
%TD*%
D21*
%TO.C,SW1*%
X132189999Y-135929999D03*
X144689999Y-135929999D03*
X132189999Y-140929999D03*
X144689999Y-140929999D03*
%TD*%
M02*
