M48
; DRILL file {KiCad (7.0.0-0)} date Saturday, 27 May 2023 at 07:41:09 PM
; FORMAT={-:-/ absolute / inch / decimal}
; #@! TF.CreationDate,2023-05-27T19:41:09+07:00
; #@! TF.GenerationSoftware,Kicad,Pcbnew,(7.0.0-0)
; #@! TF.FileFunction,Plated,1,2,PTH
FMAT,2
INCH
; #@! TA.AperFunction,Plated,PTH,ViaDrill
T1C0.0118
; #@! TA.AperFunction,Plated,PTH,ViaDrill
T2C0.0157
; #@! TA.AperFunction,Plated,PTH,ComponentDrill
T3C0.0315
; #@! TA.AperFunction,Plated,PTH,ComponentDrill
T4C0.0354
; #@! TA.AperFunction,Plated,PTH,ComponentDrill
T5C0.0394
; #@! TA.AperFunction,Plated,PTH,ComponentDrill
T6C0.0512
%
G90
G05
T1
X6.7Y-2.95
X6.75Y-4.25
X6.95Y-2.95
X6.95Y-4.45
T2
X4.775Y-2.775
X4.85Y-2.775
X4.925Y-2.7
X4.925Y-2.775
X5.0Y-2.55
X5.0Y-2.625
X5.0Y-2.7
X5.0Y-2.775
X5.075Y-2.625
X5.075Y-2.7
X5.075Y-2.775
X5.15Y-2.65
X5.55Y-4.0
X5.75Y-4.0
T3
X5.25Y-5.1
X5.65Y-5.1
X7.1Y-4.598
X7.1Y-4.998
T4
X7.35Y-4.1
X7.35Y-4.2
T5
X4.75Y-3.2
X4.75Y-3.3
X4.75Y-3.7
X4.75Y-3.8
X4.75Y-4.3
X4.75Y-4.4
X4.75Y-4.8
X4.75Y-4.9
X5.15Y-3.2
X5.15Y-3.3
X5.15Y-3.4
X5.15Y-3.5
X5.15Y-3.6
X5.15Y-3.7
X5.15Y-3.8
X5.15Y-3.9
X5.15Y-4.2
X5.15Y-4.3
X5.15Y-4.4
X5.15Y-4.5
X5.15Y-4.6
X5.15Y-4.7
X5.15Y-4.8
X5.15Y-4.9
X5.75Y-4.2
X5.75Y-4.3
X5.75Y-4.4
X5.75Y-4.5
X5.75Y-4.6
X5.75Y-4.7
X5.75Y-4.8
X5.75Y-4.9
X5.751Y-3.2
X5.751Y-3.3
X5.751Y-3.4
X5.751Y-3.5
X5.751Y-3.6
X5.751Y-3.7
X5.751Y-3.8
X5.751Y-3.9
X6.2496Y-2.6
X6.2496Y-2.7
X6.2496Y-2.8
X6.2496Y-2.9
X6.2496Y-3.0
X6.2496Y-3.1
X6.2496Y-3.2
X6.2496Y-3.3
X6.2496Y-3.4
X6.2496Y-3.5
X6.2496Y-3.6
X6.2496Y-3.7
X6.2496Y-3.8
X6.2496Y-3.9
X6.2496Y-4.0
X6.4992Y-4.75
X6.4996Y-4.599
X6.5992Y-4.75
X6.5996Y-4.599
X6.6992Y-4.75
X6.6996Y-4.599
X6.7992Y-4.75
X6.7996Y-4.599
X6.8496Y-2.6
X6.8496Y-2.7
X6.8496Y-2.8
X6.8496Y-2.9
X6.8496Y-3.0
X6.8496Y-3.1
X6.8496Y-3.2
X6.8496Y-3.3
X6.8496Y-3.4
X6.8496Y-3.5
X6.8496Y-3.6
X6.8496Y-3.7
X6.8496Y-3.8
X6.8496Y-3.9
X6.8496Y-4.0
X7.349Y-2.8996
X7.349Y-2.9996
X7.349Y-3.0996
X7.349Y-3.1996
X7.349Y-3.4992
X7.349Y-3.5992
X7.349Y-3.6992
X7.349Y-3.7992
T6
X5.2043Y-5.3516
X5.2043Y-5.5484
X5.6965Y-5.3516
X5.6965Y-5.5484
T0
M30
